<svg width="30" height="30" viewBox="0 0 30 30" fill="none" xmlns="http://www.w3.org/2000/svg">
<path d="M11.9504 20.4533L17.6893 16.9189C17.7924 16.8555 17.8984 16.9949 17.8099 17.0771L13.0737 21.4796C12.9073 21.6346 12.7999 21.842 12.7695 22.067L12.6081 23.2627C12.5868 23.4223 12.3625 23.4381 12.3184 23.2837L11.698 21.1034C11.6269 20.8547 11.7305 20.5891 11.9504 20.4533Z" fill="#4AFEBF"/>
<path fill-rule="evenodd" clip-rule="evenodd" d="M30.0002 15.6C30.0002 23.5528 23.5531 30 15.6002 30C7.64729 30 1.2002 23.5528 1.2002 15.6C1.2002 7.64705 7.64729 1.19995 15.6002 1.19995C23.5531 1.19995 30.0002 7.64705 30.0002 15.6ZM8.06078 19.9408L10.9972 21.0368L12.1338 24.692C12.2065 24.926 12.4927 25.0126 12.6828 24.8572L14.3196 23.5228C14.491 23.383 14.7355 23.3761 14.9148 23.5063L17.867 25.6496C18.0703 25.7973 18.3582 25.6859 18.4092 25.4404L20.5718 15.0378C20.6275 14.7694 20.3638 14.5456 20.1084 14.6444L8.05734 19.2933C7.75995 19.408 7.76254 19.8291 8.06078 19.9408ZM14.785 11.6876L13.9982 10.803C13.4674 11.4052 12.8642 11.7063 12.1884 11.7063C11.7595 11.7063 11.3768 11.5971 11.0405 11.3787C10.7042 11.1571 10.448 10.8685 10.2722 10.5128C10.0963 10.157 10.0083 9.76853 10.0083 9.34725C10.0083 8.92598 10.0963 8.53748 10.2722 8.18176C10.448 7.82601 10.7042 7.53893 11.0405 7.32049C11.3768 7.09893 11.7595 6.98816 12.1884 6.98816C12.5371 6.98816 12.8548 7.06305 13.1419 7.21284C13.4319 7.36262 13.7112 7.5951 13.9796 7.91027L14.7943 6.99752C14.4579 6.63866 14.0583 6.36093 13.5955 6.16435C13.1356 5.96775 12.6667 5.86946 12.1884 5.86946C11.7163 5.86946 11.2704 5.95995 10.8507 6.14095C10.4311 6.31881 10.07 6.56221 9.76764 6.87114C9.46524 7.18007 9.22611 7.54985 9.05022 7.98048C8.87434 8.41111 8.78639 8.8667 8.78639 9.34725C8.78639 9.82781 8.87434 10.2834 9.05022 10.714C9.22611 11.1447 9.46524 11.5144 9.76764 11.8234C10.07 12.1323 10.4311 12.3772 10.8507 12.5582C11.2704 12.7393 11.7163 12.8298 12.1884 12.8298C12.6636 12.8298 13.1388 12.7283 13.614 12.5254C14.0923 12.3195 14.4826 12.0403 14.785 11.6876ZM15.8866 12.7034H17.0992V8.07409H17.1085L20.4735 12.7034H21.6492V5.99117H20.4364V10.6157H20.4272L17.053 5.99117H15.8866V12.7034Z" fill="#4AFEBF"/>
</svg>
