<svg width="30" height="30" viewBox="0 0 30 30" fill="none" xmlns="http://www.w3.org/2000/svg">
<path fill-rule="evenodd" clip-rule="evenodd" d="M15.4918 29.9941C23.4447 29.9941 29.8919 23.547 29.8919 15.5941C29.8919 7.64119 23.4447 1.19409 15.4918 1.19409C7.5389 1.19409 1.0918 7.64119 1.0918 15.5941C1.0918 23.547 7.5389 29.9941 15.4918 29.9941ZM18.0839 9.25015L18.1255 9.23503H18.099L18.0839 9.25015ZM12.9602 9.23377C12.9602 9.23377 10.8193 9.15313 8.50951 10.8341C8.50951 10.8341 6.19971 14.796 6.19971 19.6802C6.19971 19.6802 7.47999 21.8727 10.9907 21.956C10.9907 21.956 11.5035 21.2842 12.0215 20.6934C10.0494 20.1036 9.28196 18.9241 9.28196 18.9241L9.941 19.2592C10.0685 19.3111 10.1964 19.3636 10.3253 19.4167C12.1456 20.1654 14.1494 20.9895 17.5433 20.4387L17.5965 20.427C18.3462 20.2609 19.0971 20.0946 19.8468 19.7646C19.9844 19.6951 20.1308 19.6256 20.2849 19.5525C20.6894 19.3604 21.1466 19.1434 21.6349 18.8359C21.6349 18.8359 20.8663 20.0154 18.8123 20.605C19.2356 21.1923 19.8305 21.8652 19.8305 21.8652C22.7079 21.8032 24.144 20.32 24.6111 19.8375C24.7141 19.7312 24.77 19.6734 24.7839 19.6903C24.7839 14.8136 22.4602 10.8442 22.4602 10.8442C20.3836 9.32576 18.443 9.25771 18.0763 9.25645L17.8419 9.48706C20.4945 10.2431 21.7785 11.4239 21.7785 11.4239C17.9301 9.52864 13.773 9.42028 9.9662 10.9173C9.36765 11.1731 9.02489 11.3407 9.02489 11.3407C9.02489 11.3407 10.3064 10.0781 13.1329 9.40388L12.9602 9.23377ZM19.9781 16.4784C19.9781 17.4108 19.2484 18.1669 18.3525 18.1669C17.4566 18.1669 16.727 17.4108 16.727 16.4859C16.7295 15.5534 17.4603 14.7998 18.3525 14.7998V14.7961C19.2523 14.7961 19.9781 15.5521 19.9781 16.4784ZM12.533 18.1669C13.4289 18.1669 14.1585 17.4108 14.1585 16.4784C14.1585 15.5521 13.434 14.7961 12.538 14.7961L12.533 14.7998C11.637 14.7998 10.9074 15.5534 10.9074 16.4859C10.9074 17.4108 11.637 18.1669 12.533 18.1669Z" fill="#4AFEBF"/>
</svg>
