<svg width="30" height="30" viewBox="0 0 30 30" fill="none" xmlns="http://www.w3.org/2000/svg">
<g clip-path="url(#clip0_481_549)">
<path d="M15 0C6.76119 0 0 6.76119 0 15C0 22.0305 4.93332 28.417 11.4844 30V25.0374C10.8353 25.1795 10.2379 25.1837 9.57709 24.9889C8.69063 24.7273 7.97033 24.1368 7.43566 23.2363C7.09488 22.6614 6.49084 22.0379 5.86072 22.0837L5.70625 20.3327C7.06881 20.216 8.24754 21.1629 8.94721 22.3384C9.25805 22.8612 9.61576 23.1677 10.0749 23.3031C10.5188 23.4339 10.9952 23.3711 11.5505 23.175C11.6899 22.0633 12.1992 21.6472 12.5839 21.0612V21.0604C8.67692 20.4776 7.11984 18.4048 6.50186 16.7688C5.68291 14.5965 6.12234 11.8826 7.57049 10.1676C7.59867 10.1342 7.64947 10.0468 7.62979 9.98566C6.9658 7.97994 7.77486 6.3208 7.80463 6.14479C8.57092 6.37137 8.69543 5.9168 11.1333 7.39793L11.5546 7.65105C11.7309 7.75611 11.6755 7.69617 11.8518 7.68287C12.8696 7.40637 13.9426 7.25373 14.9998 7.23996C16.065 7.25373 17.1311 7.40637 18.1911 7.69406L18.3275 7.70783C18.3156 7.70602 18.3646 7.6991 18.4467 7.65012C21.492 5.80559 21.3826 6.40846 22.1992 6.14297C22.2288 6.31922 23.0271 8.00537 22.3702 9.98566C22.2816 10.2585 25.0104 12.7572 23.4979 16.7681C22.8799 18.4048 21.3231 20.4776 17.4161 21.0604V21.0612C17.9169 21.8246 18.5186 22.2306 18.5154 23.8053V30C25.0667 28.417 29.9998 22.0305 29.9998 15C30 6.76119 23.2388 0 15 0Z" fill="#4AFEBF"/>
</g>
<defs>
<clipPath id="clip0_481_549">
<rect width="30" height="30" fill="white"/>
</clipPath>
</defs>
</svg>
