<svg width="30" height="30" viewBox="0 0 30 30" fill="none" xmlns="http://www.w3.org/2000/svg">
<path fill-rule="evenodd" clip-rule="evenodd" d="M15 30C23.2843 30 30 23.2843 30 15C30 6.71573 23.2843 0 15 0C6.71573 0 0 6.71573 0 15C0 23.2843 6.71573 30 15 30ZM11.2905 22.2838C11.71 22.4925 12.0888 22.2838 12.0888 21.7785C12.0792 10.5632 12.1261 10.393 12.0704 10.347C12.0672 10.3444 12.0636 10.3421 12.0597 10.3382L7.0837 7.85165C6.52314 7.57246 6.27521 7.75932 6.27521 8.17229V19.2433C6.27521 19.3923 6.32319 19.5435 6.41698 19.6955C6.51078 19.8474 6.62565 19.9558 6.76234 20.0205L11.2905 22.2838ZM17.9118 19.7776L12.7119 11.367V17.1944L17.9118 19.7776ZM23.7247 21.7785V11.5422L18.4666 20.059L22.7606 22.1959C22.9097 22.2802 23.0623 22.3224 23.2179 22.3224C23.3735 22.3224 23.4971 22.2722 23.588 22.1719C23.6796 22.0715 23.7247 21.9407 23.7247 21.7785ZM21.1982 14.4505C22.8631 11.7545 23.6956 10.3964 23.6956 10.3767C23.6956 10.3506 23.6825 10.3309 23.6571 10.3186L18.3888 7.69606C18.1525 7.57828 17.8006 7.62772 17.629 7.90982L14.4743 13.0276L18.2717 19.1851C18.5575 18.7256 19.5332 17.1464 21.1982 14.4505Z" fill="#4AFEBF"/>
</svg>
