<svg width="30" height="30" viewBox="0 0 30 30" fill="none" xmlns="http://www.w3.org/2000/svg">
<g clip-path="url(#clip0_481_553)">
<path fill-rule="evenodd" clip-rule="evenodd" d="M15.1404 29.5373C23.2596 29.5373 29.8415 23.0288 29.8415 15.0002C29.8415 6.97161 23.2596 0.463135 15.1404 0.463135C7.02132 0.463135 0.439453 6.97161 0.439453 15.0002C0.439453 23.0288 7.02132 29.5373 15.1404 29.5373ZM6.43078 11.3725C6.43078 8.57083 8.70913 6.29038 11.51 6.29038H18.7681C21.5697 6.29038 23.8501 8.56872 23.8501 11.3696V18.6276C23.8501 21.4292 21.5718 23.7097 18.7709 23.7097H11.5128C8.71124 23.7097 6.43078 21.4314 6.43078 18.6305V11.3725ZM20.9469 9.91941C20.9469 9.51876 20.6217 9.1936 20.2211 9.1936C19.8204 9.1936 19.4953 9.51876 19.4953 9.91941C19.4953 10.3201 19.8204 10.6452 20.2211 10.6452C20.6217 10.6452 20.9469 10.3201 20.9469 9.91941ZM19.4953 15.0001C19.4953 12.5983 17.5422 10.6452 15.1404 10.6452C12.7388 10.6452 10.7856 12.5983 10.7856 15.0001C10.7856 17.4018 12.7388 19.3549 15.1404 19.3549C17.5422 19.3549 19.4953 17.4018 19.4953 15.0001ZM13.0876 12.9472C13.632 12.4027 14.3705 12.0968 15.1404 12.0968C15.9105 12.0968 16.6488 12.4027 17.1933 12.9472C17.7378 13.4916 18.0437 14.2301 18.0437 15.0001C18.0437 15.77 17.7378 16.5085 17.1933 17.0529C16.6488 17.5974 15.9105 17.9033 15.1404 17.9033C14.3705 17.9033 13.632 17.5974 13.0876 17.0529C12.5431 16.5085 12.2372 15.77 12.2372 15.0001C12.2372 14.2301 12.5431 13.4916 13.0876 12.9472Z" fill="#4AFEBF"/>
</g>
<defs>
<clipPath id="clip0_481_553">
<rect width="30" height="30" fill="white"/>
</clipPath>
</defs>
</svg>
