<svg width="30" height="30" viewBox="0 0 30 30" fill="none" xmlns="http://www.w3.org/2000/svg">
<path fill-rule="evenodd" clip-rule="evenodd" d="M15.4918 29.3942C23.4447 29.3942 29.8919 22.9471 29.8919 14.9942C29.8919 7.04134 23.4447 0.594238 15.4918 0.594238C7.5389 0.594238 1.0918 7.04134 1.0918 14.9942C1.0918 22.9471 7.5389 29.3942 15.4918 29.3942ZM21.2323 13.5247C21.6127 13.1352 22.1295 12.8852 22.7168 12.8852C24.884 12.8868 25.6038 15.8652 23.649 16.8948C23.735 17.2129 23.7698 17.567 23.7698 17.9047C23.7698 21.2748 20.0701 24.0055 15.5079 24.0055C10.9652 24.0055 7.26539 21.2748 7.26539 17.9047C7.26539 17.567 7.29716 17.2285 7.36767 16.9112C5.37251 15.8855 6.08612 12.8852 8.26491 12.8852C8.85223 12.8852 9.38918 13.1352 9.76961 13.5411C11.1728 12.5468 13.0386 11.9082 15.1121 11.8196L16.3037 6.28614C16.3548 6.08869 16.543 5.94765 16.7353 6.00015L20.5527 6.86832C20.8123 6.35745 21.333 5.98369 21.9366 5.98369C22.8029 5.98369 23.4916 6.71161 23.4916 7.58058C23.4916 8.44955 22.7982 9.17747 21.9358 9.17747C21.0897 9.17747 20.4001 8.46835 20.4001 7.60017L16.9436 6.80407L15.8581 11.8235C17.9479 11.8917 19.8337 12.5311 21.2323 13.5247ZM12.0894 15.5274C11.2232 15.5274 10.5336 16.2397 10.5336 17.1243C10.5336 17.9933 11.227 18.7056 12.0894 18.7016C12.9363 18.7016 13.6258 17.9933 13.6258 17.1243C13.6258 16.235 12.9355 15.5274 12.0894 15.5274ZM12.053 20.8838C13.4802 22.3475 17.5055 22.3475 18.9319 20.8838C19.0884 20.7435 19.0884 20.4944 18.9279 20.333C18.7909 20.1919 18.5475 20.1919 18.4104 20.333C17.2737 21.4989 13.6599 21.4793 12.5706 20.333C12.4334 20.1919 12.1902 20.1919 12.053 20.333C11.8957 20.4936 11.8957 20.7428 12.053 20.8838ZM17.3645 17.129C17.3645 17.9972 18.054 18.7047 18.9001 18.7047C19.7624 18.7047 20.452 17.9933 20.4559 17.129C20.4559 16.2397 19.7624 15.5321 18.9001 15.5321C18.054 15.5321 17.3645 16.2444 17.3645 17.129Z" fill="#4AFEBF"/>
</svg>
