<svg width="30" height="30" viewBox="0 0 30 30" fill="none" xmlns="http://www.w3.org/2000/svg">
<g clip-path="url(#clip0_481_601)">
<mask id="mask0_481_601" style="mask-type:luminance" maskUnits="userSpaceOnUse" x="0" y="0" width="30" height="30">
<path d="M30 0H0V30H30V0Z" fill="white"/>
</mask>
<g mask="url(#mask0_481_601)">
<path fill-rule="evenodd" clip-rule="evenodd" d="M15.0001 30C23.2843 30 30.0001 23.2842 30.0001 15C30.0001 6.71573 23.2843 0 15.0001 0C6.71573 0 0 6.71573 0 15C0 23.2842 6.71573 30 15.0001 30ZM10.3968 16.2458L6.1864 14.6744C5.75876 14.5142 5.75504 13.9105 6.18148 13.746L23.4611 7.08005C23.8274 6.93838 24.2054 7.25929 24.1255 7.644L21.0247 22.5601C20.9515 22.9122 20.5387 23.072 20.2472 22.8601L16.0142 19.7869C15.7571 19.6002 15.4067 19.6103 15.1607 19.8106L12.8137 21.724C12.5412 21.9468 12.1308 21.8226 12.0264 21.487L10.3968 16.2458ZM19.9926 10.3413L11.7638 15.4093C11.4484 15.604 11.3 15.9848 11.4018 16.3415L12.2916 19.4676C12.3547 19.6891 12.6763 19.6664 12.7069 19.4375L12.9382 17.7233C12.9818 17.4005 13.1358 17.1031 13.3746 16.8809L20.1655 10.5682C20.2926 10.4505 20.1404 10.2505 19.9926 10.3413Z" fill="#4AFEBF"/>
</g>
</g>
<defs>
<clipPath id="clip0_481_601">
<rect width="30" height="30" fill="white"/>
</clipPath>
</defs>
</svg>
