<svg width="30" height="30" viewBox="0 0 30 30" fill="none" xmlns="http://www.w3.org/2000/svg">
<path fill-rule="evenodd" clip-rule="evenodd" d="M15 30C23.2843 30 30 23.2843 30 15C30 6.71573 23.2843 0 15 0C6.71573 0 0 6.71573 0 15C0 23.2843 6.71573 30 15 30ZM23.2965 9.48735C23.6026 9.39881 23.9021 9.28975 24.1935 9.16053C24.3153 9.10656 24.458 9.13953 24.5436 9.24147C24.6293 9.34335 24.6373 9.48962 24.5633 9.6003C24.0762 10.329 23.4775 10.963 22.7822 11.4869C22.7855 11.5969 22.7872 11.7072 22.7872 11.8164C22.7872 14.4313 21.7764 17.0778 20.014 19.0772C18.6006 20.6806 16.0649 22.592 12.0116 22.592C9.94972 22.592 7.94206 22.0036 6.20577 20.8903C6.08846 20.8151 6.03868 20.6689 6.08565 20.5377C6.13261 20.4065 6.26446 20.3251 6.40236 20.3415C6.67994 20.3743 6.96357 20.3909 7.24559 20.3909C8.59714 20.3909 9.88463 20.0216 11.0105 19.3164C9.65305 19.0111 8.5302 18.0095 8.09408 16.6479C8.06183 16.5474 8.08498 16.4373 8.15498 16.3584C8.22485 16.2794 8.3314 16.243 8.43502 16.2628C8.53552 16.282 8.63669 16.2967 8.73791 16.3068C7.55966 15.6042 6.789 14.315 6.789 12.8831C6.789 12.8652 6.789 12.8476 6.78942 12.8299C6.79182 12.7252 6.84883 12.6293 6.93976 12.5772C7.03064 12.5251 7.14227 12.5243 7.23374 12.5753C7.40412 12.6698 7.58264 12.7495 7.7666 12.8132C7.16159 12.102 6.8191 11.1918 6.8191 10.2325C6.8191 9.52821 7.00557 8.83598 7.35829 8.23073C7.40771 8.14596 7.49559 8.0908 7.59341 8.08314C7.69116 8.07531 7.78664 8.11629 7.84862 8.19232C9.58772 10.3256 12.1203 11.6645 14.8444 11.9037C14.8227 11.7342 14.8118 11.5622 14.8118 11.3893C14.8118 9.19415 16.5978 7.4082 18.793 7.4082C19.833 7.4082 20.839 7.8201 21.5797 8.54385C22.315 8.38185 23.0163 8.1048 23.6663 7.71929C23.7732 7.65594 23.9081 7.66521 24.0052 7.74262C24.1024 7.81998 24.1416 7.94944 24.1038 8.06771C23.9352 8.59536 23.6589 9.07755 23.2965 9.48735Z" fill="#4AFEBF"/>
</svg>
