<svg width="30" height="30" viewBox="0 0 30 30" fill="none" xmlns="http://www.w3.org/2000/svg">
<path fill-rule="evenodd" clip-rule="evenodd" d="M1.0918 14.9942C1.0918 7.04255 7.54011 0.594238 15.4918 0.594238C23.4435 0.594238 29.8919 7.04255 29.8919 14.9942C29.8919 22.9459 23.4435 29.3942 15.4918 29.3942C7.54011 29.3942 1.0918 22.9459 1.0918 14.9942ZM24.1191 19.3376C24.4896 17.9293 24.4896 15.009 24.4896 15.009C24.4896 15.009 24.5046 12.074 24.1191 10.6658C23.9115 9.89505 23.3037 9.28707 22.533 9.07963C21.1246 8.69424 15.4918 8.69424 15.4918 8.69424C15.4918 8.69424 9.85888 8.69424 8.45066 9.06492C7.69459 9.27234 7.07187 9.89505 6.86445 10.6658C6.49377 12.074 6.49377 14.9942 6.49377 14.9942C6.49377 14.9942 6.49377 17.9293 6.86445 19.3226C7.0721 20.0934 7.67986 20.7014 8.45066 20.9089C9.87361 21.2942 15.4918 21.2942 15.4918 21.2942C15.4918 21.2942 21.1246 21.2942 22.533 20.9235C23.3037 20.7162 23.9115 20.1084 24.1191 19.3376ZM18.382 14.9943L13.698 17.6922V12.2966L18.382 14.9943Z" fill="#4AFEBF"/>
</svg>
