<svg width="128" height="128" viewBox="0 0 128 128" fill="none" xmlns="http://www.w3.org/2000/svg">
<g clip-path="url(#clip0_481_636)">
<path d="M86.0844 125.877H54.0681C53.5558 125.877 53.0646 125.673 52.7023 125.311C52.3401 124.949 52.1366 124.458 52.1366 123.945C52.1366 123.433 52.3401 122.942 52.7023 122.58C53.0646 122.217 53.5558 122.014 54.0681 122.014H86.0841C89.4214 122.014 92.1364 119.299 92.1364 115.962V100.781C92.1364 100.269 92.3399 99.7775 92.7021 99.4153C93.0643 99.0531 93.5556 98.8496 94.0679 98.8496C94.5801 98.8496 95.0714 99.0531 95.4336 99.4153C95.7959 99.7775 95.9994 100.269 95.9994 100.781V115.962C95.9999 121.429 91.5519 125.877 86.0844 125.877ZM47.9999 57.9853C47.4876 57.9853 46.9963 57.7818 46.6341 57.4196C46.2719 57.0574 46.0684 56.5661 46.0684 56.0538V48.0541C46.0684 47.5418 46.2719 47.0505 46.6341 46.6883C46.9963 46.3261 47.4876 46.1226 47.9999 46.1226C48.5121 46.1226 49.0034 46.3261 49.3656 46.6883C49.7279 47.0505 49.9314 47.5418 49.9314 48.0541V56.0538C49.9314 56.3075 49.8815 56.5586 49.7844 56.793C49.6873 57.0274 49.5451 57.2403 49.3657 57.4197C49.1863 57.599 48.9734 57.7413 48.7391 57.8383C48.5047 57.9354 48.2535 57.9853 47.9999 57.9853Z" fill="#E0E0E0"/>
<path d="M49.4245 127.96L44 128C41.7908 128 40 126.209 40 124C40 121.791 41.7908 120 44 120L49.4245 120.033C51.6337 120.033 53.4245 121.791 53.4245 124C53.4245 126.209 51.6337 127.96 49.4245 127.96Z" fill="#1E2121"/>
<path d="M51.9999 120H44.2734C46.4827 120 48.2734 121.791 48.2734 124C48.2734 126.209 46.4827 128 44.2734 128H51.9999C54.2092 128 55.9999 126.209 55.9999 124C55.9999 121.791 54.2092 120 51.9999 120Z" fill="#1E2121"/>
<path d="M48 48C50.2091 48 52 46.2091 52 44C52 41.7909 50.2091 40 48 40C45.7909 40 44 41.7909 44 44C44 46.2091 45.7909 48 48 48Z" fill="#51EEDA"/>
<path d="M92.1367 104H84V80H92.1367C94.2702 80 96 81.7295 96 83.8633V100.137C96 102.271 94.2705 104 92.1367 104ZM3.86325 104H12V80H3.86325C1.7295 80 0 81.7295 0 83.8633V100.137C0 102.271 1.7295 104 3.86325 104Z" fill="#51EEDA"/>
<path d="M53.5327 56.089L49.9315 56H39.8915C22.2785 56 8 70.2782 8 87.8918V96.1C8 104.919 15.149 112.068 23.968 112.068H64.3057L69.4567 112.009C78.2755 112.009 85.4248 104.919 85.4248 96.1003V87.892C85.4245 70.2783 71.146 56.089 53.5327 56.089Z" fill="white"/>
<path d="M56.1083 55.9268H48.3818C65.9951 55.9268 80.2736 70.2053 80.2736 87.8185V96.0268C80.2736 104.846 73.1246 111.995 64.3056 111.995H72.0321C80.8508 111.995 88.0001 104.846 88.0001 96.0268V87.8185C88.0001 70.205 73.7216 55.9268 56.1083 55.9268Z" fill="#E0E0E0"/>
<path d="M61.4245 95.9117L56.2735 95.9609H32C25.3725 95.9609 20 90.5884 20 83.9609C20 77.3334 25.3725 71.9609 32 71.9609H56.2735L61.4245 72.0054C68.052 72.0054 73.4245 77.3334 73.4245 83.9609C73.4245 90.5882 68.052 95.9117 61.4245 95.9117Z" fill="#1E2121"/>
<path d="M63.9999 71.9609H56.2734C62.9009 71.9609 68.2734 77.3334 68.2734 83.9609C68.2734 90.5884 62.9009 95.9609 56.2734 95.9609H63.9999C70.6274 95.9609 75.9999 90.5884 75.9999 83.9609C75.9999 77.3334 70.6274 71.9609 63.9999 71.9609Z" fill="#1E2121"/>
<path d="M36 87.9517C38.2091 87.9517 40 86.1608 40 83.9517C40 81.7425 38.2091 79.9517 36 79.9517C33.7909 79.9517 32 81.7425 32 83.9517C32 86.1608 33.7909 87.9517 36 87.9517Z" fill="#51EEDA"/>
<path d="M60 87.9517C62.2091 87.9517 64 86.1608 64 83.9517C64 81.7425 62.2091 79.9517 60 79.9517C57.7909 79.9517 56 81.7425 56 83.9517C56 86.1608 57.7909 87.9517 60 87.9517Z" fill="#51EEDA"/>
<path d="M117.44 0.096L112.289 0H63.9918C59.5823 0 56.0078 3.5745 56.0078 7.984V32.1418C56.0078 36.5513 59.5823 40.1258 63.9918 40.1258H94.1971C94.6752 40.1258 95.1337 40.3157 95.4718 40.6538C95.8099 40.9918 95.9998 41.4504 95.9998 41.9285V48.3247L98.8976 50.6075L112 40.1258L117.44 40.016C121.85 40.016 125.424 36.5513 125.424 32.1418V7.984C125.424 3.5745 121.85 0.096 117.44 0.096Z" fill="#51EEDA"/>
<path d="M96 48.3247V51.6567C96 53.259 97.9337 54.065 99.0717 52.9372L112 40.1258H105.016C104.54 40.1258 104.084 40.3135 103.746 40.648L96 48.3247ZM120.016 0H112.289C116.699 0 120.273 3.5745 120.273 7.984V32.1418C120.273 36.551 116.699 40.1258 112.289 40.1258H120.016C124.425 40.1258 128 36.5513 128 32.1418V7.984C128 3.5745 124.425 0 120.016 0Z" fill="#51EEDA"/>
<path d="M100.004 13.9968H68.0038C67.4915 13.9968 67.0002 13.7933 66.638 13.4311C66.2758 13.0688 66.0723 12.5776 66.0723 12.0653C66.0723 11.553 66.2758 11.0617 66.638 10.6995C67.0002 10.3373 67.4915 10.1338 68.0038 10.1338H100.004C100.516 10.1338 101.007 10.3373 101.37 10.6995C101.732 11.0617 101.935 11.553 101.935 12.0653C101.935 12.5776 101.732 13.0688 101.37 13.4311C101.007 13.7933 100.516 13.9968 100.004 13.9968ZM92.0038 29.866H68.0038C67.4915 29.866 67.0002 29.6625 66.638 29.3003C66.2758 28.9381 66.0723 28.4468 66.0723 27.9345C66.0723 27.4223 66.2758 26.931 66.638 26.5688C67.0002 26.2065 67.4915 26.003 68.0038 26.003H92.0038C92.516 26.003 93.0073 26.2065 93.3695 26.5688C93.7318 26.931 93.9353 27.4223 93.9353 27.9345C93.9353 28.4468 93.7318 28.9381 93.3695 29.3003C93.0073 29.6625 92.516 29.866 92.0038 29.866ZM116.004 21.9973H68.0038C67.7501 21.9973 67.499 21.9473 67.2646 21.8503C67.0303 21.7532 66.8173 21.6109 66.638 21.4316C66.4586 21.2522 66.3164 21.0393 66.2193 20.8049C66.1222 20.5706 66.0723 20.3194 66.0723 20.0658C66.0723 19.8121 66.1222 19.561 66.2193 19.3266C66.3164 19.0923 66.4586 18.8794 66.638 18.7C66.8173 18.5207 67.0303 18.3784 67.2646 18.2813C67.499 18.1842 67.7501 18.1343 68.0038 18.1343H116.004C116.257 18.1343 116.509 18.1842 116.743 18.2813C116.977 18.3784 117.19 18.5207 117.37 18.7C117.549 18.8794 117.691 19.0923 117.788 19.3266C117.885 19.561 117.935 19.8121 117.935 20.0658C117.935 20.3194 117.885 20.5706 117.788 20.8049C117.691 21.0393 117.549 21.2522 117.37 21.4316C117.19 21.6109 116.977 21.7532 116.743 21.8503C116.509 21.9473 116.257 21.9973 116.004 21.9973Z" fill="white"/>
<path d="M55.9999 105.932H39.9999C39.4876 105.932 38.9963 105.728 38.6341 105.366C38.2719 105.004 38.0684 104.513 38.0684 104C38.0684 103.488 38.2719 102.997 38.6341 102.635C38.9963 102.272 39.4876 102.069 39.9999 102.069H55.9999C56.5121 102.069 57.0034 102.272 57.3656 102.635C57.7279 102.997 57.9314 103.488 57.9314 104C57.9314 104.513 57.7279 105.004 57.3656 105.366C57.0034 105.728 56.5121 105.932 55.9999 105.932Z" fill="#1E2121"/>
</g>
<defs>
<clipPath id="clip0_481_636">
<rect width="128" height="128" fill="white"/>
</clipPath>
</defs>
</svg>
