<svg width="212" height="212" viewBox="0 0 212 212" fill="none" xmlns="http://www.w3.org/2000/svg">
<circle cx="106" cy="106" r="106" fill="#1E2121"/>
<path d="M88.4644 100.416V115.065L88.3838 115.11L71.4172 105.833C71.3815 105.813 71.3516 105.784 71.3308 105.749C71.31 105.714 71.2989 105.675 71.2988 105.634L71.545 91.0293L88.4644 100.416Z" fill="#28BCA9"/>
<path d="M122.704 115.116V129.484C122.704 129.712 122.579 129.922 122.379 130.032L105.539 139.238V124.499L122.704 115.116Z" fill="#00D48A"/>
<path d="M105.539 139.202V139.238L88.6988 130.032C88.6005 129.978 88.5184 129.899 88.4613 129.802C88.4041 129.706 88.374 129.596 88.374 129.484L88.3841 115.11L105.54 124.499L105.539 139.202Z" fill="#00D48A"/>
<path d="M139.873 91.0293L139.961 105.546C139.961 105.683 139.887 105.809 139.767 105.874L122.705 115.116L122.796 100.416L139.873 91.0293Z" fill="#28BCA9"/>
<path d="M122.705 115.116L105.62 105.773L105.625 91.021L122.795 100.416L122.705 115.116Z" fill="#28BCA9"/>
<path d="M105.63 91.0293L105.62 105.773L88.3838 115.11L88.4644 100.416L105.63 91.0293Z" fill="#28BCA9"/>
<path d="M122.795 100.415L105.63 91.0292L122.698 81.6982C122.728 81.6822 122.762 81.6738 122.796 81.6738C122.83 81.6738 122.864 81.6822 122.894 81.6982L139.832 90.9584C139.845 90.9653 139.855 90.9754 139.863 90.9878C139.87 91.0002 139.874 91.0144 139.874 91.0289C139.874 91.0433 139.87 91.0575 139.863 91.0699C139.855 91.0823 139.845 91.0925 139.832 91.0993L122.795 100.415Z" fill="#51EEDA"/>
<path d="M88.4646 100.415L71.6623 91.228C71.6268 91.2084 71.5971 91.1796 71.5765 91.1446C71.5558 91.1097 71.5449 91.0698 71.5449 91.0292C71.5449 90.9886 71.5558 90.9487 71.5765 90.9138C71.5971 90.8788 71.6268 90.85 71.6623 90.8304L88.3013 81.7346C88.3515 81.7075 88.4076 81.6934 88.4646 81.6934C88.5216 81.6934 88.5777 81.7075 88.6278 81.7346L105.63 91.0292L88.4646 100.415Z" fill="#51EEDA"/>
<path d="M105.539 124.499L88.3838 115.11L105.62 105.772L122.705 115.115L105.539 124.499Z" fill="#4AFEBF"/>
<path d="M116.11 159.976C115.626 159.976 115.159 159.796 114.801 159.471C114.442 159.146 114.217 158.699 114.169 158.218C114.122 157.736 114.255 157.254 114.543 156.865C114.831 156.476 115.254 156.208 115.728 156.113C125.605 154.128 134.632 149.308 141.832 142.175C149.026 135.047 153.93 126.071 156.009 116.219C156.059 115.965 156.159 115.724 156.302 115.509C156.446 115.294 156.631 115.11 156.847 114.967C157.063 114.824 157.304 114.726 157.558 114.678C157.812 114.629 158.074 114.632 158.327 114.685C158.58 114.739 158.819 114.842 159.032 114.989C159.245 115.136 159.426 115.324 159.566 115.542C159.705 115.759 159.8 116.003 159.845 116.257C159.889 116.512 159.883 116.773 159.826 117.025C157.589 127.625 152.316 137.28 144.578 144.947C136.835 152.618 127.125 157.802 116.497 159.938C116.37 159.964 116.24 159.976 116.11 159.976ZM94.3809 159.869C94.2472 159.869 94.1114 159.855 93.9753 159.825C83.3756 157.588 73.7208 152.315 66.0538 144.577C58.3821 136.835 53.1984 127.125 51.0626 116.497C51.01 116.245 51.0078 115.985 51.0561 115.732C51.1044 115.479 51.2023 115.238 51.3441 115.024C51.4858 114.809 51.6687 114.624 51.8822 114.48C52.0956 114.336 52.3354 114.236 52.5877 114.186C52.8401 114.135 53.0999 114.135 53.3524 114.185C53.6048 114.235 53.8448 114.335 54.0586 114.478C54.2724 114.621 54.4556 114.806 54.5979 115.02C54.7401 115.235 54.8384 115.475 54.8873 115.728C56.8727 125.606 61.692 134.632 68.8253 141.831C75.9538 149.026 84.9297 153.929 94.7815 156.009C95.2531 156.109 95.671 156.38 95.9547 156.769C96.2384 157.159 96.3678 157.64 96.3181 158.119C96.2683 158.598 96.0429 159.043 95.6852 159.366C95.3275 159.689 94.8629 159.868 94.3809 159.869V159.869ZM53.0841 96.3295C52.7935 96.3297 52.5066 96.265 52.2442 96.1401C51.9819 96.0152 51.7508 95.8333 51.5677 95.6077C51.3846 95.3821 51.2542 95.1185 51.1861 94.836C51.1179 94.5536 51.1137 94.2595 51.1738 93.9752C53.4121 83.3756 58.6852 73.7215 66.423 66.0545C74.1655 58.3828 83.8758 53.1991 94.5039 51.0633C94.7551 51.0128 95.0138 51.0123 95.2652 51.0618C95.5167 51.1112 95.7559 51.2098 95.9692 51.3517C96.1825 51.4937 96.3658 51.6763 96.5086 51.8891C96.6513 52.1019 96.7508 52.3407 96.8012 52.5919C97.0128 53.6479 96.3288 54.6763 95.2726 54.888C85.3945 56.8731 76.3683 61.693 69.169 68.826C61.9745 75.9538 57.0712 84.9293 54.9916 94.7812C54.8991 95.2187 54.6592 95.6112 54.312 95.893C53.9649 96.1748 53.5312 96.3289 53.0841 96.3295ZM156.705 96.2987C156.254 96.2983 155.818 96.142 155.47 95.8564C155.122 95.5709 154.883 95.1736 154.795 94.7321C150.846 75.0855 135.694 59.3876 116.193 54.7413C115.145 54.4914 114.497 53.4392 114.747 52.3921C114.867 51.889 115.182 51.4541 115.622 51.183C116.063 50.912 116.593 50.8268 117.096 50.9464C138.073 55.9452 154.371 72.8298 158.619 93.9634C158.676 94.2466 158.669 94.539 158.599 94.8193C158.529 95.0996 158.398 95.3609 158.215 95.5843C158.032 95.8078 157.801 95.9878 157.54 96.1114C157.279 96.2349 156.994 96.299 156.705 96.299V96.2987Z" fill="#51EEDA"/>
<path d="M116.164 159.077C116.164 165.11 111.272 170 105.24 170C99.207 170 94.3166 165.11 94.3166 159.077C94.3166 153.043 99.207 148.153 105.24 148.153C111.272 148.153 116.164 153.043 116.164 159.077ZM62.8469 105.24C62.8469 111.272 57.9564 116.164 51.9234 116.164C45.8904 116.164 41 111.272 41 105.24C41 99.2072 45.8904 94.3168 51.9234 94.3168C57.9567 94.3168 62.8471 99.2072 62.8471 105.24L62.8469 105.24ZM116.683 51.9234C116.683 57.9567 111.793 62.8471 105.76 62.8471C99.7278 62.8471 94.8363 57.9567 94.8363 51.9234C94.8363 45.8904 99.7278 41 105.76 41C111.793 41 116.683 45.8904 116.683 51.9234H116.683ZM170 105.76C170 111.793 165.11 116.683 159.077 116.683C153.043 116.683 148.153 111.793 148.153 105.76C148.153 99.7278 153.043 94.8363 159.077 94.8363C165.11 94.8363 170 99.7278 170 105.76Z" fill="#E0E0E0"/>
<path d="M104.979 159.077C104.979 154.979 107.235 151.413 110.572 149.544C108.944 148.629 107.107 148.15 105.24 148.153C99.206 148.153 94.3166 153.042 94.3166 159.077C94.3166 165.111 99.2062 170 105.24 170C107.107 170.002 108.944 169.524 110.572 168.61C107.235 166.741 104.98 163.174 104.98 159.076L104.979 159.077ZM51.6637 105.24C51.6637 101.143 53.9186 97.5753 57.255 95.7063C55.6267 94.7929 53.7907 94.3143 51.9237 94.3166C45.8892 94.3166 41 99.2062 41 105.24C41 111.275 45.8894 116.164 51.9234 116.164C53.7906 116.166 55.6268 115.687 57.2548 114.773C53.9184 112.904 51.6639 109.338 51.6639 105.24L51.6637 105.24ZM105.5 51.9234C105.5 47.8264 107.756 44.2588 111.092 42.3895C109.463 41.4763 107.627 40.9977 105.76 41C99.7257 41 94.8363 45.8894 94.8363 51.9234C94.8363 57.9575 99.7257 62.8471 105.76 62.8471C107.627 62.8494 109.464 62.3704 111.092 61.4563C107.756 59.5873 105.5 56.0207 105.5 51.9234ZM158.817 105.76C158.817 101.663 161.072 98.0959 164.408 96.2269C162.78 95.3127 160.944 94.8336 159.077 94.8361C153.042 94.8361 148.153 99.7257 148.153 105.76C148.153 111.794 153.042 116.683 159.077 116.683C160.944 116.686 162.78 116.207 164.408 115.294C161.072 113.425 158.817 109.857 158.817 105.76Z" fill="white"/>
</svg>
