<svg width="212" height="212" viewBox="0 0 212 212" fill="none" xmlns="http://www.w3.org/2000/svg">
<circle cx="106" cy="106" r="106" fill="#1E2121"/>
<g clip-path="url(#clip0_481_634)">
<path d="M128.084 167.877H96.0681C95.5558 167.877 95.0646 167.673 94.7023 167.311C94.3401 166.949 94.1366 166.458 94.1366 165.945C94.1366 165.433 94.3401 164.942 94.7023 164.58C95.0646 164.217 95.5558 164.014 96.0681 164.014H128.084C131.421 164.014 134.136 161.299 134.136 157.962V142.781C134.136 142.269 134.34 141.778 134.702 141.415C135.064 141.053 135.556 140.85 136.068 140.85C136.58 140.85 137.071 141.053 137.434 141.415C137.796 141.778 137.999 142.269 137.999 142.781V157.962C138 163.429 133.552 167.877 128.084 167.877ZM89.9999 99.9853C89.4876 99.9853 88.9963 99.7818 88.6341 99.4196C88.2719 99.0574 88.0684 98.5661 88.0684 98.0538V90.0541C88.0684 89.5418 88.2719 89.0505 88.6341 88.6883C88.9963 88.3261 89.4876 88.1226 89.9999 88.1226C90.5121 88.1226 91.0034 88.3261 91.3656 88.6883C91.7279 89.0505 91.9314 89.5418 91.9314 90.0541V98.0538C91.9314 98.3075 91.8815 98.5586 91.7844 98.793C91.6873 99.0274 91.5451 99.2403 91.3657 99.4197C91.1863 99.599 90.9734 99.7413 90.7391 99.8383C90.5047 99.9354 90.2535 99.9853 89.9999 99.9853Z" fill="#E0E0E0"/>
<path d="M91.4245 169.96L86 170C83.7908 170 82 168.209 82 166C82 163.791 83.7908 162 86 162L91.4245 162.033C93.6337 162.033 95.4245 163.791 95.4245 166C95.4245 168.209 93.6337 169.96 91.4245 169.96Z" fill="#1E2121"/>
<path d="M93.9999 162H86.2734C88.4827 162 90.2734 163.791 90.2734 166C90.2734 168.209 88.4827 170 86.2734 170H93.9999C96.2092 170 97.9999 168.209 97.9999 166C97.9999 163.791 96.2092 162 93.9999 162Z" fill="#1E2121"/>
<path d="M90 90C92.2091 90 94 88.2091 94 86C94 83.7909 92.2091 82 90 82C87.7909 82 86 83.7909 86 86C86 88.2091 87.7909 90 90 90Z" fill="#51EEDA"/>
<path d="M134.137 146H126V122H134.137C136.27 122 138 123.73 138 125.863V142.137C138 144.271 136.271 146 134.137 146ZM45.8633 146H54V122H45.8633C43.7295 122 42 123.73 42 125.863V142.137C42 144.271 43.7295 146 45.8633 146Z" fill="#51EEDA"/>
<path d="M95.5327 98.089L91.9315 98H81.8915C64.2785 98 50 112.278 50 129.892V138.1C50 146.919 57.149 154.068 65.968 154.068H106.306L111.457 154.009C120.275 154.009 127.425 146.919 127.425 138.1V129.892C127.424 112.278 113.146 98.089 95.5327 98.089Z" fill="white"/>
<path d="M98.1083 97.9268H90.3818C107.995 97.9268 122.274 112.205 122.274 129.819V138.027C122.274 146.846 115.125 153.995 106.306 153.995H114.032C122.851 153.995 130 146.846 130 138.027V129.819C130 112.205 115.722 97.9268 98.1083 97.9268Z" fill="#E0E0E0"/>
<path d="M103.424 137.912L98.2735 137.961H74C67.3725 137.961 62 132.588 62 125.961C62 119.333 67.3725 113.961 74 113.961H98.2735L103.424 114.005C110.052 114.005 115.424 119.333 115.424 125.961C115.424 132.588 110.052 137.912 103.424 137.912Z" fill="#1E2121"/>
<path d="M106 113.961H98.2734C104.901 113.961 110.273 119.333 110.273 125.961C110.273 132.588 104.901 137.961 98.2734 137.961H106C112.627 137.961 118 132.588 118 125.961C118 119.333 112.627 113.961 106 113.961Z" fill="#1E2121"/>
<path d="M78 129.952C80.2091 129.952 82 128.161 82 125.952C82 123.743 80.2091 121.952 78 121.952C75.7909 121.952 74 123.743 74 125.952C74 128.161 75.7909 129.952 78 129.952Z" fill="#51EEDA"/>
<path d="M102 129.952C104.209 129.952 106 128.161 106 125.952C106 123.743 104.209 121.952 102 121.952C99.7909 121.952 98 123.743 98 125.952C98 128.161 99.7909 129.952 102 129.952Z" fill="#51EEDA"/>
<path d="M159.44 42.096L154.289 42H105.992C101.582 42 98.0078 45.5745 98.0078 49.984V74.1418C98.0078 78.5513 101.582 82.1258 105.992 82.1258H136.197C136.675 82.1258 137.134 82.3157 137.472 82.6538C137.81 82.9918 138 83.4504 138 83.9285V90.3247L140.898 92.6075L154 82.1258L159.44 82.016C163.85 82.016 167.424 78.5513 167.424 74.1418V49.984C167.424 45.5745 163.85 42.096 159.44 42.096Z" fill="#51EEDA"/>
<path d="M138 90.3247V93.6567C138 95.259 139.934 96.065 141.072 94.9372L154 82.1258H147.016C146.54 82.1258 146.084 82.3135 145.746 82.648L138 90.3247ZM162.016 42H154.289C158.699 42 162.273 45.5745 162.273 49.984V74.1418C162.273 78.551 158.699 82.1258 154.289 82.1258H162.016C166.425 82.1258 170 78.5513 170 74.1418V49.984C170 45.5745 166.425 42 162.016 42Z" fill="#51EEDA"/>
<path d="M142.004 55.9968H110.004C109.491 55.9968 109 55.7933 108.638 55.4311C108.276 55.0688 108.072 54.5776 108.072 54.0653C108.072 53.553 108.276 53.0617 108.638 52.6995C109 52.3373 109.491 52.1338 110.004 52.1338H142.004C142.516 52.1338 143.007 52.3373 143.37 52.6995C143.732 53.0617 143.935 53.553 143.935 54.0653C143.935 54.5776 143.732 55.0688 143.37 55.4311C143.007 55.7933 142.516 55.9968 142.004 55.9968ZM134.004 71.866H110.004C109.491 71.866 109 71.6625 108.638 71.3003C108.276 70.9381 108.072 70.4468 108.072 69.9345C108.072 69.4223 108.276 68.931 108.638 68.5688C109 68.2065 109.491 68.003 110.004 68.003H134.004C134.516 68.003 135.007 68.2065 135.37 68.5688C135.732 68.931 135.935 69.4223 135.935 69.9345C135.935 70.4468 135.732 70.9381 135.37 71.3003C135.007 71.6625 134.516 71.866 134.004 71.866ZM158.004 63.9973H110.004C109.75 63.9973 109.499 63.9473 109.265 63.8503C109.03 63.7532 108.817 63.6109 108.638 63.4316C108.459 63.2522 108.316 63.0393 108.219 62.8049C108.122 62.5706 108.072 62.3194 108.072 62.0658C108.072 61.8121 108.122 61.561 108.219 61.3266C108.316 61.0923 108.459 60.8794 108.638 60.7C108.817 60.5207 109.03 60.3784 109.265 60.2813C109.499 60.1842 109.75 60.1343 110.004 60.1343H158.004C158.257 60.1343 158.509 60.1842 158.743 60.2813C158.977 60.3784 159.19 60.5207 159.37 60.7C159.549 60.8794 159.691 61.0923 159.788 61.3266C159.885 61.561 159.935 61.8121 159.935 62.0658C159.935 62.3194 159.885 62.5706 159.788 62.8049C159.691 63.0393 159.549 63.2522 159.37 63.4316C159.19 63.6109 158.977 63.7532 158.743 63.8503C158.509 63.9473 158.257 63.9973 158.004 63.9973Z" fill="white"/>
<path d="M97.9999 147.932H81.9999C81.4876 147.932 80.9963 147.728 80.6341 147.366C80.2719 147.004 80.0684 146.513 80.0684 146C80.0684 145.488 80.2719 144.997 80.6341 144.635C80.9963 144.272 81.4876 144.069 81.9999 144.069H97.9999C98.5121 144.069 99.0034 144.272 99.3656 144.635C99.7279 144.997 99.9314 145.488 99.9314 146C99.9314 146.513 99.7279 147.004 99.3656 147.366C99.0034 147.728 98.5121 147.932 97.9999 147.932Z" fill="#1E2121"/>
</g>
<defs>
<clipPath id="clip0_481_634">
<rect width="128" height="128" fill="white" transform="translate(42 42)"/>
</clipPath>
</defs>
</svg>
