<svg width="212" height="212" viewBox="0 0 212 212" fill="none" xmlns="http://www.w3.org/2000/svg">
<path d="M212 106C212 164.542 164.542 212 106 212C47.4578 212 0 164.542 0 106C0 47.4578 47.4578 0 106 0C164.542 0 212 47.4578 212 106Z" fill="#1E2121"/>
<path d="M122.138 149.943C121.935 149.02 121.467 148.2 120.808 147.615C120.149 147.029 119.337 146.711 118.5 146.711H93.5003C92.664 146.711 91.8517 147.029 91.1925 147.615C90.5334 148.2 90.0651 149.02 89.8623 149.943L84.8623 172.698H127.138L122.138 149.943Z" fill="white"/>
<path d="M118.5 146.711H106V172.698H127.138L122.138 149.943C121.935 149.02 121.467 148.2 120.808 147.615C120.149 147.029 119.336 146.711 118.5 146.711Z" fill="white"/>
<path d="M158.75 50H53.25C47.0468 50 42 55.7421 42 62.8V142.444C42 149.502 47.0468 155.244 53.25 155.244H158.75C164.953 155.244 170 149.502 170 142.444V62.8C170 55.7421 164.953 50 158.75 50Z" fill="white"/>
<path d="M158.75 50H106V155.244H158.75C164.953 155.244 170 149.502 170 142.444V62.8C170 55.7421 164.953 50 158.75 50Z" fill="white"/>
<path d="M158.75 58.5332H53.25C51.1823 58.5332 49.5 60.4472 49.5 62.7999V145.004H162.5V62.7999C162.5 60.4472 160.818 58.5332 158.75 58.5332Z" fill="#141616"/>
<path d="M158.75 58.5332H106V133.911H162.5V62.7999C162.5 60.4472 160.818 58.5332 158.75 58.5332Z" fill="#141616"/>
<path d="M131 178H81C78.929 178 77.25 176.09 77.25 173.733C77.25 171.377 78.929 169.467 81 169.467H131C133.071 169.467 134.75 171.377 134.75 173.733C134.75 176.09 133.071 178 131 178Z" fill="white"/>
<path d="M131 169.467H106V178H131C133.071 178 134.75 176.09 134.75 173.733C134.75 171.377 133.071 169.467 131 169.467Z" fill="white"/>
<path d="M106 126.8C103.929 126.8 102.25 124.889 102.25 122.533V77.022C102.25 74.6657 103.929 72.7554 106 72.7554C108.071 72.7554 109.75 74.6657 109.75 77.022V122.533C109.75 124.889 108.071 126.8 106 126.8Z" fill="white"/>
<path d="M109.75 122.533V77.022C109.75 74.6657 108.071 72.7554 106 72.7554V126.8C108.071 126.8 109.75 124.889 109.75 122.533Z" fill="white"/>
<path d="M76 126.8C73.929 126.8 72.25 124.89 72.25 122.534V85.5557C72.25 83.1994 73.929 81.2891 76 81.2891C78.071 81.2891 79.75 83.1994 79.75 85.5557V122.534C79.75 124.89 78.071 126.8 76 126.8Z" fill="white"/>
<path d="M136 121.111C133.929 121.111 132.25 119.201 132.25 116.844V82.711C132.25 80.3547 133.929 78.4443 136 78.4443C138.071 78.4443 139.75 80.3547 139.75 82.711V116.844C139.75 119.201 138.071 121.111 136 121.111Z" fill="white"/>
<path d="M81 118.267H71C68.929 118.267 67.25 116.357 67.25 114V94.0891C67.25 91.7327 68.929 89.8224 71 89.8224H81C83.071 89.8224 84.75 91.7327 84.75 94.0891V114C84.75 116.357 83.071 118.267 81 118.267ZM111 118.267H101C98.929 118.267 97.25 116.357 97.25 114V85.5557C97.25 83.1994 98.929 81.2891 101 81.2891H111C113.071 81.2891 114.75 83.1994 114.75 85.5557V114C114.75 116.357 113.071 118.267 111 118.267Z" fill="#4AFEBF"/>
<path d="M106 118.267H111C113.071 118.267 114.75 116.357 114.75 114V85.5557C114.75 83.1994 113.071 81.2891 111 81.2891H106V118.267Z" fill="#3FD09D"/>
<path d="M141 112.578H131C128.929 112.578 127.25 110.667 127.25 108.311V91.2442C127.25 88.8879 128.929 86.9775 131 86.9775H141C143.071 86.9775 144.75 88.8879 144.75 91.2442V108.311C144.75 110.667 143.071 112.578 141 112.578Z" fill="#D84747"/>
</svg>
