<svg width="212" height="212" viewBox="0 0 212 212" fill="none" xmlns="http://www.w3.org/2000/svg">
<circle cx="106" cy="106" r="106" fill="#1E2121"/>
<g clip-path="url(#clip0_481_615)">
<path d="M106 84.3266C105.746 84.3266 105.495 84.2767 105.261 84.1797C105.027 84.0828 104.814 83.9406 104.635 83.7614C104.456 83.5822 104.314 83.3695 104.217 83.1353C104.12 82.9012 104.07 82.6502 104.07 82.3968V59.8853C104.07 58.8196 104.934 57.9556 106 57.9556C107.066 57.9556 107.93 58.8196 107.93 59.8853V82.3971C107.93 82.6505 107.88 82.9014 107.783 83.1355C107.686 83.3696 107.544 83.5823 107.364 83.7615C107.185 83.9407 106.972 84.0828 106.738 84.1798C106.504 84.2767 106.253 84.3266 106 84.3266ZM106 152.614C105.746 152.614 105.495 152.564 105.261 152.467C105.027 152.37 104.814 152.228 104.635 152.049C104.456 151.87 104.314 151.657 104.217 151.423C104.12 151.189 104.07 150.938 104.07 150.684V129.044C104.07 127.978 104.934 127.114 106 127.114C107.066 127.114 107.93 127.978 107.93 129.044V150.684C107.93 150.938 107.88 151.189 107.783 151.423C107.686 151.657 107.544 151.87 107.364 152.049C107.185 152.228 106.972 152.37 106.738 152.467C106.504 152.564 106.253 152.614 106 152.614ZM89.3193 91.2491C89.0658 91.2494 88.8147 91.1997 88.5805 91.1027C88.3463 91.0057 88.1336 90.8633 87.9546 90.6838L72.9061 75.6353C72.5531 75.2716 72.3574 74.7836 72.3612 74.2767C72.365 73.7699 72.5681 73.2849 72.9265 72.9265C73.2849 72.5681 73.7699 72.3651 74.2768 72.3613C74.7836 72.3576 75.2716 72.5533 75.6353 72.9063L90.6838 87.9548C90.9536 88.2247 91.1372 88.5686 91.2116 88.9429C91.286 89.3171 91.2478 89.7051 91.1017 90.0576C90.9557 90.4102 90.7084 90.7115 90.3912 90.9236C90.0739 91.1357 89.7009 91.2489 89.3193 91.2491ZM137.961 139.891C137.708 139.891 137.457 139.841 137.222 139.744C136.988 139.647 136.775 139.505 136.596 139.325L120.6 123.329C120.247 122.965 120.051 122.477 120.055 121.97C120.059 121.464 120.262 120.979 120.621 120.62C120.979 120.262 121.464 120.059 121.971 120.055C122.478 120.051 122.966 120.247 123.329 120.6L139.326 136.596C139.596 136.866 139.779 137.21 139.854 137.584C139.928 137.959 139.89 138.347 139.744 138.699C139.598 139.052 139.35 139.353 139.033 139.565C138.716 139.777 138.343 139.89 137.961 139.891ZM82.3458 107.93H59.8413C59.3349 107.921 58.852 107.715 58.4967 107.354C58.1415 106.992 57.9424 106.506 57.9424 106C57.9424 105.493 58.1415 105.007 58.4967 104.646C58.852 104.285 59.3349 104.078 59.8413 104.07H82.3458C83.4118 104.07 84.2756 104.934 84.2756 106C84.2756 107.066 83.4118 107.93 82.3458 107.93ZM151.017 107.93H127.183C126.677 107.921 126.194 107.715 125.838 107.354C125.483 106.992 125.284 106.506 125.284 106C125.284 105.493 125.483 105.007 125.838 104.646C126.194 104.285 126.677 104.078 127.183 104.07H151.017C151.523 104.078 152.006 104.285 152.362 104.646C152.717 105.007 152.916 105.493 152.916 106C152.916 106.506 152.717 106.992 152.362 107.354C152.006 107.715 151.523 107.921 151.017 107.93ZM74.6561 139.273C74.2744 139.273 73.9014 139.16 73.5841 138.948C73.2668 138.736 73.0195 138.435 72.8735 138.082C72.7274 137.729 72.6891 137.341 72.7635 136.967C72.8379 136.593 73.0216 136.249 73.2913 135.979L89.4596 119.811C89.8233 119.458 90.3113 119.262 90.8181 119.266C91.325 119.27 91.81 119.473 92.1684 119.831C92.5268 120.189 92.7298 120.674 92.7337 121.181C92.7375 121.688 92.5418 122.176 92.1888 122.54L76.0206 138.708C75.8416 138.888 75.6289 139.03 75.3947 139.127C75.1606 139.224 74.9095 139.274 74.6561 139.273ZM122.867 91.0631C122.485 91.063 122.112 90.9498 121.795 90.7377C121.478 90.5257 121.23 90.2243 121.084 89.8718C120.938 89.5192 120.9 89.1312 120.974 88.7569C121.049 88.3826 121.232 88.0388 121.502 87.7688L136.75 72.5211C137.114 72.1681 137.602 71.9723 138.108 71.9761C138.615 71.9799 139.1 72.1829 139.459 72.5413C139.817 72.8996 140.02 73.3846 140.024 73.8915C140.028 74.3983 139.832 74.8863 139.479 75.2501L124.231 90.4978C124.052 90.6773 123.84 90.8196 123.605 90.9166C123.371 91.0136 123.12 91.0634 122.867 91.0631Z" fill="white"/>
<path d="M106 64.8255C112.303 64.8255 117.412 59.7158 117.412 53.4128C117.412 47.1097 112.303 42 106 42C99.6966 42 94.5869 47.1097 94.5869 53.4128C94.5869 59.7158 99.6966 64.8255 106 64.8255Z" fill="#51EEDA"/>
<path d="M106 170C112.303 170 117.412 164.89 117.412 158.587C117.412 152.284 112.303 147.174 106 147.174C99.6966 147.174 94.5869 152.284 94.5869 158.587C94.5869 164.89 99.6966 170 106 170Z" fill="#51EEDA"/>
<path d="M53.4128 117.412C59.7158 117.412 64.8255 112.303 64.8255 106C64.8255 99.6966 59.7158 94.5869 53.4128 94.5869C47.1097 94.5869 42 99.6966 42 106C42 112.303 47.1097 117.412 53.4128 117.412Z" fill="#51EEDA"/>
<path d="M158.587 117.412C164.89 117.412 169.999 112.303 169.999 106C169.999 99.6966 164.89 94.5869 158.587 94.5869C152.283 94.5869 147.174 99.6966 147.174 106C147.174 112.303 152.283 117.412 158.587 117.412Z" fill="#51EEDA"/>
<path d="M68.8151 80.2278C75.1182 80.2278 80.2278 75.1182 80.2278 68.8151C80.2278 62.512 75.1182 57.4023 68.8151 57.4023C62.512 57.4023 57.4023 62.512 57.4023 68.8151C57.4023 75.1182 62.512 80.2278 68.8151 80.2278Z" fill="#4AFEBF"/>
<path d="M143.184 154.597C149.487 154.597 154.597 149.488 154.597 143.185C154.597 136.882 149.487 131.772 143.184 131.772C136.881 131.772 131.771 136.882 131.771 143.185C131.771 149.488 136.881 154.597 143.184 154.597Z" fill="#4AFEBF"/>
<path d="M68.8151 154.597C75.1182 154.597 80.2278 149.488 80.2278 143.185C80.2278 136.882 75.1182 131.772 68.8151 131.772C62.512 131.772 57.4023 136.882 57.4023 143.185C57.4023 149.488 62.512 154.597 68.8151 154.597Z" fill="#4AFEBF"/>
<path d="M143.184 80.2278C149.487 80.2278 154.597 75.1182 154.597 68.8151C154.597 62.512 149.487 57.4023 143.184 57.4023C136.881 57.4023 131.771 62.512 131.771 68.8151C131.771 75.1182 136.881 80.2278 143.184 80.2278Z" fill="#4AFEBF"/>
<path d="M117.414 53.4135C117.414 59.7148 112.304 64.8248 106 64.8248C102.316 64.8248 99.0375 63.0778 96.9508 60.3683C98.3608 60.9935 99.92 61.3383 101.559 61.3383C107.863 61.3383 112.973 56.2283 112.973 49.9245C112.976 47.4073 112.144 44.9602 110.606 42.9673C114.615 44.7373 117.414 48.7485 117.414 53.4135ZM117.414 158.586C117.414 164.89 112.304 170 106 170C102.316 170 99.0375 168.253 96.9508 165.544C98.4024 166.185 99.9721 166.515 101.559 166.514C107.863 166.514 112.973 161.404 112.973 155.1C112.973 152.483 112.093 150.07 110.611 148.145C114.617 149.915 117.414 153.924 117.414 158.586ZM64.8248 106C64.8248 112.304 59.7148 117.414 53.4135 117.414C49.7265 117.414 46.4485 115.667 44.3643 112.955C45.7743 113.58 47.3335 113.925 48.9725 113.925C55.2763 113.925 60.3863 108.815 60.3863 102.513C60.3863 99.894 59.5063 97.4805 58.0218 95.556C62.028 97.3263 64.8248 101.338 64.8248 106ZM170 106C170 112.304 164.89 117.414 158.587 117.414C154.902 117.414 151.624 115.667 149.54 112.955C150.95 113.58 152.509 113.925 154.148 113.925C160.45 113.925 165.56 108.815 165.56 102.513C165.563 99.9951 164.731 97.5469 163.192 95.5533C167.201 97.3238 170 101.335 170 106Z" fill="#28BCA9"/>
<path d="M76.8841 76.8841C72.4276 81.3431 65.2028 81.3431 60.7463 76.8841C60.3972 76.5347 60.0706 76.1634 59.7686 75.7726C63.9523 77.6173 69.0183 76.8248 72.4456 73.3978C76.5468 69.2966 76.8736 62.8461 73.4233 58.3716C74.7141 58.9418 75.8877 59.747 76.8841 60.7463C81.3431 65.2028 81.3431 72.4278 76.8841 76.8841ZM151.253 151.253C146.797 155.712 139.572 155.712 135.116 151.253C134.766 150.904 134.44 150.533 134.138 150.142C138.322 151.987 143.388 151.194 146.815 147.767C150.916 143.666 151.243 137.215 147.793 132.741C149.083 133.311 150.257 134.116 151.253 135.116C155.712 139.572 155.712 146.797 151.253 151.253ZM76.8841 151.253C72.4276 155.712 65.2028 155.712 60.7463 151.253C60.3972 150.904 60.0706 150.533 59.7686 150.142C63.9523 151.987 69.0183 151.194 72.4456 147.767C76.5468 143.666 76.8736 137.215 73.4233 132.741C74.7141 133.311 75.8877 134.116 76.8841 135.116C81.3431 139.572 81.3431 146.797 76.8841 151.253ZM151.253 76.8841C146.797 81.3431 139.572 81.3431 135.116 76.8841C134.766 76.5347 134.44 76.1634 134.138 75.7726C138.322 77.6173 143.388 76.8248 146.815 73.3978C150.916 69.2966 151.243 62.8461 147.793 58.3716C149.083 58.9418 150.257 59.747 151.253 60.7463C155.712 65.2028 155.712 72.4278 151.253 76.8841Z" fill="#00D48A"/>
<path d="M106 131.928C120.32 131.928 131.928 120.32 131.928 106C131.928 91.6799 120.32 80.0713 106 80.0713C91.6799 80.0713 80.0713 91.6799 80.0713 106C80.0713 120.32 91.6799 131.928 106 131.928Z" fill="#FDFEFF"/>
<path d="M131.928 106C131.928 120.321 120.321 131.927 106 131.927C101.168 131.927 96.645 130.605 92.7725 128.302C95.4302 129.226 98.2837 129.725 101.255 129.725C115.574 129.725 127.183 118.116 127.183 103.794C127.183 94.3078 122.086 86.01 114.48 81.4893C124.636 85.004 131.928 94.6475 131.928 106Z" fill="#E0E0E0"/>
<path d="M114.88 103.894H97.1202C96.0542 103.894 95.1904 103.03 95.1904 101.964C95.1904 100.899 96.0542 100.035 97.1202 100.035H114.88C115.946 100.035 116.81 100.899 116.81 101.964C116.81 103.03 115.946 103.894 114.88 103.894ZM110.44 111.965H101.56C100.494 111.965 99.6307 111.101 99.6307 110.035C99.6307 108.969 100.494 108.105 101.56 108.105H110.44C110.947 108.114 111.43 108.32 111.785 108.681C112.14 109.042 112.339 109.529 112.339 110.035C112.339 110.542 112.14 111.028 111.785 111.389C111.43 111.75 110.947 111.957 110.44 111.965Z" fill="#1E2121"/>
</g>
<defs>
<clipPath id="clip0_481_615">
<rect width="128" height="128" fill="white" transform="translate(42 42)"/>
</clipPath>
</defs>
</svg>
