<svg width="116" height="128" viewBox="0 0 116 128" fill="none" xmlns="http://www.w3.org/2000/svg">
<rect y="9.28271" width="42.1243" height="50.5491" rx="3" fill="white"/>
<circle cx="13.3597" cy="22.2118" r="7.43295" fill="#51EEDA"/>
<ellipse cx="22.4601" cy="28.5104" rx="9.0988" ry="9.09879" fill="url(#paint0_linear_481_508)"/>
<circle cx="31.5618" cy="34.4822" r="4.63408" fill="#4AFEBF"/>
<path fill-rule="evenodd" clip-rule="evenodd" d="M6.43262 44.3545C6.43262 44.087 6.64947 43.8701 6.91696 43.8701H35.2079C35.4754 43.8701 35.6923 44.087 35.6923 44.3545C35.6923 44.622 35.4754 44.8388 35.2079 44.8388H6.91696C6.64947 44.8388 6.43262 44.622 6.43262 44.3545Z" fill="#1E2121"/>
<path fill-rule="evenodd" clip-rule="evenodd" d="M6.43262 48.4287C6.43262 48.1612 6.64947 47.9443 6.91696 47.9443H35.2079C35.4754 47.9443 35.6923 48.1612 35.6923 48.4287C35.6923 48.6962 35.4754 48.913 35.2079 48.913H6.91696C6.64947 48.913 6.43262 48.6962 6.43262 48.4287Z" fill="#1E2121"/>
<path fill-rule="evenodd" clip-rule="evenodd" d="M6.43262 52.873C6.43262 52.6055 6.64947 52.3887 6.91696 52.3887H35.2079C35.4754 52.3887 35.6923 52.6055 35.6923 52.873C35.6923 53.1405 35.4754 53.3574 35.2079 53.3574H6.91696C6.64947 53.3574 6.43262 53.1405 6.43262 52.873Z" fill="#1E2121"/>
<rect x="73.7168" y="67.9556" width="42.1243" height="50.5491" rx="3" fill="white"/>
<circle cx="87.0765" cy="80.8851" r="7.43295" fill="#51EEDA"/>
<ellipse cx="96.1769" cy="87.1823" rx="9.0988" ry="9.09879" fill="url(#paint1_linear_481_508)"/>
<circle cx="105.279" cy="93.1541" r="4.63408" fill="#4AFEBF"/>
<path fill-rule="evenodd" clip-rule="evenodd" d="M80.1494 103.027C80.1494 102.76 80.3663 102.543 80.6338 102.543H108.925C109.192 102.543 109.409 102.76 109.409 103.027C109.409 103.295 109.192 103.512 108.925 103.512H80.6338C80.3663 103.512 80.1494 103.295 80.1494 103.027Z" fill="#1E2121"/>
<path fill-rule="evenodd" clip-rule="evenodd" d="M80.1494 107.102C80.1494 106.835 80.3663 106.618 80.6338 106.618H108.925C109.192 106.618 109.409 106.835 109.409 107.102C109.409 107.37 109.192 107.586 108.925 107.586H80.6338C80.3663 107.586 80.1494 107.37 80.1494 107.102Z" fill="#1E2121"/>
<path fill-rule="evenodd" clip-rule="evenodd" d="M80.1494 111.546C80.1494 111.278 80.3663 111.062 80.6338 111.062H108.925C109.192 111.062 109.409 111.278 109.409 111.546C109.409 111.813 109.192 112.03 108.925 112.03H80.6338C80.3663 112.03 80.1494 111.813 80.1494 111.546Z" fill="#1E2121"/>
<path d="M57.2562 111.767C57.842 111.181 57.842 110.231 57.2562 109.646C56.6704 109.06 55.7206 109.06 55.1349 109.646L57.2562 111.767ZM21.6081 76.1189L6.76234 85.0409L21.9119 93.4368L21.6081 76.1189ZM55.1349 109.646C46.1696 118.611 31.6341 118.611 22.6688 109.646L20.5475 111.767C30.6843 121.904 47.1194 121.904 57.2562 111.767L55.1349 109.646ZM22.6688 109.646C16.8684 103.845 14.819 95.7129 16.5271 88.2605L13.6029 87.5903C11.6738 96.007 13.9866 105.206 20.5475 111.767L22.6688 109.646Z" fill="#51EEDA"/>
<path d="M58.5846 16.2331C57.9989 16.8188 57.9989 17.7686 58.5846 18.3544C59.1704 18.9402 60.1202 18.9402 60.706 18.3544L58.5846 16.2331ZM94.2327 51.8811L109.078 42.9591L93.9289 34.5632L94.2327 51.8811ZM60.706 18.3544C69.6712 9.38912 84.2068 9.38912 93.172 18.3544L95.2933 16.2331C85.1565 6.09623 68.7215 6.09623 58.5846 16.2331L60.706 18.3544ZM93.172 18.3544C98.9724 24.1548 101.022 32.2871 99.3137 39.7395L102.238 40.4097C104.167 31.993 101.854 22.794 95.2933 16.2331L93.172 18.3544Z" fill="#51EEDA"/>
<defs>
<linearGradient id="paint0_linear_481_508" x1="22.4601" y1="19.4116" x2="22.4601" y2="37.6092" gradientUnits="userSpaceOnUse">
<stop stop-color="#4AFEBF"/>
<stop offset="1" stop-color="#51EEDA"/>
</linearGradient>
<linearGradient id="paint1_linear_481_508" x1="96.1769" y1="78.0835" x2="96.1769" y2="96.2811" gradientUnits="userSpaceOnUse">
<stop stop-color="#4AFEBF"/>
<stop offset="1" stop-color="#51EEDA"/>
</linearGradient>
</defs>
</svg>
