<svg width="128" height="128" viewBox="0 0 128 128" fill="none" xmlns="http://www.w3.org/2000/svg">
<path d="M125.424 11.4961H2.5755C1.153 11.4961 0 10.1234 0 8.43051V3.06559C0 1.3724 1.153 0 2.5755 0H125.424C126.847 0 128 1.3724 128 3.06559V8.43051C128 10.1234 126.847 11.4961 125.424 11.4961Z" fill="white"/>
<path d="M38.6065 23.4806V55.5306C38.6065 57.2229 37.4528 58.5962 36.031 58.5962H9.1048C7.6833 58.5962 6.5293 57.2229 6.5293 55.5306V23.4806C6.5293 21.7883 7.68305 20.415 9.1048 20.415H36.031C37.4528 20.415 38.6065 21.7883 38.6065 23.4806Z" fill="#51EEDA"/>
<path d="M38.6061 23.4806V55.5306C38.6061 57.2229 37.4524 58.5962 36.0306 58.5962H15.7129C27.9514 47.9006 30.1766 29.2651 30.5114 20.415H36.0306C37.4524 20.415 38.6061 21.7883 38.6061 23.4806Z" fill="#28BCA9"/>
<path d="M80.0376 23.4806V55.5306C80.0376 57.2229 78.8864 58.5962 77.4621 58.5962H50.5384C49.1141 58.5962 47.9629 57.2229 47.9629 55.5306V23.4806C47.9629 21.7883 49.1141 20.415 50.5384 20.415H77.4621C78.8866 20.415 80.0376 21.7883 80.0376 23.4806Z" fill="#4AFEBF"/>
<path d="M80.0377 23.4806V55.5306C80.0377 57.2229 78.8865 58.5962 77.4622 58.5962H57.7188C69.96 47.9006 72.185 29.2651 72.52 20.415H77.4622C78.8867 20.415 80.0377 21.7883 80.0377 23.4806Z" fill="#00D48A"/>
<path d="M121.472 23.4806V55.5306C121.472 57.2229 120.318 58.5962 118.896 58.5962H91.97C90.5485 58.5962 89.3945 57.2229 89.3945 55.5306V23.4806C89.3945 21.7883 90.5483 20.415 91.97 20.415H118.896C120.318 20.415 121.472 21.7883 121.472 23.4806Z" fill="#51EEDA"/>
<path d="M121.471 23.4806V55.5306C121.471 57.2229 120.317 58.5962 118.896 58.5962H99.6982C111.939 47.9006 114.164 29.2651 114.499 20.415H118.896C120.317 20.415 121.471 21.7883 121.471 23.4806Z" fill="#28BCA9"/>
<path d="M125.424 80.8994H2.5755C1.153 80.8994 0 79.5267 0 77.8338V72.4689C0 70.7757 1.153 69.4033 2.5755 69.4033H125.424C126.847 69.4033 128 70.7757 128 72.4689V77.8338C128 79.5267 126.847 80.8994 125.424 80.8994Z" fill="white"/>
<path d="M38.6065 92.8844V124.934C38.6065 126.627 37.4528 128 36.031 128H9.1048C7.6833 128 6.5293 126.627 6.5293 124.934V92.8844C6.5293 91.1921 7.68305 89.8188 9.1048 89.8188H36.031C37.4528 89.8188 38.6065 91.1921 38.6065 92.8844Z" fill="#51EEDA"/>
<path d="M38.6061 92.8844V124.934C38.6061 126.627 37.4524 128 36.0306 128H15.7129C27.9514 117.304 30.1766 98.6689 30.5114 89.8188H36.0306C37.4524 89.8188 38.6061 91.1921 38.6061 92.8844Z" fill="#28BCA9"/>
<path d="M80.0376 92.8844V124.934C80.0376 126.627 78.8864 128 77.4621 128H50.5384C49.1141 128 47.9629 126.627 47.9629 124.934V92.8844C47.9629 91.1921 49.1141 89.8188 50.5384 89.8188H77.4621C78.8866 89.8188 80.0376 91.1921 80.0376 92.8844Z" fill="#4AFEBF"/>
<path d="M80.0377 92.8844V124.934C80.0377 126.627 78.8865 128 77.4622 128H57.7188C69.96 117.304 72.185 98.6689 72.52 89.8188H77.4622C78.8867 89.8188 80.0377 91.1921 80.0377 92.8844Z" fill="#00D48A"/>
<path d="M121.472 92.8844V124.934C121.472 126.627 120.318 128 118.896 128H91.97C90.5485 128 89.3945 126.627 89.3945 124.934V92.8844C89.3945 91.1921 90.5483 89.8188 91.97 89.8188H118.896C120.318 89.8188 121.472 91.1921 121.472 92.8844Z" fill="#51EEDA"/>
<path d="M121.471 92.8844V124.934C121.471 126.627 120.317 128 118.896 128H99.6982C111.939 117.304 114.164 98.6689 114.499 89.8188H118.896C120.317 89.8188 121.471 91.1921 121.471 92.8844Z" fill="#28BCA9"/>
</svg>
