<svg width="156" height="44" viewBox="0 0 156 44" fill="none" xmlns="http://www.w3.org/2000/svg">
<path d="M12.9096 17.5143C12.448 17.1496 12.3695 16.4798 12.7342 16.0183L14.5399 13.7328C14.9046 13.2713 15.5744 13.1927 16.036 13.5574C16.4976 13.9221 16.5761 14.5919 16.2114 15.0535L14.4057 17.3389C14.041 17.8005 13.3712 17.879 12.9096 17.5143Z" fill="#4AFEBF"/>
<path d="M25.0279 21.5019C25.0279 23.439 23.4577 25.0093 21.5206 25.0093C19.5836 25.0093 18.0133 23.439 18.0133 21.5019C18.0133 19.5649 19.5836 17.9946 21.5206 17.9946C23.4577 17.9946 25.0279 19.5649 25.0279 21.5019Z" fill="#51EEDA"/>
<path fill-rule="evenodd" clip-rule="evenodd" d="M23.8457 35.8474C22.6273 37.2813 20.414 37.2813 19.1956 35.8474L9.10775 23.9755C8.13972 22.8363 8.13972 21.1635 9.10775 20.0242L10.117 18.8366C10.6625 18.1945 11.6253 18.1163 12.2673 18.6619C12.9093 19.2074 12.9876 20.1702 12.442 20.8122L11.4328 21.9999L21.5206 33.8718L24.444 30.4314C24.9896 29.7893 25.9523 29.7111 26.5944 30.2567C27.2364 30.8023 27.3146 31.765 26.7691 32.407L23.8457 35.8474ZM30.1523 26.0695C29.5103 25.524 29.4321 24.5612 29.9776 23.9192L31.6085 21.9999L21.5206 10.128L19.396 12.6283C18.8505 13.2704 17.8877 13.3486 17.2457 12.803C16.6036 12.2575 16.5254 11.2947 17.071 10.6527L19.1956 8.15234C20.414 6.71845 22.6273 6.71845 23.8457 8.15234L33.9335 20.0242C34.9016 21.1635 34.9016 22.8363 33.9335 23.9755L32.3027 25.8948C31.7571 26.5369 30.7944 26.6151 30.1523 26.0695Z" fill="url(#paint0_linear_561_929)"/>
<path fill-rule="evenodd" clip-rule="evenodd" d="M21.5207 3.53007C11.3202 3.53007 3.05107 11.7992 3.05107 21.9997C3.05107 32.2001 11.3202 40.4692 21.5207 40.4692C22.3632 40.4692 23.0462 41.1522 23.0462 41.9948C23.0462 42.8373 22.3632 43.5203 21.5207 43.5203C9.63512 43.5203 0 33.8852 0 21.9997C0 10.1141 9.63512 0.479004 21.5207 0.479004C22.3632 0.479004 23.0462 1.16201 23.0462 2.00454C23.0462 2.84707 22.3632 3.53007 21.5207 3.53007Z" fill="url(#paint1_linear_561_929)"/>
<path fill-rule="evenodd" clip-rule="evenodd" d="M34.5104 37.2772C33.9174 36.6788 33.9218 35.7129 34.5203 35.1198C37.8998 31.7711 39.9903 27.131 39.9903 21.9998C39.9903 16.8686 37.8998 12.2285 34.5203 8.87978C33.9218 8.28676 33.9174 7.32085 34.5104 6.72237C35.1035 6.12389 36.0694 6.11947 36.6678 6.7125C40.6018 10.6106 43.0413 16.0218 43.0413 21.9998C43.0413 27.9779 40.6018 33.389 36.6678 37.2871C36.0694 37.8801 35.1035 37.8757 34.5104 37.2772Z" fill="url(#paint2_linear_561_929)"/>
<path d="M30.5976 40.4759C30.5976 41.3816 29.8634 42.1158 28.9577 42.1158C28.052 42.1158 27.3177 41.3816 27.3177 40.4759C27.3177 39.5702 28.052 38.8359 28.9577 38.8359C29.8634 38.8359 30.5976 39.5702 30.5976 40.4759Z" fill="#4AFEBF"/>
<path d="M68.7698 28.7286V26.3214H60.9832V22.5537H68.2884V20.1465H60.9832V16.4835H68.6652V14.0763H58.3039V28.7286H68.7698Z" fill="white"/>
<path d="M74.4335 28.7286V18.6185H74.4544L81.8853 28.7286H84.4808V14.0763H81.8015V24.1655H81.7806L74.3289 14.0763H71.7542V28.7286H74.4335Z" fill="white"/>
<path d="M95.08 28.7286L101.129 14.0763H98.3035L93.7613 25.1911H93.7194L89.1772 14.0763H86.3514L92.4007 28.7286H95.08Z" fill="white"/>
<path d="M113.454 28.7286V26.3214H105.668V22.5537H112.973V20.1465H105.668V16.4835H113.35V14.0763H102.988V28.7286H113.454Z" fill="white"/>
<path d="M125.963 28.7286V26.3633H119.118V14.0763H116.439V28.7286H125.963Z" fill="white"/>
<path d="M135.073 29.0007C139.301 29.0007 142.588 25.6726 142.588 21.4025C142.588 17.1324 139.301 13.8042 135.073 13.8042C130.845 13.8042 127.559 17.1324 127.559 21.4025C127.559 25.6726 130.845 29.0007 135.073 29.0007ZM135.073 26.5517C132.143 26.5517 130.28 24.1445 130.28 21.4025C130.28 18.6604 132.143 16.2532 135.073 16.2532C138.025 16.2532 139.888 18.6604 139.888 21.4025C139.888 24.1445 138.025 26.5517 135.073 26.5517Z" fill="white"/>
<path d="M147.899 28.7286V23.6212H150.809C153.258 23.6212 156 22.2188 156 18.8278C156 15.4369 153.258 14.0763 150.809 14.0763H145.22V28.7286H147.899ZM147.899 16.4835H150.558C152.609 16.4835 153.3 17.551 153.3 18.8278C153.3 20.1256 152.609 21.2141 150.558 21.2141H147.899V16.4835Z" fill="white"/>
<defs>
<linearGradient id="paint0_linear_561_929" x1="21.5206" y1="36.9229" x2="21.5206" y2="7.07692" gradientUnits="userSpaceOnUse">
<stop stop-color="#4AFEBF"/>
<stop offset="1" stop-color="#51EEDA"/>
</linearGradient>
<linearGradient id="paint1_linear_561_929" x1="11.5231" y1="0.479004" x2="11.5231" y2="43.5203" gradientUnits="userSpaceOnUse">
<stop stop-color="#4AFEBF"/>
<stop offset="1" stop-color="#51EEDA"/>
</linearGradient>
<linearGradient id="paint2_linear_561_929" x1="38.5549" y1="37.729" x2="38.5549" y2="6.27061" gradientUnits="userSpaceOnUse">
<stop stop-color="#4AFEBF"/>
<stop offset="1" stop-color="#51EEDA"/>
</linearGradient>
</defs>
</svg>
