<svg width="1200" height="350" viewBox="0 0 1200 350" fill="none" xmlns="http://www.w3.org/2000/svg">
<g clip-path="url(#clip0_487_1060)">
<path d="M1069.57 4.86133H836.898C834.173 4.86133 831.963 7.03772 831.963 9.72244V50.0002C831.963 52.6849 834.173 54.8613 836.898 54.8613H1069.57C1072.29 54.8613 1074.5 52.6849 1074.5 50.0002V9.72244C1074.5 7.03772 1072.29 4.86133 1069.57 4.86133Z" stroke="#51EEDA" stroke-width="2"/>
<path d="M858.063 34.722H849.603V23.0554H857.979V24.972H851.767V27.8887H857.668V29.8054H851.767V32.8054H858.063V34.722ZM862.505 34.722H860.39V26.022H861.758L862.167 27.4387C862.54 26.7887 863.534 25.8387 864.959 25.8387C866.82 25.8387 868.209 26.7887 868.209 29.622V34.722H866.108V29.9054C866.108 28.4054 865.396 27.772 864.345 27.772C863.245 27.772 862.505 28.6387 862.505 30.0054V34.722ZM872.862 34.722H870.747V22.172H872.862V27.0554C873.236 26.572 874.047 25.8387 875.316 25.8387C877.163 25.8387 878.566 26.7887 878.566 29.622V34.722H876.451V29.9054C876.451 28.4054 875.76 27.772 874.695 27.772C873.61 27.772 872.862 28.6387 872.862 30.0054V34.722ZM886.843 34.722L886.477 33.572C886.103 34.222 885.271 34.9054 883.685 34.9054C881.993 34.9054 880.519 33.9054 880.519 32.072C880.519 30.2887 882.056 29.422 884.037 29.422C885.038 29.422 885.694 29.5554 886.322 29.722C886.322 28.0387 885.997 27.6887 884.291 27.6887C883.41 27.6887 882.331 27.822 881.619 28.0387L881.161 26.2554C881.619 26.1054 883.226 25.8387 884.665 25.8387C887.929 25.8387 888.437 27.1387 888.437 29.972V34.722H886.843ZM886.371 31.2887V31.2054C885.814 31.0554 885.187 30.9387 884.305 30.9387C883.205 30.9387 882.67 31.372 882.67 32.0887C882.67 32.822 883.276 33.222 884.171 33.222C885.779 33.222 886.371 32.322 886.371 31.2887ZM893.104 34.722H890.989V26.022H892.364L892.766 27.4387C893.14 26.7887 894.141 25.8387 895.558 25.8387C897.419 25.8387 898.808 26.7887 898.808 29.622V34.722H896.714V29.9054C896.714 28.4054 896.002 27.772 894.952 27.772C893.852 27.772 893.104 28.6387 893.104 30.0054V34.722ZM907.346 31.8554L908.869 33.272C907.882 34.372 906.698 34.9054 905.281 34.9054C902.637 34.9054 900.691 32.922 900.691 30.372C900.691 27.822 902.637 25.8387 905.281 25.8387C906.684 25.8387 907.939 26.3887 908.834 27.4387L907.36 28.8387C906.754 28.1054 906.127 27.7387 905.281 27.7387C903.842 27.7387 902.827 28.8554 902.827 30.372C902.827 31.872 903.842 33.0054 905.281 33.0054C905.993 33.0054 906.719 32.7554 907.346 31.8554ZM918.641 31.172H912.176C912.43 32.4054 913.332 33.0887 914.651 33.0887C915.617 33.0887 916.188 32.9054 917.118 32.272L918.098 33.672C917.02 34.5554 916.019 34.9054 914.58 34.9054C911.908 34.9054 910.011 32.922 910.011 30.372C910.011 27.822 911.993 25.8387 914.496 25.8387C917.224 25.8387 918.641 27.922 918.641 30.4054V31.172ZM912.162 29.672H916.561C916.463 28.622 915.835 27.622 914.517 27.622C913.311 27.622 912.402 28.3554 912.162 29.672ZM927.708 34.722L927.335 33.4054C926.714 34.1887 925.628 34.9054 924.035 34.9054C921.666 34.9054 919.995 32.8887 919.995 30.372C919.995 27.8387 921.666 25.8387 924.035 25.8387C925.508 25.8387 926.489 26.622 926.968 27.222V22.172H929.083V34.722H927.708ZM924.564 33.0054C925.981 33.0054 926.968 31.8387 926.968 30.372C926.968 28.8887 925.981 27.7387 924.564 27.7387C923.104 27.7387 922.124 28.8554 922.124 30.372C922.124 31.872 923.104 33.0054 924.564 33.0054ZM937.382 34.722H935.217V23.0554H937.297L943.318 31.0887H943.339V23.0554H945.504V34.722H943.403L937.396 26.672H937.382V34.722ZM950.517 34.722H948.352V23.0554H956.707V24.9387L950.517 24.922V27.9054H956.559V29.7887H950.517V34.722ZM963.617 34.722H961.445V25.0054H957.758V23.0554H967.283V25.0054H963.617V34.722ZM979.924 34.722H971.704L971.718 33.2054L976.167 28.722C976.963 27.9387 977.372 27.372 977.372 26.4887C977.372 25.422 976.674 24.7887 975.574 24.7887C974.728 24.7887 973.903 25.172 972.867 26.172L971.534 24.6887C972.719 23.5554 974.023 22.8387 975.715 22.8387C978.084 22.8387 979.572 24.2554 979.572 26.3554C979.572 27.6554 979.043 28.6887 977.859 29.872L974.968 32.8054H979.924V34.722ZM981.708 33.5554C981.708 32.822 982.315 32.222 983.076 32.222C983.838 32.222 984.444 32.822 984.444 33.5554C984.444 34.2887 983.838 34.9054 983.076 34.9054C982.315 34.9054 981.708 34.2887 981.708 33.5554ZM991.085 34.9387C987.8 34.9387 986.277 32.2054 986.277 28.8887C986.277 25.572 987.8 22.8387 991.085 22.8387C994.385 22.8387 995.887 25.572 995.887 28.8887C995.887 32.2054 994.385 34.9387 991.085 34.9387ZM991.085 32.9887C993.13 32.9887 993.708 30.972 993.708 28.8887C993.708 26.8054 993.116 24.7887 991.085 24.7887C989.055 24.7887 988.477 26.8054 988.477 28.8887C988.477 30.972 989.055 32.9887 991.085 32.9887ZM1003.68 34.722H1001.51V23.0554H1003.68V34.722ZM1008.54 34.722H1006.42V26.022H1007.79L1008.2 27.4387C1008.56 26.7887 1009.56 25.8387 1010.99 25.8387C1012.85 25.8387 1014.23 26.7887 1014.23 29.622V34.722H1012.14V29.9054C1012.14 28.4054 1011.43 27.772 1010.38 27.772C1009.28 27.772 1008.54 28.6387 1008.54 30.0054V34.722ZM1016.09 33.7387L1017 32.1554C1018.06 32.8387 1018.96 33.1387 1020.03 33.1387C1021.23 33.1387 1021.6 32.772 1021.6 32.272C1021.6 31.672 1021.01 31.4554 1019.69 31.3054C1017.91 31.1054 1016.37 30.5887 1016.37 28.5887C1016.37 26.9887 1017.72 25.8387 1019.82 25.8387C1020.84 25.8387 1022.23 26.0887 1023.46 26.8887L1022.53 28.4554C1021.59 27.872 1020.68 27.5887 1019.79 27.5887C1018.84 27.5887 1018.4 27.9054 1018.4 28.5054C1018.4 29.0887 1018.93 29.3054 1020.28 29.472C1022.06 29.7054 1023.62 30.1387 1023.62 32.122C1023.62 33.7554 1022.36 34.9054 1019.96 34.9054C1018.89 34.9054 1017.62 34.7054 1016.09 33.7387ZM1025.48 23.272C1025.48 22.572 1026.02 22.0054 1026.75 22.0054C1027.46 22.0054 1028.04 22.572 1028.04 23.272C1028.04 23.972 1027.46 24.5387 1026.75 24.5387C1026.02 24.5387 1025.48 23.972 1025.48 23.272ZM1027.83 34.722H1025.72V26.022H1027.83V34.722ZM1030.97 37.4387L1031.51 35.6887C1032.3 36.0554 1033.2 36.2887 1034.11 36.2887C1036.24 36.2887 1036.81 35.422 1036.81 33.9554V33.2887C1036.33 33.8887 1035.35 34.6554 1033.88 34.6554C1031.51 34.6554 1029.84 32.7887 1029.84 30.272C1029.84 27.7387 1031.51 25.8387 1033.88 25.8387C1035.47 25.8387 1036.55 26.5387 1037.17 27.322L1037.55 26.022H1038.92V33.572C1038.92 36.772 1037.2 38.1054 1034.28 38.1054C1032.61 38.1054 1031.49 37.7054 1030.97 37.4387ZM1034.4 32.7554C1035.82 32.7554 1036.81 31.7387 1036.81 30.272C1036.81 28.8054 1035.82 27.7387 1034.4 27.7387C1032.94 27.7387 1031.96 28.7554 1031.96 30.272C1031.96 31.772 1032.94 32.7554 1034.4 32.7554ZM1043.7 34.722H1041.58V22.172H1043.7V27.0554C1044.07 26.572 1044.88 25.8387 1046.15 25.8387C1048 25.8387 1049.4 26.7887 1049.4 29.622V34.722H1047.29V29.9054C1047.29 28.4054 1046.59 27.772 1045.52 27.772C1044.44 27.772 1043.7 28.6387 1043.7 30.0054V34.722ZM1056.6 32.6387L1057.29 34.3054C1056.53 34.8054 1055.68 34.9054 1055.13 34.9054C1053.28 34.9054 1052.14 33.9387 1052.14 31.7887V27.922H1051.03V26.0554H1052.23V24.172H1054.26V26.0554H1056.97V27.922H1054.26V31.7887C1054.26 32.722 1054.57 33.0054 1055.22 33.0054C1055.72 33.0054 1056.07 32.8887 1056.6 32.6387Z" fill="white"/>
<path d="M1099.88 288.194H836.898C834.173 288.194 831.963 290.371 831.963 293.055V333.333C831.963 336.018 834.173 338.194 836.898 338.194H1099.88C1102.61 338.194 1104.82 336.018 1104.82 333.333V293.055C1104.82 290.371 1102.61 288.194 1099.88 288.194Z" stroke="#51EEDA" stroke-width="2"/>
<path d="M850.667 318.056H848.214L853.474 306.389H855.525L860.771 318.056H858.317L857.246 315.639H851.746L850.667 318.056ZM854.475 309.339L852.508 313.739H856.484L854.51 309.339H854.475ZM869.231 318.056L868.858 316.739C868.23 317.522 867.152 318.239 865.558 318.239C863.189 318.239 861.511 316.222 861.511 313.706C861.511 311.172 863.189 309.172 865.558 309.172C867.032 309.172 868.012 309.956 868.484 310.556V305.506H870.599V318.056H869.231ZM866.08 316.339C867.504 316.339 868.484 315.172 868.484 313.706C868.484 312.222 867.504 311.072 866.08 311.072C864.627 311.072 863.647 312.189 863.647 313.706C863.647 315.206 864.627 316.339 866.08 316.339ZM877.643 318.056H875.549L872.009 309.356H874.223L876.578 315.406H876.613L878.961 309.356H881.161L877.643 318.056ZM888.183 318.056L887.81 316.906C887.443 317.556 886.611 318.239 885.018 318.239C883.325 318.239 881.859 317.239 881.859 315.406C881.859 313.622 883.396 312.756 885.377 312.756C886.371 312.756 887.034 312.889 887.662 313.056C887.662 311.372 887.337 311.022 885.631 311.022C884.75 311.022 883.664 311.156 882.959 311.372L882.501 309.589C882.959 309.439 884.566 309.172 886.005 309.172C889.269 309.172 889.777 310.472 889.777 313.306V318.056H888.183ZM887.711 314.622V314.539C887.154 314.389 886.526 314.272 885.645 314.272C884.545 314.272 884.002 314.706 884.002 315.422C884.002 316.156 884.616 316.556 885.511 316.556C887.119 316.556 887.711 315.656 887.711 314.622ZM894.444 318.056H892.329V309.356H893.704L894.106 310.772C894.479 310.122 895.481 309.172 896.898 309.172C898.759 309.172 900.148 310.122 900.148 312.956V318.056H898.047V313.239C898.047 311.739 897.342 311.106 896.291 311.106C895.191 311.106 894.444 311.972 894.444 313.339V318.056ZM908.679 315.189L910.202 316.606C909.222 317.706 908.038 318.239 906.62 318.239C903.976 318.239 902.031 316.256 902.031 313.706C902.031 311.156 903.976 309.172 906.62 309.172C908.023 309.172 909.271 309.722 910.174 310.772L908.7 312.172C908.087 311.439 907.466 311.072 906.62 311.072C905.182 311.072 904.167 312.189 904.167 313.706C904.167 315.206 905.182 316.339 906.62 316.339C907.325 316.339 908.059 316.089 908.679 315.189ZM919.981 314.506H913.516C913.77 315.739 914.665 316.422 915.991 316.422C916.949 316.422 917.528 316.239 918.458 315.606L919.438 317.006C918.36 317.889 917.358 318.239 915.92 318.239C913.248 318.239 911.351 316.256 911.351 313.706C911.351 311.156 913.332 309.172 915.835 309.172C918.557 309.172 919.981 311.256 919.981 313.739V314.506ZM913.502 313.006H917.901C917.796 311.956 917.175 310.956 915.85 310.956C914.651 310.956 913.734 311.689 913.502 313.006ZM929.048 318.056L928.674 316.739C928.047 317.522 926.968 318.239 925.375 318.239C923.006 318.239 921.335 316.222 921.335 313.706C921.335 311.172 923.006 309.172 925.375 309.172C926.848 309.172 927.828 309.956 928.301 310.556V305.506H930.416V318.056H929.048ZM925.904 316.339C927.321 316.339 928.301 315.172 928.301 313.706C928.301 312.222 927.321 311.072 925.904 311.072C924.444 311.072 923.464 312.189 923.464 313.706C923.464 315.206 924.444 316.339 925.904 316.339ZM941.915 318.272C938.496 318.272 935.845 315.622 935.845 312.222C935.845 308.822 938.496 306.172 941.915 306.172C945.335 306.172 947.993 308.822 947.993 312.222C947.993 313.989 947.281 315.539 946.11 316.639L948.261 319.639L945.878 319.656L944.503 317.722C943.727 318.072 942.846 318.272 941.915 318.272ZM941.915 316.322C942.423 316.322 942.895 316.239 943.34 316.072L941.175 313.022L943.558 313.039L944.898 314.906C945.469 314.172 945.807 313.222 945.807 312.222C945.807 310.039 944.284 308.122 941.915 308.122C939.546 308.122 938.024 310.039 938.024 312.222C938.024 314.406 939.546 316.322 941.915 316.322ZM956.327 318.056L955.925 316.722C955.565 317.372 954.55 318.239 953.133 318.239C951.285 318.239 949.897 317.306 949.897 314.539V309.356H952.012V314.256C952.012 315.756 952.689 316.289 953.76 316.289C954.839 316.289 955.586 315.439 955.586 314.072V309.356H957.701V318.056H956.327ZM968.348 314.506H961.882C962.136 315.739 963.039 316.422 964.357 316.422C965.323 316.422 965.894 316.239 966.825 315.606L967.805 317.006C966.726 317.889 965.725 318.239 964.287 318.239C961.615 318.239 959.718 316.256 959.718 313.706C959.718 311.156 961.699 309.172 964.202 309.172C966.931 309.172 968.348 311.256 968.348 313.739V314.506ZM961.868 313.006H966.268C966.169 311.956 965.542 310.956 964.223 310.956C963.018 310.956 962.108 311.689 961.868 313.006ZM972.472 318.056H970.357V309.356H971.711L972.219 310.889C972.698 310.056 973.474 309.056 975.744 309.189L975.455 311.406C973.184 311.256 972.472 312.422 972.472 313.822V318.056ZM980.531 321.256H978.31L979.664 317.906L976.195 309.356H978.395L980.75 315.406H980.785L983.133 309.356H985.333L980.531 321.256ZM998.82 314.756L1000.22 316.289C999.123 317.539 997.248 318.272 995.591 318.272C992.171 318.272 989.513 315.622 989.513 312.222C989.513 308.822 992.171 306.172 995.591 306.172C997.262 306.172 999.025 306.872 1000.24 308.139L998.785 309.722C997.84 308.639 996.839 308.122 995.591 308.122C993.222 308.122 991.699 310.039 991.699 312.222C991.699 314.406 993.222 316.322 995.591 316.322C996.839 316.322 997.875 315.806 998.82 314.756ZM1007.92 318.056L1007.55 316.906C1007.18 317.556 1006.35 318.239 1004.76 318.239C1003.06 318.239 1001.6 317.239 1001.6 315.406C1001.6 313.622 1003.14 312.756 1005.12 312.756C1006.11 312.756 1006.77 312.889 1007.4 313.056C1007.4 311.372 1007.08 311.022 1005.37 311.022C1004.49 311.022 1003.4 311.156 1002.7 311.372L1002.24 309.589C1002.7 309.439 1004.31 309.172 1005.74 309.172C1009.01 309.172 1009.52 310.472 1009.52 313.306V318.056H1007.92ZM1007.45 314.622V314.539C1006.89 314.389 1006.27 314.272 1005.38 314.272C1004.28 314.272 1003.74 314.706 1003.74 315.422C1003.74 316.156 1004.35 316.556 1005.25 316.556C1006.86 316.556 1007.45 315.656 1007.45 314.622ZM1014.18 321.256H1012.07V309.356H1013.42L1013.8 310.656C1014.44 309.872 1015.5 309.172 1017.1 309.172C1019.46 309.172 1021.16 311.172 1021.16 313.706C1021.16 316.222 1019.46 318.239 1017.1 318.239C1015.64 318.239 1014.64 317.456 1014.18 316.839V321.256ZM1016.57 316.339C1018.03 316.339 1019.01 315.206 1019.01 313.706C1019.01 312.189 1018.03 311.072 1016.57 311.072C1015.16 311.072 1014.17 312.222 1014.17 313.706C1014.17 315.172 1015.16 316.339 1016.57 316.339ZM1028.88 318.056L1028.5 316.906C1028.13 317.556 1027.3 318.239 1025.71 318.239C1024.02 318.239 1022.55 317.239 1022.55 315.406C1022.55 313.622 1024.09 312.756 1026.07 312.756C1027.06 312.756 1027.73 312.889 1028.35 313.056C1028.35 311.372 1028.03 311.022 1026.32 311.022C1025.44 311.022 1024.36 311.156 1023.65 311.372L1023.19 309.589C1023.65 309.439 1025.25 309.172 1026.69 309.172C1029.96 309.172 1030.47 310.472 1030.47 313.306V318.056H1028.88ZM1028.4 314.622V314.539C1027.85 314.389 1027.22 314.272 1026.34 314.272C1025.24 314.272 1024.7 314.706 1024.7 315.422C1024.7 316.156 1025.31 316.556 1026.2 316.556C1027.81 316.556 1028.4 315.656 1028.4 314.622ZM1034.38 318.056H1033.02V305.506H1035.14V310.556C1035.6 309.956 1036.59 309.172 1038.05 309.172C1040.42 309.172 1042.11 311.172 1042.11 313.706C1042.11 316.222 1040.42 318.239 1038.05 318.239C1036.46 318.239 1035.39 317.522 1034.75 316.739L1034.38 318.056ZM1037.52 316.339C1038.98 316.339 1039.96 315.206 1039.96 313.706C1039.96 312.189 1038.98 311.072 1037.52 311.072C1036.12 311.072 1035.12 312.222 1035.12 313.706C1035.12 315.172 1036.12 316.339 1037.52 316.339ZM1043.87 306.606C1043.87 305.906 1044.42 305.339 1045.14 305.339C1045.85 305.339 1046.43 305.906 1046.43 306.606C1046.43 307.306 1045.85 307.872 1045.14 307.872C1044.42 307.872 1043.87 307.306 1043.87 306.606ZM1046.23 318.056H1044.11V309.356H1046.23V318.056ZM1051 318.056H1048.89V305.506H1051V318.056ZM1053.43 306.606C1053.43 305.906 1053.96 305.339 1054.7 305.339C1055.4 305.339 1055.98 305.906 1055.98 306.606C1055.98 307.306 1055.4 307.872 1054.7 307.872C1053.96 307.872 1053.43 307.306 1053.43 306.606ZM1055.77 318.056H1053.66V309.356H1055.77V318.056ZM1063.09 315.972L1063.78 317.639C1063.02 318.139 1062.18 318.239 1061.62 318.239C1059.77 318.239 1058.64 317.272 1058.64 315.122V311.256H1057.52V309.389H1058.72V307.506H1060.75V309.389H1063.46V311.256H1060.75V315.122C1060.75 316.056 1061.06 316.339 1061.72 316.339C1062.21 316.339 1062.56 316.222 1063.09 315.972ZM1065.36 306.606C1065.36 305.906 1065.9 305.339 1066.63 305.339C1067.34 305.339 1067.91 305.906 1067.91 306.606C1067.91 307.306 1067.34 307.872 1066.63 307.872C1065.9 307.872 1065.36 307.306 1065.36 306.606ZM1067.7 318.056H1065.59V309.356H1067.7V318.056ZM1078.34 314.506H1071.87C1072.12 315.739 1073.03 316.422 1074.35 316.422C1075.31 316.422 1075.88 316.239 1076.81 315.606L1077.79 317.006C1076.71 317.889 1075.71 318.239 1074.27 318.239C1071.6 318.239 1069.71 316.256 1069.71 313.706C1069.71 311.156 1071.69 309.172 1074.19 309.172C1076.92 309.172 1078.34 311.256 1078.34 313.739V314.506ZM1071.86 313.006H1076.26C1076.16 311.956 1075.53 310.956 1074.21 310.956C1073.01 310.956 1072.1 311.689 1071.86 313.006ZM1079.65 317.072L1080.57 315.489C1081.64 316.172 1082.53 316.472 1083.6 316.472C1084.8 316.472 1085.17 316.106 1085.17 315.606C1085.17 315.006 1084.58 314.789 1083.26 314.639C1081.48 314.439 1079.94 313.922 1079.94 311.922C1079.94 310.322 1081.3 309.172 1083.39 309.172C1084.41 309.172 1085.8 309.422 1087.03 310.222L1086.1 311.789C1085.15 311.206 1084.26 310.922 1083.36 310.922C1082.41 310.922 1081.97 311.239 1081.97 311.839C1081.97 312.422 1082.5 312.639 1083.85 312.806C1085.63 313.039 1087.18 313.472 1087.18 315.456C1087.18 317.089 1085.93 318.239 1083.53 318.239C1082.46 318.239 1081.19 318.039 1079.65 317.072Z" fill="white"/>
<path d="M1194.36 193.75H975.088C972.362 193.75 970.152 195.926 970.152 198.611V238.889C970.152 241.574 972.362 243.75 975.088 243.75H1194.36C1197.08 243.75 1199.29 241.574 1199.29 238.889V198.611C1199.29 195.926 1197.08 193.75 1194.36 193.75Z" stroke="#51EEDA" stroke-width="2"/>
<path d="M1007.58 223.611H1005.42V211.944H1007.5L1013.52 219.978H1013.54V211.944H1015.71V223.611H1013.61L1007.6 215.561H1007.58V223.611ZM1020.72 223.611H1018.56V211.944H1026.91V213.828L1020.72 213.811V216.794H1026.76V218.678H1020.72V223.611ZM1033.82 223.611H1031.65V213.894H1027.96V211.944H1037.49V213.894H1033.82V223.611ZM1051.14 220.311L1052.55 221.844C1051.45 223.094 1049.57 223.828 1047.91 223.828C1044.49 223.828 1041.84 221.178 1041.84 217.778C1041.84 214.378 1044.49 211.728 1047.91 211.728C1049.58 211.728 1051.35 212.428 1052.57 213.694L1051.11 215.278C1050.16 214.194 1049.16 213.678 1047.91 213.678C1045.54 213.678 1044.02 215.594 1044.02 217.778C1044.02 219.961 1045.54 221.878 1047.91 221.878C1049.16 221.878 1050.2 221.361 1051.14 220.311ZM1053.77 219.261C1053.77 216.711 1055.71 214.728 1058.36 214.728C1060.99 214.728 1062.94 216.711 1062.94 219.261C1062.94 221.811 1060.99 223.794 1058.36 223.794C1055.71 223.794 1053.77 221.811 1053.77 219.261ZM1058.36 221.894C1059.79 221.894 1060.79 220.761 1060.79 219.261C1060.79 217.744 1059.79 216.628 1058.36 216.628C1056.92 216.628 1055.9 217.744 1055.9 219.261C1055.9 220.761 1056.92 221.894 1058.36 221.894ZM1067.06 223.611H1064.94V211.061H1067.06V223.611ZM1071.83 223.611H1069.71V211.061H1071.83V223.611ZM1080.23 223.611L1079.85 222.461C1079.48 223.111 1078.65 223.794 1077.06 223.794C1075.37 223.794 1073.89 222.794 1073.89 220.961C1073.89 219.178 1075.44 218.311 1077.41 218.311C1078.41 218.311 1079.08 218.444 1079.7 218.611C1079.7 216.928 1079.38 216.578 1077.67 216.578C1076.79 216.578 1075.71 216.711 1074.99 216.928L1074.54 215.144C1074.99 214.994 1076.6 214.728 1078.04 214.728C1081.3 214.728 1081.81 216.028 1081.81 218.861V223.611H1080.23ZM1079.75 220.178V220.094C1079.19 219.944 1078.57 219.828 1077.69 219.828C1076.59 219.828 1076.05 220.261 1076.05 220.978C1076.05 221.711 1076.65 222.111 1077.55 222.111C1079.16 222.111 1079.75 221.211 1079.75 220.178ZM1089.03 221.528L1089.72 223.194C1088.95 223.694 1088.11 223.794 1087.55 223.794C1085.7 223.794 1084.58 222.828 1084.58 220.678V216.811H1083.46V214.944H1084.66V213.061H1086.69V214.944H1089.4V216.811H1086.69V220.678C1086.69 221.611 1086.99 221.894 1087.65 221.894C1088.14 221.894 1088.5 221.778 1089.03 221.528ZM1099.5 220.061H1093.03C1093.28 221.294 1094.18 221.978 1095.5 221.978C1096.46 221.978 1097.04 221.794 1097.97 221.161L1098.95 222.561C1097.87 223.444 1096.87 223.794 1095.43 223.794C1092.76 223.794 1090.87 221.811 1090.87 219.261C1090.87 216.711 1092.85 214.728 1095.35 214.728C1098.07 214.728 1099.5 216.811 1099.5 219.294V220.061ZM1093.02 218.561H1097.42C1097.31 217.511 1096.69 216.511 1095.36 216.511C1094.16 216.511 1093.25 217.244 1093.02 218.561ZM1103.62 223.611H1101.5V214.911H1102.86L1103.37 216.444C1103.84 215.611 1104.62 214.611 1106.88 214.744L1106.6 216.961C1104.33 216.811 1103.62 217.978 1103.62 219.378V223.611ZM1114.33 223.611L1113.96 222.461C1113.59 223.111 1112.76 223.794 1111.16 223.794C1109.47 223.794 1108.01 222.794 1108.01 220.961C1108.01 219.178 1109.54 218.311 1111.52 218.311C1112.52 218.311 1113.18 218.444 1113.81 218.611C1113.81 216.928 1113.48 216.578 1111.78 216.578C1110.9 216.578 1109.81 216.711 1109.1 216.928L1108.65 215.144C1109.11 214.994 1110.71 214.728 1112.15 214.728C1115.42 214.728 1115.92 216.028 1115.92 218.861V223.611H1114.33ZM1113.86 220.178V220.094C1113.3 219.944 1112.67 219.828 1111.79 219.828C1110.69 219.828 1110.15 220.261 1110.15 220.978C1110.15 221.711 1110.76 222.111 1111.66 222.111C1113.26 222.111 1113.86 221.211 1113.86 220.178ZM1120.59 223.611H1118.48V211.061H1120.59V223.611ZM1131.36 223.611H1126.72V211.944H1131.36C1134.78 211.944 1137.35 214.378 1137.35 217.778C1137.35 221.178 1134.78 223.611 1131.36 223.611ZM1128.89 213.861V221.694H1131.36C1133.73 221.694 1135.17 219.961 1135.17 217.778C1135.17 215.594 1133.73 213.861 1131.36 213.861H1128.89ZM1145.18 223.611L1144.81 222.461C1144.44 223.111 1143.61 223.794 1142.02 223.794C1140.32 223.794 1138.85 222.794 1138.85 220.961C1138.85 219.178 1140.4 218.311 1142.38 218.311C1143.37 218.311 1144.03 218.444 1144.66 218.611C1144.66 216.928 1144.34 216.578 1142.63 216.578C1141.75 216.578 1140.66 216.711 1139.95 216.928L1139.5 215.144C1139.95 214.994 1141.56 214.728 1143 214.728C1146.27 214.728 1146.78 216.028 1146.78 218.861V223.611H1145.18ZM1144.71 220.178V220.094C1144.15 219.944 1143.53 219.828 1142.64 219.828C1141.54 219.828 1141 220.261 1141 220.978C1141 221.711 1141.61 222.111 1142.51 222.111C1144.12 222.111 1144.71 221.211 1144.71 220.178ZM1153.98 221.528L1154.67 223.194C1153.91 223.694 1153.07 223.794 1152.51 223.794C1150.67 223.794 1149.53 222.828 1149.53 220.678V216.811H1148.41V214.944H1149.62V213.061H1151.65V214.944H1154.36V216.811H1151.65V220.678C1151.65 221.611 1151.95 221.894 1152.61 221.894C1153.1 221.894 1153.46 221.778 1153.98 221.528ZM1162.34 223.611L1161.96 222.461C1161.59 223.111 1160.76 223.794 1159.17 223.794C1157.48 223.794 1156.01 222.794 1156.01 220.961C1156.01 219.178 1157.55 218.311 1159.52 218.311C1160.52 218.311 1161.19 218.444 1161.81 218.611C1161.81 216.928 1161.49 216.578 1159.78 216.578C1158.9 216.578 1157.82 216.711 1157.11 216.928L1156.65 215.144C1157.1 214.994 1158.71 214.728 1160.15 214.728C1163.42 214.728 1163.92 216.028 1163.92 218.861V223.611H1162.34ZM1161.86 220.178V220.094C1161.3 219.944 1160.68 219.828 1159.8 219.828C1158.7 219.828 1158.16 220.261 1158.16 220.978C1158.16 221.711 1158.76 222.111 1159.66 222.111C1161.27 222.111 1161.86 221.211 1161.86 220.178Z" fill="white"/>
<path d="M1194.36 99.3057H974.383C971.657 99.3057 969.447 101.482 969.447 104.167V144.445C969.447 147.129 971.657 149.306 974.383 149.306H1194.36C1197.08 149.306 1199.29 147.129 1199.29 144.445V104.167C1199.29 101.482 1197.08 99.3057 1194.36 99.3057Z" stroke="#51EEDA" stroke-width="2"/>
<path d="M988.153 129.167H985.699L990.959 117.5H993.011L998.256 129.167H995.803L994.731 126.75H989.232L988.153 129.167ZM991.96 120.45L989.993 124.85H993.969L991.995 120.45H991.96ZM1000.13 131.883L1000.67 130.133C1001.47 130.5 1002.37 130.733 1003.28 130.733C1005.41 130.733 1005.97 129.867 1005.97 128.4V127.733C1005.5 128.333 1004.52 129.1 1003.04 129.1C1000.67 129.1 998.997 127.233 998.997 124.717C998.997 122.183 1000.67 120.283 1003.04 120.283C1004.64 120.283 1005.72 120.983 1006.34 121.767L1006.72 120.467H1008.08V128.017C1008.08 131.217 1006.36 132.55 1003.45 132.55C1001.77 132.55 1000.66 132.15 1000.13 131.883ZM1003.57 127.2C1004.99 127.2 1005.97 126.183 1005.97 124.717C1005.97 123.25 1004.99 122.183 1003.57 122.183C1002.11 122.183 1001.13 123.2 1001.13 124.717C1001.13 126.217 1002.11 127.2 1003.57 127.2ZM1011.22 131.883L1011.77 130.133C1012.55 130.5 1013.46 130.733 1014.37 130.733C1016.5 130.733 1017.06 129.867 1017.06 128.4V127.733C1016.59 128.333 1015.6 129.1 1014.13 129.1C1011.76 129.1 1010.09 127.233 1010.09 124.717C1010.09 122.183 1011.76 120.283 1014.13 120.283C1015.72 120.283 1016.81 120.983 1017.43 121.767L1017.8 120.467H1019.18V128.017C1019.18 131.217 1017.45 132.55 1014.54 132.55C1012.86 132.55 1011.74 132.15 1011.22 131.883ZM1014.66 127.2C1016.08 127.2 1017.06 126.183 1017.06 124.717C1017.06 123.25 1016.08 122.183 1014.66 122.183C1013.2 122.183 1012.22 123.2 1012.22 124.717C1012.22 126.217 1013.2 127.2 1014.66 127.2ZM1029.81 125.617H1023.34C1023.6 126.85 1024.49 127.533 1025.81 127.533C1026.78 127.533 1027.35 127.35 1028.28 126.717L1029.26 128.117C1028.18 129 1027.18 129.35 1025.75 129.35C1023.07 129.35 1021.18 127.367 1021.18 124.817C1021.18 122.267 1023.15 120.283 1025.66 120.283C1028.38 120.283 1029.81 122.367 1029.81 124.85V125.617ZM1023.32 124.117H1027.72C1027.62 123.067 1026.99 122.067 1025.68 122.067C1024.48 122.067 1023.56 122.8 1023.32 124.117ZM1033.93 129.167H1031.82V120.467H1033.17L1033.68 122C1034.15 121.167 1034.93 120.167 1037.2 120.3L1036.91 122.517C1034.64 122.367 1033.93 123.533 1033.93 124.933V129.167ZM1039.21 131.883L1039.76 130.133C1040.55 130.5 1041.45 130.733 1042.36 130.733C1044.49 130.733 1045.05 129.867 1045.05 128.4V127.733C1044.58 128.333 1043.6 129.1 1042.12 129.1C1039.76 129.1 1038.08 127.233 1038.08 124.717C1038.08 122.183 1039.76 120.283 1042.12 120.283C1043.71 120.283 1044.8 120.983 1045.42 121.767L1045.8 120.467H1047.17V128.017C1047.17 131.217 1045.44 132.55 1042.53 132.55C1040.86 132.55 1039.73 132.15 1039.21 131.883ZM1042.65 127.2C1044.07 127.2 1045.05 126.183 1045.05 124.717C1045.05 123.25 1044.07 122.183 1042.65 122.183C1041.19 122.183 1040.21 123.2 1040.21 124.717C1040.21 126.217 1041.19 127.2 1042.65 127.2ZM1055.56 129.167L1055.19 128.017C1054.82 128.667 1053.99 129.35 1052.4 129.35C1050.71 129.35 1049.24 128.35 1049.24 126.517C1049.24 124.733 1050.78 123.867 1052.76 123.867C1053.75 123.867 1054.41 124 1055.04 124.167C1055.04 122.483 1054.72 122.133 1053.01 122.133C1052.13 122.133 1051.04 122.267 1050.34 122.483L1049.88 120.7C1050.34 120.55 1051.95 120.283 1053.38 120.283C1056.65 120.283 1057.16 121.583 1057.16 124.417V129.167H1055.56ZM1055.09 125.733V125.65C1054.53 125.5 1053.91 125.383 1053.02 125.383C1051.92 125.383 1051.38 125.817 1051.38 126.533C1051.38 127.267 1052 127.667 1052.89 127.667C1054.5 127.667 1055.09 126.767 1055.09 125.733ZM1064.36 127.083L1065.06 128.75C1064.3 129.25 1063.45 129.35 1062.89 129.35C1061.05 129.35 1059.91 128.383 1059.91 126.233V122.367H1058.8V120.5H1060V118.617H1062.03V120.5H1064.74V122.367H1062.03V126.233C1062.03 127.167 1062.33 127.45 1062.99 127.45C1063.48 127.45 1063.84 127.333 1064.36 127.083ZM1074.83 125.617H1068.37C1068.63 126.85 1069.52 127.533 1070.84 127.533C1071.81 127.533 1072.38 127.35 1073.31 126.717L1074.3 128.117C1073.21 129 1072.21 129.35 1070.77 129.35C1068.1 129.35 1066.2 127.367 1066.2 124.817C1066.2 122.267 1068.18 120.283 1070.69 120.283C1073.41 120.283 1074.83 122.367 1074.83 124.85V125.617ZM1068.35 124.117H1072.75C1072.65 123.067 1072.03 122.067 1070.71 122.067C1069.5 122.067 1068.59 122.8 1068.35 124.117ZM1083.9 129.167L1083.53 127.85C1082.9 128.633 1081.82 129.35 1080.23 129.35C1077.86 129.35 1076.19 127.333 1076.19 124.817C1076.19 122.283 1077.86 120.283 1080.23 120.283C1081.7 120.283 1082.69 121.067 1083.16 121.667V116.617H1085.27V129.167H1083.9ZM1080.75 127.45C1082.18 127.45 1083.16 126.283 1083.16 124.817C1083.16 123.333 1082.18 122.183 1080.75 122.183C1079.3 122.183 1078.31 123.3 1078.31 124.817C1078.31 126.317 1079.3 127.45 1080.75 127.45ZM1096.09 129.167H1093.92V119.45H1090.24V117.5H1099.76V119.45H1096.09V129.167ZM1099.59 124.817C1099.59 122.267 1101.53 120.283 1104.17 120.283C1106.81 120.283 1108.76 122.267 1108.76 124.817C1108.76 127.367 1106.81 129.35 1104.17 129.35C1101.53 129.35 1099.59 127.367 1099.59 124.817ZM1104.17 127.45C1105.61 127.45 1106.61 126.317 1106.61 124.817C1106.61 123.3 1105.61 122.183 1104.17 122.183C1102.73 122.183 1101.72 123.3 1101.72 124.817C1101.72 126.317 1102.73 127.45 1104.17 127.45ZM1112.87 129.167H1110.75V116.617H1112.87V123.967L1116.24 120.467H1118.89L1115.34 124.167L1119.03 129.167H1116.52L1113.87 125.617L1112.87 126.667V129.167ZM1128.32 125.617H1121.86C1122.11 126.85 1123.01 127.533 1124.33 127.533C1125.29 127.533 1125.87 127.35 1126.8 126.717L1127.78 128.117C1126.7 129 1125.7 129.35 1124.26 129.35C1121.59 129.35 1119.69 127.367 1119.69 124.817C1119.69 122.267 1121.68 120.283 1124.18 120.283C1126.9 120.283 1128.32 122.367 1128.32 124.85V125.617ZM1121.84 124.117H1126.24C1126.14 123.067 1125.52 122.067 1124.19 122.067C1122.99 122.067 1122.08 122.8 1121.84 124.117ZM1132.45 129.167H1130.33V120.467H1131.71L1132.11 121.883C1132.48 121.233 1133.49 120.283 1134.9 120.283C1136.76 120.283 1138.15 121.233 1138.15 124.067V129.167H1136.05V124.35C1136.05 122.85 1135.35 122.217 1134.3 122.217C1133.2 122.217 1132.45 123.083 1132.45 124.45V129.167ZM1148.81 129.167H1144.17V117.5H1148.81C1152.23 117.5 1154.79 119.933 1154.79 123.333C1154.79 126.733 1152.23 129.167 1148.81 129.167ZM1146.33 119.417V127.25H1148.81C1151.18 127.25 1152.61 125.517 1152.61 123.333C1152.61 121.15 1151.18 119.417 1148.81 119.417H1146.33ZM1162.63 129.167L1162.25 128.017C1161.88 128.667 1161.05 129.35 1159.46 129.35C1157.77 129.35 1156.3 128.35 1156.3 126.517C1156.3 124.733 1157.84 123.867 1159.82 123.867C1160.81 123.867 1161.48 124 1162.1 124.167C1162.1 122.483 1161.78 122.133 1160.07 122.133C1159.19 122.133 1158.11 122.267 1157.4 122.483L1156.94 120.7C1157.4 120.55 1159.01 120.283 1160.45 120.283C1163.71 120.283 1164.22 121.583 1164.22 124.417V129.167H1162.63ZM1162.15 125.733V125.65C1161.6 125.5 1160.97 125.383 1160.09 125.383C1158.99 125.383 1158.44 125.817 1158.44 126.533C1158.44 127.267 1159.06 127.667 1159.95 127.667C1161.56 127.667 1162.15 126.767 1162.15 125.733ZM1171.42 127.083L1172.12 128.75C1171.36 129.25 1170.51 129.35 1169.95 129.35C1168.11 129.35 1166.98 128.383 1166.98 126.233V122.367H1165.86V120.5H1167.06V118.617H1169.09V120.5H1171.8V122.367H1169.09V126.233C1169.09 127.167 1169.39 127.45 1170.06 127.45C1170.54 127.45 1170.9 127.333 1171.42 127.083ZM1179.78 129.167L1179.41 128.017C1179.04 128.667 1178.21 129.35 1176.61 129.35C1174.92 129.35 1173.45 128.35 1173.45 126.517C1173.45 124.733 1174.99 123.867 1176.97 123.867C1177.97 123.867 1178.63 124 1179.26 124.167C1179.26 122.483 1178.93 122.133 1177.23 122.133C1176.35 122.133 1175.26 122.267 1174.55 122.483L1174.1 120.7C1174.55 120.55 1176.16 120.283 1177.6 120.283C1180.86 120.283 1181.37 121.583 1181.37 124.417V129.167H1179.78ZM1179.31 125.733V125.65C1178.75 125.5 1178.12 125.383 1177.24 125.383C1176.14 125.383 1175.6 125.817 1175.6 126.533C1175.6 127.267 1176.21 127.667 1177.11 127.667C1178.71 127.667 1179.31 126.767 1179.31 125.733Z" fill="white"/>
<path d="M535.135 175H394.213M394.213 175H233.02M394.213 175L292.134 75M394.213 175L297.096 274.306M233.02 175L156.029 75M233.02 175L154.759 272.222M233.02 175H77.5557" stroke="#ACBEC0"/>
<path d="M664.865 174.306H798.825M798.825 174.306H885.547M798.825 174.306L885.547 287.153M798.825 174.306L885.547 55.5557M885.547 174.306L970.153 218.403M885.547 174.306L970.153 125" stroke="#ACBEC0"/>
<path d="M574.732 163.046C573.341 161.964 573.104 159.977 574.203 158.607L579.642 151.826C580.741 150.457 582.759 150.223 584.15 151.306C585.54 152.388 585.777 154.376 584.678 155.745L579.238 162.526C578.14 163.896 576.121 164.129 574.732 163.046Z" fill="#4AFEBF"/>
<path d="M611.237 174.879C611.237 180.627 606.506 185.286 600.671 185.286C594.836 185.286 590.105 180.627 590.105 174.879C590.105 169.131 594.836 164.472 600.671 164.472C606.506 164.472 611.237 169.131 611.237 174.879Z" fill="#51EEDA"/>
<path fill-rule="evenodd" clip-rule="evenodd" d="M607.676 217.444C604.006 221.699 597.338 221.699 593.668 217.444L563.278 182.219C560.362 178.838 560.362 173.875 563.278 170.494L566.319 166.97C567.962 165.065 570.862 164.833 572.796 166.452C574.731 168.071 574.966 170.928 573.323 172.833L570.282 176.357L600.672 211.583L609.478 201.374C611.122 199.469 614.022 199.238 615.956 200.856C617.89 202.475 618.127 205.331 616.483 207.236L607.676 217.444ZM626.675 188.432C624.741 186.813 624.505 183.956 626.149 182.051L631.061 176.357L600.672 141.131L594.272 148.549C592.628 150.455 589.728 150.687 587.794 149.068C585.86 147.449 585.624 144.592 587.267 142.688L593.668 135.269C597.338 131.014 604.006 131.014 607.676 135.269L638.065 170.494C640.982 173.875 640.982 178.838 638.065 182.219L633.153 187.914C631.509 189.819 628.609 190.051 626.675 188.432Z" fill="url(#paint0_linear_487_1060)"/>
<path fill-rule="evenodd" clip-rule="evenodd" d="M600.671 121.553C569.942 121.553 545.031 146.089 545.031 176.356C545.031 206.622 569.942 231.158 600.671 231.158C603.209 231.158 605.266 233.185 605.266 235.685C605.266 238.184 603.209 240.211 600.671 240.211C564.865 240.211 535.84 211.622 535.84 176.356C535.84 141.089 564.865 112.5 600.671 112.5C603.209 112.5 605.266 114.526 605.266 117.026C605.266 119.526 603.209 121.553 600.671 121.553Z" fill="url(#paint1_linear_487_1060)"/>
<path fill-rule="evenodd" clip-rule="evenodd" d="M639.801 221.687C638.015 219.911 638.029 217.045 639.832 215.285C650.012 205.349 656.31 191.581 656.31 176.356C656.31 161.131 650.012 147.363 639.832 137.426C638.029 135.667 638.015 132.801 639.801 131.025C641.588 129.249 644.498 129.236 646.301 130.996C658.152 142.562 665.501 158.618 665.501 176.356C665.501 194.094 658.152 210.15 646.301 221.716C644.498 223.476 641.588 223.462 639.801 221.687Z" fill="url(#paint2_linear_487_1060)"/>
<path d="M628.013 231.178C628.013 233.865 625.802 236.044 623.073 236.044C620.345 236.044 618.133 233.865 618.133 231.178C618.133 228.49 620.345 226.312 623.073 226.312C625.802 226.312 628.013 228.49 628.013 231.178Z" fill="#4AFEBF"/>
<path d="M312.442 327.244V285.95C312.442 285.823 312.407 285.698 312.342 285.587C312.277 285.477 312.182 285.385 312.069 285.321L275.342 264.675C275.229 264.611 275.101 264.578 274.969 264.578C274.839 264.578 274.71 264.611 274.597 264.675L237.87 285.322C237.757 285.385 237.663 285.477 237.597 285.587C237.532 285.698 237.498 285.823 237.498 285.95V327.244C237.498 327.503 237.64 327.742 237.87 327.872L274.597 348.519C274.71 348.583 274.839 348.616 274.969 348.616C275.101 348.616 275.229 348.583 275.342 348.519L312.069 327.872C312.182 327.808 312.277 327.717 312.342 327.606C312.407 327.496 312.442 327.371 312.442 327.244Z" fill="#1E2121"/>
<path d="M312.442 327.244V285.95C312.442 285.823 312.407 285.698 312.342 285.587C312.277 285.477 312.182 285.385 312.069 285.321L275.342 264.675C275.229 264.611 275.101 264.578 274.969 264.578C274.839 264.578 274.71 264.611 274.597 264.675L237.87 285.322C237.757 285.385 237.663 285.477 237.597 285.587C237.532 285.698 237.498 285.823 237.498 285.95V327.244C237.498 327.503 237.64 327.742 237.87 327.872L274.597 348.519C274.71 348.583 274.839 348.616 274.969 348.616C275.101 348.616 275.229 348.583 275.342 348.519L312.069 327.872C312.182 327.808 312.277 327.717 312.342 327.606C312.407 327.496 312.442 327.371 312.442 327.244Z" fill="#1E2121"/>
<path d="M312.07 285.322L275.343 264.675C275.23 264.611 275.101 264.578 274.971 264.578C274.84 264.578 274.711 264.611 274.598 264.675L271.408 266.468L304.945 285.322C305.059 285.385 305.153 285.477 305.218 285.587C305.284 285.698 305.318 285.823 305.318 285.95V327.244C305.318 327.371 305.284 327.496 305.218 327.606C305.153 327.717 305.059 327.808 304.945 327.871L271.408 346.725L274.598 348.519C274.711 348.582 274.84 348.616 274.971 348.616C275.101 348.616 275.23 348.582 275.343 348.519L312.07 327.871C312.184 327.808 312.277 327.717 312.343 327.606C312.408 327.496 312.443 327.371 312.442 327.244V285.95C312.443 285.823 312.408 285.698 312.343 285.587C312.277 285.477 312.184 285.385 312.07 285.322Z" fill="#141616"/>
<path d="M313.095 284.43L275.623 263.364C275.425 263.253 275.199 263.194 274.97 263.194C274.741 263.194 274.516 263.253 274.317 263.364L263.257 269.583C262.96 269.752 262.743 270.03 262.655 270.354C262.567 270.679 262.614 271.024 262.787 271.315C262.959 271.606 263.243 271.819 263.576 271.906C263.909 271.994 264.263 271.951 264.563 271.785L274.97 265.934L311.137 286.266V326.928L287.739 340.082C287.442 340.251 287.226 340.529 287.137 340.853C287.049 341.178 287.096 341.524 287.269 341.814C287.441 342.105 287.725 342.318 288.057 342.405C288.39 342.494 288.746 342.45 289.045 342.284L313.095 328.764C313.293 328.652 313.458 328.492 313.573 328.299C313.688 328.105 313.748 327.886 313.748 327.662V285.531C313.748 285.308 313.688 285.089 313.573 284.896C313.459 284.703 313.294 284.542 313.095 284.43ZM283.342 342.553L274.97 347.26L238.804 326.928V286.266L260.166 274.257C260.464 274.087 260.68 273.81 260.768 273.485C260.857 273.16 260.809 272.814 260.637 272.523C260.465 272.233 260.18 272.021 259.848 271.933C259.515 271.844 259.16 271.888 258.861 272.054L236.845 284.43C236.647 284.542 236.482 284.703 236.367 284.896C236.253 285.089 236.192 285.308 236.192 285.531V327.662C236.192 327.886 236.253 328.105 236.367 328.299C236.482 328.492 236.647 328.652 236.845 328.764L274.317 349.829C274.516 349.941 274.741 350 274.97 350C275.199 350 275.424 349.941 275.623 349.829L284.648 344.756C284.944 344.585 285.159 344.308 285.246 343.984C285.334 343.66 285.287 343.316 285.115 343.026C284.943 342.735 284.66 342.523 284.328 342.435C283.996 342.346 283.642 342.389 283.342 342.553Z" fill="#51EEDA"/>
<path d="M285.227 313.882L295.29 308.064C295.802 307.767 296.123 307.215 296.123 306.621V294.983C296.123 294.391 295.802 293.837 295.29 293.539L285.227 287.722C284.713 287.425 284.077 287.427 283.564 287.722L273.5 293.539C272.988 293.837 272.668 294.388 272.668 294.983V315.816L272.507 315.907L265.546 319.93L258.426 315.813V307.578L258.586 307.487L265.548 303.464L269.789 305.914V300.587L266.381 298.617C266.13 298.472 265.843 298.396 265.548 298.396C265.254 298.396 264.967 298.472 264.715 298.617L254.652 304.435C254.139 304.732 253.819 305.284 253.819 305.878V317.516C253.819 318.108 254.139 318.662 254.652 318.96L264.715 324.777C265.229 325.074 265.865 325.074 266.378 324.777L276.442 318.96C276.954 318.662 277.274 318.11 277.274 317.516V296.686L277.434 296.594L284.396 292.571L291.516 296.688V304.923L291.356 305.014L284.394 309.04L280.152 306.59V311.917L283.561 313.887C284.074 314.184 284.711 314.184 285.224 313.887L285.227 313.882Z" fill="#EEEBE9"/>
<path d="M76.2496 195.299V154.006C76.2496 153.878 76.215 153.753 76.1494 153.643C76.0846 153.533 75.9901 153.441 75.8773 153.377L39.15 132.731C39.0367 132.667 38.9083 132.633 38.7775 132.633C38.6467 132.633 38.5182 132.667 38.4049 132.731L1.67811 153.378C1.56484 153.441 1.47079 153.533 1.40541 153.643C1.34004 153.753 1.30563 153.878 1.30566 154.006V195.299C1.30566 195.558 1.44775 195.798 1.67811 195.928L38.4049 216.574C38.5182 216.638 38.6467 216.671 38.7775 216.671C38.9083 216.671 39.0367 216.638 39.15 216.574L75.8766 195.928C75.9901 195.864 76.0846 195.772 76.1494 195.662C76.215 195.551 76.2496 195.426 76.2496 195.299Z" fill="#1E2121"/>
<path d="M75.8774 153.378L39.1506 132.731C39.0373 132.667 38.9088 132.633 38.778 132.633C38.6472 132.633 38.5188 132.667 38.4055 132.731L35.2158 134.524L68.7529 153.378C68.8662 153.441 68.9602 153.533 69.0256 153.643C69.0909 153.753 69.1254 153.878 69.1254 154.006V195.299C69.1253 195.426 69.0909 195.551 69.0256 195.662C68.9602 195.772 68.8662 195.864 68.7529 195.927L35.2158 214.781L38.4055 216.574C38.5188 216.637 38.6472 216.671 38.778 216.671C38.9088 216.671 39.0373 216.637 39.1506 216.574L75.8774 195.927C75.9909 195.864 76.0847 195.772 76.1503 195.662C76.2158 195.551 76.2504 195.426 76.2497 195.299V154.006C76.2504 153.878 76.2158 153.753 76.1503 153.643C76.0847 153.533 75.9909 153.441 75.8774 153.378Z" fill="#141616"/>
<path d="M76.9029 152.486L39.4309 131.42C39.2325 131.309 39.0073 131.25 38.778 131.25C38.5488 131.25 38.3236 131.309 38.125 131.42L27.0649 137.638C26.7674 137.808 26.551 138.085 26.4628 138.41C26.3747 138.735 26.422 139.08 26.5945 139.371C26.7668 139.662 27.0504 139.874 27.3832 139.962C27.716 140.05 28.071 140.006 28.3708 139.84L38.778 133.99L74.9443 154.322V194.984L51.5469 208.137C51.2494 208.307 51.033 208.585 50.9449 208.909C50.8567 209.234 50.904 209.579 51.0764 209.87C51.2489 210.16 51.5325 210.374 51.8652 210.461C52.198 210.549 52.5531 210.506 52.8529 210.34L76.9029 196.819C77.1011 196.708 77.266 196.547 77.381 196.354C77.4952 196.16 77.5558 195.942 77.5558 195.718V153.587C77.5558 153.364 77.4959 153.144 77.381 152.951C77.2667 152.758 77.1018 152.597 76.9029 152.486ZM47.1501 210.609L38.778 215.315L2.6118 194.984V154.322L23.9738 142.312C24.2712 142.142 24.4877 141.865 24.5758 141.54C24.6639 141.216 24.6166 140.87 24.4443 140.579C24.2718 140.289 23.9883 140.076 23.6554 139.988C23.3227 139.9 22.9677 139.944 22.6679 140.11L0.652952 152.486C0.454434 152.597 0.289583 152.758 0.174966 152.951C0.0603493 153.144 5.82331e-06 153.364 0 153.587V195.718C5.82331e-06 195.942 0.0603493 196.16 0.174966 196.354C0.289583 196.547 0.454434 196.708 0.652952 196.819L38.1249 217.885C38.3234 217.997 38.5486 218.056 38.7778 218.056C39.007 218.056 39.2323 217.997 39.4308 217.885L48.4557 212.812C48.7519 212.641 48.9669 212.364 49.0542 212.04C49.1415 211.716 49.094 211.372 48.922 211.081C48.75 210.791 48.4674 210.579 48.1357 210.49C47.8039 210.402 47.4497 210.444 47.1501 210.609Z" fill="#51EEDA"/>
<path d="M52.0492 174.305L57.7518 168.689L63.4543 174.305L57.7518 179.92L52.0492 174.305ZM14.1006 174.303L19.8031 168.688L25.5061 174.303L19.8035 179.919L14.1006 174.303ZM38.7823 187.38L29.3278 178.069L23.6253 183.685L38.7823 198.611L53.9393 183.685L48.2367 178.069L38.7823 187.38ZM38.7823 161.231L48.2367 170.542L53.9393 164.926L38.7823 150L23.6253 164.926L29.3278 170.542L38.7823 161.231Z" fill="white"/>
<path d="M33.1426 174.305L38.774 168.76L44.4053 174.305L38.774 179.851L33.1426 174.305Z" fill="white"/>
<path d="M311.031 64.0489V22.7554C311.031 22.6281 310.997 22.503 310.931 22.3927C310.867 22.2824 310.772 22.1908 310.659 22.1271L273.932 1.48047C273.819 1.41681 273.69 1.3833 273.559 1.3833C273.429 1.3833 273.3 1.41681 273.187 1.48047L236.46 22.1273C236.347 22.1909 236.253 22.2825 236.187 22.3928C236.122 22.5031 236.088 22.6282 236.088 22.7556V64.049C236.088 64.3082 236.23 64.5477 236.46 64.6773L273.187 85.3241C273.3 85.388 273.429 85.4214 273.559 85.4214C273.69 85.4214 273.819 85.388 273.932 85.3241L310.659 64.6773C310.772 64.6137 310.867 64.5221 310.931 64.4117C310.997 64.3014 311.031 64.1762 311.031 64.0489Z" fill="#1E2121"/>
<path d="M310.66 22.1273L273.933 1.48047C273.819 1.41681 273.691 1.3833 273.561 1.3833C273.43 1.3833 273.301 1.41681 273.188 1.48047L269.998 3.27371L303.535 22.1273C303.649 22.1909 303.743 22.2825 303.808 22.3928C303.874 22.503 303.908 22.6281 303.908 22.7554V64.0489C303.908 64.1762 303.874 64.3013 303.808 64.4116C303.743 64.5219 303.649 64.6134 303.535 64.6772L269.998 83.5304L273.188 85.3241C273.301 85.3873 273.43 85.4214 273.561 85.4214C273.691 85.4214 273.819 85.3873 273.933 85.3241L310.66 64.6772C310.773 64.6135 310.867 64.5219 310.933 64.4116C310.998 64.3013 311.033 64.1762 311.032 64.0489V22.7554C311.033 22.6281 310.998 22.503 310.933 22.3928C310.867 22.2825 310.773 22.1909 310.66 22.1273Z" fill="#141616"/>
<path d="M311.685 21.236L274.213 0.170383C274.015 0.0587638 273.789 0 273.56 0C273.331 0 273.106 0.0587638 272.907 0.170383L261.847 6.38799C261.55 6.55781 261.333 6.83531 261.245 7.15993C261.157 7.48458 261.204 7.82993 261.377 8.12076C261.549 8.41153 261.833 8.6241 262.166 8.71208C262.499 8.80007 262.853 8.75632 263.153 8.59035L273.56 2.73979L309.727 23.0713V63.7342L286.329 76.8875C286.032 77.057 285.815 77.3347 285.727 77.659C285.639 77.984 285.686 78.3292 285.858 78.6201C286.031 78.9104 286.315 79.1236 286.647 79.2111C286.98 79.2993 287.335 79.2556 287.635 79.0896L311.685 65.5694C311.883 65.4578 312.048 65.2974 312.163 65.104C312.277 64.9108 312.338 64.6915 312.338 64.4683V22.3372C312.338 22.114 312.278 21.8947 312.163 21.7014C312.049 21.5081 311.884 21.3476 311.685 21.236ZM281.932 79.359L273.56 84.0653L237.394 63.7342V23.0713L258.756 11.0623C259.054 10.8924 259.27 10.6149 259.358 10.2903C259.446 9.96569 259.399 9.62028 259.226 9.32951C259.054 9.03875 258.77 8.82611 258.437 8.7382C258.105 8.65021 257.75 8.69396 257.45 8.85993L235.435 21.236C235.237 21.3476 235.072 21.5081 234.957 21.7014C234.843 21.8947 234.782 22.114 234.782 22.3372V64.4683C234.782 64.6915 234.843 64.9108 234.957 65.104C235.072 65.2974 235.237 65.4578 235.435 65.5694L272.907 86.6347C273.105 86.7465 273.331 86.8056 273.56 86.8056C273.789 86.8056 274.014 86.7465 274.213 86.6347L283.238 81.5618C283.534 81.391 283.749 81.1139 283.836 80.7896C283.924 80.466 283.876 80.1215 283.704 79.8313C283.532 79.541 283.25 79.3292 282.918 79.2403C282.586 79.1521 282.232 79.1945 281.932 79.359Z" fill="#51EEDA"/>
<path d="M259.459 43.4452L273.557 51.0022V22.2222L259.459 43.4452Z" fill="white"/>
<path d="M273.558 22.2222V51.0022L287.65 43.4452L273.558 22.2222Z" fill="#EAEAEA"/>
<path d="M259.459 45.8687L273.557 63.8889V53.4257L259.459 45.8687Z" fill="white"/>
<path d="M273.558 53.4257V63.8889L287.661 45.8687L273.558 53.4257Z" fill="#D0D0D0"/>
<path opacity="0.1" d="M273.557 37.6279L259.459 43.4453L273.557 51.0023L287.65 43.4453L273.557 37.6279Z" fill="black"/>
<path d="M173.547 64.0489V22.7554C173.547 22.6281 173.513 22.503 173.447 22.3927C173.382 22.2824 173.288 22.1908 173.175 22.1271L136.447 1.48047C136.334 1.41681 136.206 1.3833 136.075 1.3833C135.945 1.3833 135.815 1.41681 135.703 1.48047L98.9758 22.1273C98.8623 22.1909 98.7685 22.2825 98.7029 22.3928C98.6374 22.5031 98.6035 22.6282 98.6035 22.7556V64.049C98.6035 64.3082 98.7452 64.5477 98.9758 64.6773L135.703 85.3241C135.815 85.388 135.945 85.4214 136.075 85.4214C136.206 85.4214 136.334 85.388 136.447 85.3241L173.174 64.6773C173.288 64.6137 173.382 64.5221 173.447 64.4117C173.513 64.3014 173.547 64.1762 173.547 64.0489Z" fill="#1E2121"/>
<path d="M173.174 22.1273L136.448 1.48047C136.334 1.41681 136.206 1.3833 136.075 1.3833C135.944 1.3833 135.816 1.41681 135.702 1.48047L132.513 3.27371L166.05 22.1273C166.163 22.1909 166.257 22.2825 166.323 22.3928C166.388 22.503 166.422 22.6281 166.422 22.7554V64.0489C166.422 64.1762 166.388 64.3013 166.323 64.4116C166.257 64.5219 166.163 64.6134 166.05 64.6772L132.513 83.5304L135.702 85.3241C135.816 85.3873 135.944 85.4214 136.075 85.4214C136.206 85.4214 136.334 85.3873 136.448 85.3241L173.174 64.6772C173.288 64.6135 173.382 64.5219 173.447 64.4116C173.513 64.3013 173.547 64.1762 173.547 64.0489V22.7554C173.547 22.6281 173.513 22.503 173.447 22.3928C173.382 22.2825 173.288 22.1909 173.174 22.1273Z" fill="#141616"/>
<path d="M174.2 21.236L136.728 0.170383C136.53 0.0587638 136.304 0 136.075 0C135.846 0 135.621 0.0587638 135.422 0.170383L124.362 6.38799C124.064 6.55781 123.848 6.83531 123.76 7.15993C123.671 7.48458 123.719 7.82993 123.891 8.12076C124.064 8.41153 124.348 8.6241 124.68 8.71208C125.013 8.80007 125.368 8.75632 125.667 8.59035L136.075 2.73979L172.241 23.0713V63.7342L148.844 76.8875C148.546 77.057 148.33 77.3347 148.242 77.659C148.154 77.984 148.201 78.3292 148.373 78.6201C148.546 78.9104 148.829 79.1236 149.162 79.2111C149.495 79.2993 149.85 79.2556 150.15 79.0896L174.2 65.5694C174.398 65.4578 174.563 65.2974 174.678 65.104C174.792 64.9108 174.853 64.6915 174.853 64.4683V22.3372C174.853 22.114 174.793 21.8947 174.678 21.7014C174.564 21.5081 174.399 21.3476 174.2 21.236ZM144.447 79.359L136.075 84.0653L99.9084 63.7342V23.0713L121.271 11.0623C121.568 10.8924 121.785 10.6149 121.873 10.2903C121.961 9.96569 121.914 9.62028 121.741 9.32951C121.569 9.03875 121.285 8.82611 120.952 8.7382C120.619 8.65021 120.265 8.69396 119.965 8.85993L97.9498 21.236C97.7516 21.3476 97.5867 21.5081 97.4717 21.7014C97.3575 21.8947 97.2969 22.114 97.2969 22.3372V64.4683C97.2969 64.6915 97.3575 64.9108 97.4717 65.104C97.5867 65.2974 97.7516 65.4578 97.9498 65.5694L135.422 86.6347C135.62 86.7465 135.846 86.8056 136.075 86.8056C136.304 86.8056 136.529 86.7465 136.728 86.6347L145.752 81.5618C146.048 81.391 146.264 81.1139 146.351 80.7896C146.438 80.466 146.391 80.1215 146.219 79.8313C146.047 79.541 145.764 79.3292 145.432 79.2403C145.101 79.1521 144.747 79.1945 144.447 79.359Z" fill="#51EEDA"/>
<mask id="mask0_487_1060" style="mask-type:luminance" maskUnits="userSpaceOnUse" x="111" y="20" width="50" height="49">
<path d="M160.752 20.1387H111.398V68.7498H160.752V20.1387Z" fill="white"/>
</mask>
<g mask="url(#mask0_487_1060)">
<path d="M115.859 34.9164V53.9719C115.859 55.1969 116.511 56.3053 117.597 56.9275L134.357 66.4553C135.423 67.058 136.746 67.058 137.812 66.4553L154.572 56.9275C155.638 56.3247 156.31 55.1969 156.31 53.9719V34.9164C156.31 33.6914 155.658 32.583 154.572 31.9608L137.812 22.433C136.746 21.8303 135.423 21.8303 134.357 22.433L117.597 31.9608C116.531 32.5636 115.879 33.6914 115.879 34.9164H115.859Z" fill="#1E2121"/>
<path d="M139.728 48.1385L137.339 54.594C137.28 54.769 137.28 54.9635 137.339 55.1579L141.446 66.2607L146.203 63.5579L140.498 48.1385C140.36 47.7885 139.866 47.7885 139.728 48.1385Z" fill="white"/>
<path d="M144.524 37.2884C144.386 36.9384 143.893 36.9384 143.754 37.2884L141.366 43.7439C141.306 43.9189 141.306 44.1134 141.366 44.3078L148.098 62.4884L152.855 59.7856L144.524 37.3078V37.2884Z" fill="white"/>
<path d="M136.076 23.1526C136.194 23.1526 136.313 23.1914 136.411 23.2498L154.534 33.5553C154.751 33.672 154.87 33.9053 154.87 34.1387V54.7498C154.87 54.9831 154.731 55.2164 154.534 55.3331L136.411 65.6387C136.313 65.697 136.194 65.7359 136.076 65.7359C135.957 65.7359 135.839 65.697 135.74 65.6387L117.617 55.3331C117.4 55.2164 117.282 54.9831 117.282 54.7498V34.1192C117.282 33.8859 117.42 33.6526 117.617 33.5359L135.74 23.2303C135.839 23.172 135.957 23.1331 136.076 23.1331V23.1526ZM136.076 20.1387C135.424 20.1387 134.793 20.2942 134.2 20.6248L116.078 30.9303C114.913 31.5915 114.202 32.797 114.202 34.1192V54.7303C114.202 56.0526 114.913 57.2581 116.078 57.9192L134.2 68.2248C134.773 68.5553 135.424 68.7109 136.076 68.7109C136.727 68.7109 137.359 68.5553 137.951 68.2248L156.074 57.9192C157.239 57.2581 157.949 56.0526 157.949 54.7303V34.1192C157.949 32.797 157.239 31.5915 156.074 30.9303L137.931 20.6248C137.359 20.2942 136.707 20.1387 136.056 20.1387H136.076Z" fill="white"/>
<path d="M124.073 62.5082L125.751 57.9971L129.107 60.7387L125.968 63.5776L124.073 62.5082Z" fill="#1E2121"/>
<path d="M134.536 32.661H129.936C129.601 32.661 129.285 32.8749 129.166 33.186L119.315 59.7861L124.073 62.4888L134.931 33.186C135.03 32.9138 134.832 32.6416 134.556 32.6416L134.536 32.661Z" fill="white"/>
<path d="M142.59 32.661H137.99C137.655 32.661 137.339 32.8749 137.22 33.186L125.968 63.5583L130.725 66.261L142.965 33.186C143.064 32.9138 142.866 32.6416 142.59 32.6416V32.661Z" fill="white"/>
</g>
<path d="M174.956 327.244V285.95C174.956 285.823 174.922 285.698 174.856 285.587C174.791 285.477 174.697 285.385 174.584 285.321L137.856 264.675C137.744 264.611 137.615 264.578 137.484 264.578C137.354 264.578 137.225 264.611 137.112 264.675L100.385 285.322C100.271 285.385 100.178 285.477 100.112 285.587C100.047 285.698 100.013 285.823 100.013 285.95V327.244C100.013 327.503 100.154 327.742 100.385 327.872L137.112 348.519C137.225 348.583 137.354 348.616 137.484 348.616C137.615 348.616 137.744 348.583 137.856 348.519L174.583 327.872C174.697 327.808 174.791 327.717 174.856 327.606C174.922 327.496 174.956 327.371 174.956 327.244Z" fill="#1E2121"/>
<path d="M174.956 327.244V285.95C174.956 285.823 174.922 285.698 174.856 285.587C174.791 285.477 174.697 285.385 174.584 285.321L137.856 264.675C137.744 264.611 137.615 264.578 137.484 264.578C137.354 264.578 137.225 264.611 137.112 264.675L100.385 285.322C100.271 285.385 100.178 285.477 100.112 285.587C100.047 285.698 100.013 285.823 100.013 285.95V327.244C100.013 327.503 100.154 327.742 100.385 327.872L137.112 348.519C137.225 348.583 137.354 348.616 137.484 348.616C137.615 348.616 137.744 348.583 137.856 348.519L174.583 327.872C174.697 327.808 174.791 327.717 174.856 327.606C174.922 327.496 174.956 327.371 174.956 327.244Z" fill="#1E2121"/>
<path d="M174.585 285.322L137.858 264.675C137.744 264.611 137.616 264.578 137.485 264.578C137.354 264.578 137.226 264.611 137.113 264.675L133.923 266.468L167.46 285.322C167.574 285.385 167.667 285.477 167.733 285.587C167.799 285.698 167.832 285.823 167.832 285.95V327.244C167.832 327.371 167.799 327.496 167.733 327.606C167.667 327.717 167.574 327.808 167.46 327.871L133.923 346.725L137.113 348.519C137.226 348.582 137.354 348.616 137.485 348.616C137.616 348.616 137.744 348.582 137.858 348.519L174.585 327.871C174.698 327.808 174.792 327.717 174.858 327.606C174.923 327.496 174.958 327.371 174.957 327.244V285.95C174.958 285.823 174.923 285.698 174.858 285.587C174.792 285.477 174.698 285.385 174.585 285.322Z" fill="#141616"/>
<path d="M175.61 284.43L138.138 263.364C137.94 263.253 137.714 263.194 137.485 263.194C137.256 263.194 137.031 263.253 136.832 263.364L125.772 269.583C125.474 269.752 125.258 270.03 125.17 270.354C125.082 270.679 125.129 271.024 125.302 271.315C125.474 271.606 125.758 271.819 126.091 271.906C126.423 271.994 126.778 271.951 127.078 271.785L137.485 265.934L173.651 286.266V326.928L150.254 340.082C149.957 340.251 149.74 340.529 149.652 340.853C149.564 341.178 149.611 341.524 149.783 341.814C149.956 342.105 150.239 342.318 150.572 342.405C150.905 342.494 151.26 342.45 151.56 342.284L175.61 328.764C175.808 328.652 175.973 328.492 176.088 328.299C176.202 328.105 176.263 327.886 176.263 327.662V285.531C176.263 285.308 176.203 285.089 176.088 284.896C175.974 284.703 175.809 284.542 175.61 284.43ZM145.857 342.553L137.485 347.26L101.319 326.928V286.266L122.681 274.257C122.978 274.087 123.195 273.81 123.283 273.485C123.371 273.16 123.324 272.814 123.151 272.523C122.979 272.233 122.695 272.021 122.362 271.933C122.029 271.844 121.675 271.888 121.375 272.054L99.3599 284.43C99.1618 284.542 98.9968 284.703 98.8819 284.896C98.7677 285.089 98.707 285.308 98.707 285.531V327.662C98.707 327.886 98.7677 328.105 98.8819 328.299C98.9968 328.492 99.1618 328.652 99.3599 328.764L136.832 349.829C137.03 349.941 137.256 350 137.485 350C137.714 350 137.939 349.941 138.138 349.829L147.162 344.756C147.459 344.585 147.674 344.308 147.761 343.984C147.849 343.66 147.801 343.316 147.629 343.026C147.457 342.735 147.174 342.523 146.842 342.435C146.511 342.346 146.157 342.389 145.857 342.553Z" fill="#51EEDA"/>
<path d="M150.159 298.289H145.974C145.486 298.289 145.022 298.083 144.7 297.725L143.002 295.836C142.749 295.554 142.385 295.394 142.003 295.394C141.623 295.394 141.258 295.555 141.006 295.836L139.55 297.456C139.073 297.986 138.389 298.291 137.67 298.291H114.762C114.109 300.122 113.684 302.057 113.514 304.064H135.14C135.52 304.064 135.885 303.911 136.147 303.641L138.161 301.571C138.413 301.312 138.76 301.166 139.123 301.166H139.206C139.588 301.166 139.952 301.328 140.204 301.61L141.901 303.498C142.223 303.858 142.687 304.064 143.175 304.064H160.828C160.658 302.056 160.233 300.121 159.58 298.291H150.158L150.159 298.289Z" fill="white"/>
<path d="M126.601 316.203C126.981 316.203 127.345 316.05 127.608 315.78L129.621 313.71C129.873 313.451 130.22 313.305 130.584 313.305H130.666C131.049 313.305 131.412 313.466 131.665 313.748L133.361 315.637C133.684 315.996 134.148 316.201 134.636 316.201H158.558C159.454 314.378 160.111 312.421 160.502 310.37H137.539C137.052 310.37 136.588 310.164 136.265 309.805L134.568 307.916C134.316 307.635 133.951 307.474 133.57 307.474C133.19 307.474 132.825 307.635 132.573 307.916L131.117 309.537C130.64 310.066 129.956 310.371 129.237 310.371H113.839C114.229 312.421 114.887 314.378 115.783 316.203H126.6H126.601Z" fill="white"/>
<path d="M143.572 291.98C143.952 291.98 144.317 291.827 144.579 291.557L146.593 289.487C146.844 289.228 147.192 289.082 147.555 289.082H147.638C148.02 289.082 148.383 289.244 148.636 289.526L150.333 291.415C150.655 291.775 151.119 291.98 151.607 291.98H156.157C151.824 286.308 144.934 282.639 137.171 282.639C129.408 282.639 122.518 286.308 118.185 291.98H143.572Z" fill="white"/>
<path d="M134.434 321.982H128.213C127.725 321.982 127.261 321.776 126.938 321.417L125.241 319.528C124.988 319.246 124.624 319.085 124.243 319.085C123.862 319.085 123.498 319.247 123.245 319.528L121.789 321.149C121.313 321.679 120.628 321.983 119.909 321.983H119.812C124.146 326.557 130.318 329.42 137.172 329.42C144.025 329.42 150.196 326.557 154.531 321.983H134.434V321.982Z" fill="white"/>
</g>
<defs>
<linearGradient id="paint0_linear_487_1060" x1="600.672" y1="220.635" x2="600.672" y2="132.078" gradientUnits="userSpaceOnUse">
<stop stop-color="#4AFEBF"/>
<stop offset="1" stop-color="#51EEDA"/>
</linearGradient>
<linearGradient id="paint1_linear_487_1060" x1="570.553" y1="112.5" x2="570.553" y2="240.211" gradientUnits="userSpaceOnUse">
<stop stop-color="#4AFEBF"/>
<stop offset="1" stop-color="#51EEDA"/>
</linearGradient>
<linearGradient id="paint2_linear_487_1060" x1="651.986" y1="223.027" x2="651.986" y2="129.685" gradientUnits="userSpaceOnUse">
<stop stop-color="#4AFEBF"/>
<stop offset="1" stop-color="#51EEDA"/>
</linearGradient>
<clipPath id="clip0_487_1060">
<rect width="1200" height="350" fill="white"/>
</clipPath>
</defs>
</svg>
