<svg width="128" height="113" viewBox="0 0 128 113" fill="none" xmlns="http://www.w3.org/2000/svg">
<path d="M80.1383 87.8405C79.9355 87.0292 79.4673 86.3089 78.8081 85.7942C78.1489 85.2796 77.3366 85 76.5003 85H51.5003C50.664 85 49.8517 85.2796 49.1925 85.7942C48.5334 86.3089 48.0651 87.0292 47.8623 87.8405L42.8623 107.84H85.1383L80.1383 87.8405Z" fill="white"/>
<path d="M76.5 85H64V107.84H85.138L80.138 87.8405C79.9352 87.0292 79.467 86.3089 78.8078 85.7942C78.1486 85.2796 77.3363 85 76.5 85Z" fill="white"/>
<path d="M116.75 0H11.25C5.04675 0 0 5.04675 0 11.25V81.25C0 87.4532 5.04675 92.5 11.25 92.5H116.75C122.953 92.5 128 87.4532 128 81.25V11.25C128 5.04675 122.953 0 116.75 0Z" fill="white"/>
<path d="M116.75 0H64V92.5H116.75C122.953 92.5 128 87.4532 128 81.25V11.25C128 5.04675 122.953 0 116.75 0Z" fill="white"/>
<path d="M116.75 7.5H11.25C9.18225 7.5 7.5 9.18225 7.5 11.25V83.5H120.5V11.25C120.5 9.18225 118.818 7.5 116.75 7.5Z" fill="#141616"/>
<path d="M116.75 7.5H64V73.75H120.5V11.25C120.5 9.18225 118.818 7.5 116.75 7.5Z" fill="#141616"/>
<path d="M89 112.5H39C36.929 112.5 35.25 110.821 35.25 108.75C35.25 106.679 36.929 105 39 105H89C91.071 105 92.75 106.679 92.75 108.75C92.75 110.821 91.071 112.5 89 112.5Z" fill="white"/>
<path d="M89 105H64V112.5H89C91.071 112.5 92.75 110.821 92.75 108.75C92.75 106.679 91.071 105 89 105Z" fill="white"/>
<path d="M64 67.5C61.929 67.5 60.25 65.821 60.25 63.75V23.75C60.25 21.679 61.929 20 64 20C66.071 20 67.75 21.679 67.75 23.75V63.75C67.75 65.821 66.071 67.5 64 67.5Z" fill="white"/>
<path d="M67.75 63.75V23.75C67.75 21.679 66.071 20 64 20V67.5C66.071 67.5 67.75 65.821 67.75 63.75Z" fill="white"/>
<path d="M34 67.5C31.929 67.5 30.25 65.821 30.25 63.75V31.25C30.25 29.179 31.929 27.5 34 27.5C36.071 27.5 37.75 29.179 37.75 31.25V63.75C37.75 65.821 36.071 67.5 34 67.5Z" fill="white"/>
<path d="M94 62.5C91.929 62.5 90.25 60.821 90.25 58.75V28.75C90.25 26.679 91.929 25 94 25C96.071 25 97.75 26.679 97.75 28.75V58.75C97.75 60.821 96.071 62.5 94 62.5Z" fill="white"/>
<path d="M39 60H29C26.929 60 25.25 58.321 25.25 56.25V38.75C25.25 36.679 26.929 35 29 35H39C41.071 35 42.75 36.679 42.75 38.75V56.25C42.75 58.321 41.071 60 39 60ZM69 60H59C56.929 60 55.25 58.321 55.25 56.25V31.25C55.25 29.179 56.929 27.5 59 27.5H69C71.071 27.5 72.75 29.179 72.75 31.25V56.25C72.75 58.321 71.071 60 69 60Z" fill="#4AFEBF"/>
<path d="M64 60H69C71.071 60 72.75 58.321 72.75 56.25V31.25C72.75 29.179 71.071 27.5 69 27.5H64V60Z" fill="#3FD09D"/>
<path d="M99 55H89C86.929 55 85.25 53.321 85.25 51.25V36.25C85.25 34.179 86.929 32.5 89 32.5H99C101.071 32.5 102.75 34.179 102.75 36.25V51.25C102.75 53.321 101.071 55 99 55Z" fill="#D84747"/>
</svg>
