<svg width="129" height="129" viewBox="0 0 129 129" fill="none" xmlns="http://www.w3.org/2000/svg">
<g clip-path="url(#clip0_481_671)">
<path d="M0 91.2438V5.2439C0 2.3477 2.3477 0 5.2439 0H91.2438C94.14 0 96.4877 2.3477 96.4877 5.2439V96.4877H5.2439C2.3477 96.4877 0 94.14 0 91.2438Z" fill="white"/>
<path d="M88.6224 0V52.9414C88.6224 55.1815 87.1396 57.1394 84.9928 57.7781C68.3107 62.7406 56.1104 78.2158 56.1104 96.488H96.4884V5.2439C96.4881 2.3477 94.1404 0 91.2442 0H88.6224Z" fill="white"/>
<path d="M85.4759 8.39014H11.0124C9.56448 8.39014 8.39062 9.56399 8.39062 11.012V85.4754C8.39062 86.9234 9.56448 88.0973 11.0124 88.0973H17.5113L43.7326 81.739L68.4893 88.0973H88.0978V11.012C88.0978 9.56399 86.9239 8.39014 85.4759 8.39014Z" fill="#1E2121"/>
<path d="M85.4757 8.39014H80.2318V57.8599C80.2318 58.8538 79.6755 59.7717 78.7828 60.2091C68.6331 65.1816 60.8667 74.2892 57.6865 85.323L68.489 88.0973H88.0975V11.012C88.0975 9.56399 86.9237 8.39014 85.4757 8.39014Z" fill="#1E2121"/>
<path d="M64.3211 64.3381C63.699 60.7928 60.6201 58.207 57.021 58.207H28.9801C25.381 58.207 22.3019 60.7928 21.68 64.3381L17.5117 88.0972H37.7567L43.0006 83.9692L48.2445 88.0972H68.4894L64.3211 64.3381Z" fill="#51EEDA"/>
<path d="M64.3204 64.3381C63.6983 60.7928 60.6194 58.207 57.0203 58.207H49.1543C52.7534 58.207 55.8326 60.7928 56.4544 64.3381L60.6227 88.0972H68.4887L64.3204 64.3381Z" fill="#28BCA9"/>
<path d="M37.7559 58.207H48.2437V88.0972H37.7559V58.207Z" fill="white"/>
<path d="M37.7566 29.366V36.0941C36.23 36.6346 35.1348 38.0868 35.1348 39.7983C35.1348 41.5101 36.2303 42.9621 37.7566 43.5026V58.2073C37.7566 61.1035 40.1043 63.4512 43.0005 63.4512C45.8967 63.4512 48.2444 61.1035 48.2444 58.2073V55.4829L46.4921 53.5933L48.2444 51.7036H52.964C57.5979 51.7036 61.3543 47.9473 61.3543 43.3133V29.3657L37.7566 29.366Z" fill="#F6A678"/>
<path d="M54.0125 29.366V45.9354C54.0125 48.1705 53.1367 50.2 51.7119 51.7036H52.9639C57.5978 51.7036 61.3542 47.9473 61.3542 43.3133V29.3657L54.0125 29.366Z" fill="#DD8958"/>
<path d="M61.3535 29.366H37.7559V28.0551C37.7559 21.5388 43.0383 16.2563 49.5546 16.2563C56.0708 16.2563 61.3533 21.5388 61.3533 28.0551L61.3535 29.366Z" fill="white"/>
<path d="M49.5545 16.2559C48.2726 16.2559 47.0395 16.463 45.8838 16.8411C50.6021 18.3849 54.0118 22.8202 54.0118 28.0546V29.3655H61.3532V28.0546C61.3532 21.5386 56.0708 16.2559 49.5545 16.2559Z" fill="#E0E0E0"/>
<path d="M96.4879 129C114.444 129 129 114.444 129 96.4879C129 78.5318 114.444 63.9756 96.4879 63.9756C78.5318 63.9756 63.9756 78.5318 63.9756 96.4879C63.9756 114.444 78.5318 129 96.4879 129Z" fill="#51EEDA"/>
<path d="M113.147 68.5645C116.06 73.4367 117.736 79.1341 117.736 85.2236C117.736 103.18 103.18 117.736 85.2236 117.736C79.1341 117.736 73.4367 116.06 68.5645 113.147C74.2415 122.641 84.6214 129 96.4879 129C114.444 129 129 114.444 129 96.4877C129 84.6212 122.642 74.2412 113.147 68.5645Z" fill="#28BCA9"/>
<path d="M96.4881 121.134C110.1 121.134 121.134 110.099 121.134 96.4876C121.134 82.8758 110.1 71.8413 96.4881 71.8413C82.8763 71.8413 71.8418 82.8758 71.8418 96.4876C71.8418 110.099 82.8763 121.134 96.4881 121.134Z" fill="white"/>
<path d="M117.711 83.9692C117.726 84.3855 117.736 84.8032 117.736 85.2232C117.736 103.179 103.18 117.735 85.2237 117.735C84.8037 117.735 84.386 117.726 83.9697 117.71C87.6409 119.884 91.9209 121.134 96.488 121.134C110.078 121.134 121.134 110.078 121.134 96.4878C121.134 91.9206 119.884 87.6407 117.711 83.9692Z" fill="#E0E0E0"/>
<path d="M109.597 101.945V91.0303C109.597 90.4487 109.443 89.8776 109.149 89.3756C108.855 88.8736 108.434 88.4588 107.927 88.1736L98.0945 82.643C97.6039 82.3671 97.0505 82.2222 96.4877 82.2222C95.9248 82.2222 95.3714 82.3671 94.8808 82.643L85.0486 88.1736C84.5417 88.4587 84.1198 88.8736 83.8262 89.3756C83.5326 89.8776 83.3779 90.4487 83.3779 91.0303V101.945C83.378 102.527 83.5327 103.098 83.8263 103.6C84.1199 104.102 84.5418 104.517 85.0486 104.802L94.8808 110.332C95.3714 110.608 95.9248 110.753 96.4877 110.753C97.0505 110.753 97.6039 110.608 98.0945 110.332L107.927 104.802C108.434 104.517 108.855 104.102 109.149 103.6C109.443 103.098 109.597 102.527 109.597 101.945Z" fill="#51EEDA"/>
<path d="M91.2441 98.0351V94.9411C91.2441 94.5689 91.3431 94.2034 91.5311 93.8821C91.719 93.5608 91.989 93.2953 92.3134 93.1129L95.4598 91.3432C95.7738 91.1665 96.1279 91.0737 96.4882 91.0737C96.8484 91.0737 97.2026 91.1665 97.5165 91.3432L100.663 93.1129C100.987 93.2954 101.257 93.5609 101.445 93.8821C101.633 94.2034 101.732 94.5689 101.732 94.9411V98.0351C101.732 98.4073 101.633 98.7728 101.445 99.094C101.257 99.4153 100.987 99.6808 100.663 99.8632L97.5165 101.633C97.2026 101.81 96.8484 101.902 96.4882 101.902C96.1279 101.902 95.7738 101.81 95.4598 101.633L92.3134 99.8632C91.9891 99.6807 91.7191 99.4152 91.5312 99.094C91.3433 98.7727 91.2442 98.4072 91.2441 98.0351Z" fill="white"/>
<path d="M68.4886 31.2554H37.7559C37.2547 31.2554 36.7741 31.0563 36.4197 30.7019C36.0653 30.3475 35.8662 29.8669 35.8662 29.3657C35.8662 28.8646 36.0653 28.3839 36.4197 28.0295C36.7741 27.6752 37.2547 27.4761 37.7559 27.4761H68.4888C68.737 27.4761 68.9827 27.525 69.212 27.62C69.4412 27.7149 69.6495 27.8541 69.825 28.0296C70.0005 28.2051 70.1396 28.4134 70.2346 28.6427C70.3295 28.872 70.3784 29.1177 70.3784 29.3658C70.3784 29.614 70.3295 29.8597 70.2345 30.089C70.1395 30.3182 70.0003 30.5265 69.8248 30.702C69.6493 30.8775 69.441 31.0166 69.2117 31.1116C68.9825 31.2065 68.7367 31.2554 68.4886 31.2554Z" fill="#51EEDA"/>
<path d="M39.0668 45.6209C35.8561 45.6209 33.2441 43.0089 33.2441 39.7982C33.2441 36.5876 35.8561 33.9756 39.0668 33.9756C39.5679 33.9756 40.0486 34.1747 40.403 34.5291C40.7573 34.8834 40.9564 35.3641 40.9564 35.8652C40.9564 36.3664 40.7573 36.847 40.403 37.2014C40.0486 37.5558 39.5679 37.7549 39.0668 37.7549C37.94 37.7549 37.0234 38.6715 37.0234 39.7982C37.0234 40.925 37.94 41.8416 39.0668 41.8416C39.5679 41.8416 40.0486 42.0407 40.403 42.395C40.7573 42.7494 40.9564 43.23 40.9564 43.7312C40.9564 44.2324 40.7573 44.713 40.403 45.0674C40.0486 45.4218 39.5679 45.6209 39.0668 45.6209ZM43.7319 53.5932C43.7319 54.0943 43.931 54.575 44.2854 54.9293C44.6398 55.2837 45.1204 55.4828 45.6216 55.4828H48.2434V51.7035H45.6216C45.1204 51.7035 44.6398 51.9026 44.2854 52.257C43.931 52.6114 43.7319 53.092 43.7319 53.5932Z" fill="#DD8958"/>
<path d="M57.8879 74.3955H56.1098C55.6087 74.3955 55.128 74.1964 54.7737 73.842C54.4193 73.4877 54.2202 73.007 54.2202 72.5059C54.2202 72.0047 54.4193 71.5241 54.7737 71.1697C55.128 70.8153 55.6087 70.6162 56.1098 70.6162H57.8879C58.389 70.6162 58.8697 70.8153 59.2241 71.1697C59.5784 71.5241 59.7775 72.0047 59.7775 72.5059C59.7775 73.007 59.5784 73.4877 59.2241 73.842C58.8697 74.1964 58.389 74.3955 57.8879 74.3955ZM29.8903 74.3955H28.1123C27.6111 74.3955 27.1305 74.1964 26.7761 73.842C26.4217 73.4877 26.2227 73.007 26.2227 72.5059C26.2227 72.0047 26.4217 71.5241 26.7761 71.1697C27.1305 70.8153 27.6111 70.6162 28.1123 70.6162H29.8903C30.3915 70.6162 30.8721 70.8153 31.2265 71.1697C31.5809 71.5241 31.78 72.0047 31.78 72.5059C31.78 73.007 31.5809 73.4877 31.2265 73.842C30.8721 74.1964 30.3915 74.3955 29.8903 74.3955Z" fill="white"/>
</g>
<defs>
<clipPath id="clip0_481_671">
<rect width="129" height="129" fill="white"/>
</clipPath>
</defs>
</svg>
