<svg width="129" height="129" viewBox="0 0 129 129" fill="none" xmlns="http://www.w3.org/2000/svg">
<path d="M47.4644 59.4156V74.0654L47.3838 74.1097L30.4172 64.8328C30.3815 64.8133 30.3516 64.7845 30.3308 64.7495C30.31 64.7145 30.2989 64.6745 30.2988 64.6338L30.545 50.0293L47.4644 59.4156Z" fill="#28BCA9"/>
<path d="M81.7044 74.1157V88.4839C81.7044 88.7124 81.5794 88.922 81.3786 89.0321L64.5391 98.2385V83.4992L81.7044 74.1157Z" fill="#00D48A"/>
<path d="M64.5393 98.2019V98.2382L47.6988 89.032C47.6005 88.9782 47.5184 88.8989 47.4613 88.8024C47.4041 88.706 47.374 88.5959 47.374 88.4838L47.3841 74.1099L64.5396 83.4989L64.5393 98.2019Z" fill="#00D48A"/>
<path d="M98.8734 50.0293L98.9608 64.5463C98.9608 64.6831 98.887 64.8091 98.7668 64.8739L81.7051 74.1155L81.7958 59.4156L98.8734 50.0293Z" fill="#28BCA9"/>
<path d="M81.7046 74.1158L64.6201 64.7729L64.6252 50.021L81.7953 59.4158L81.7046 74.1158Z" fill="#28BCA9"/>
<path d="M64.63 50.0293L64.6199 64.7726L47.3838 74.1097L47.4644 59.4158L64.63 50.0293Z" fill="#28BCA9"/>
<path d="M81.7954 59.4155L64.6299 50.0292L81.6979 40.6982C81.7281 40.6822 81.7617 40.6738 81.7958 40.6738C81.83 40.6738 81.8636 40.6822 81.8937 40.6982L98.8318 49.9584C98.8445 49.9653 98.8552 49.9754 98.8626 49.9878C98.87 50.0002 98.8739 50.0144 98.8739 50.0289C98.8739 50.0433 98.87 50.0575 98.8626 50.0699C98.8552 50.0823 98.8445 50.0925 98.8318 50.0993L81.7954 59.4155Z" fill="#51EEDA"/>
<path d="M47.4646 59.4155L30.6623 50.228C30.6268 50.2084 30.5971 50.1796 30.5765 50.1446C30.5558 50.1097 30.5449 50.0698 30.5449 50.0292C30.5449 49.9886 30.5558 49.9487 30.5765 49.9138C30.5971 49.8788 30.6268 49.85 30.6623 49.8304L47.3013 40.7346C47.3515 40.7075 47.4076 40.6934 47.4646 40.6934C47.5216 40.6934 47.5777 40.7075 47.6278 40.7346L64.6296 50.0292L47.4646 59.4155Z" fill="#51EEDA"/>
<path d="M64.5393 83.4986L47.3838 74.1096L64.6199 64.7725L81.7048 74.1154L64.5393 83.4986Z" fill="#4AFEBF"/>
<path d="M75.1101 118.976C74.6261 118.976 74.1594 118.796 73.8007 118.471C73.442 118.146 73.217 117.699 73.1694 117.218C73.1217 116.736 73.2549 116.254 73.543 115.865C73.8311 115.476 74.2535 115.208 74.7282 115.113C84.6055 113.128 93.6325 108.308 100.832 101.175C108.026 94.0466 112.93 85.0708 115.009 75.2189C115.059 74.9651 115.159 74.7238 115.302 74.5089C115.446 74.294 115.631 74.1098 115.847 73.9671C116.063 73.8244 116.304 73.726 116.558 73.6777C116.812 73.6293 117.074 73.6319 117.327 73.6853C117.58 73.7388 117.819 73.842 118.032 73.989C118.245 74.136 118.426 74.3238 118.566 74.5415C118.705 74.7592 118.8 75.0025 118.845 75.2572C118.889 75.5119 118.883 75.773 118.826 76.0252C116.589 86.6248 111.316 96.2797 103.578 103.947C95.835 111.618 86.125 116.802 75.4969 118.938C75.3695 118.964 75.2401 118.976 75.1101 118.976ZM53.3809 118.869C53.2472 118.869 53.1114 118.855 52.9753 118.825C42.3756 116.588 32.7208 111.315 25.0538 103.577C17.3821 95.8347 12.1984 86.1247 10.0626 75.4966C10.01 75.2446 10.0078 74.9847 10.0561 74.7319C10.1044 74.4791 10.2023 74.2384 10.3441 74.0236C10.4858 73.8087 10.6687 73.6241 10.8822 73.4803C11.0956 73.3365 11.3354 73.2363 11.5877 73.1856C11.8401 73.1349 12.0999 73.1346 12.3524 73.1848C12.6048 73.235 12.8448 73.3346 13.0586 73.478C13.2724 73.6213 13.4556 73.8056 13.5979 74.0201C13.7401 74.2346 13.8384 74.4751 13.8873 74.7279C15.8727 84.6062 20.692 93.6321 27.8253 100.831C34.9538 108.026 43.9297 112.929 53.7815 115.009C54.2531 115.109 54.671 115.38 54.9547 115.769C55.2384 116.159 55.3678 116.64 55.3181 117.119C55.2683 117.598 55.0429 118.043 54.6852 118.366C54.3275 118.689 53.8629 118.868 53.3809 118.869V118.869ZM12.0841 55.3295C11.7935 55.3297 11.5066 55.265 11.2442 55.1401C10.9819 55.0152 10.7508 54.8333 10.5677 54.6077C10.3846 54.3821 10.2542 54.1185 10.1861 53.836C10.1179 53.5536 10.1137 53.2595 10.1738 52.9752C12.4121 42.3756 17.6852 32.7215 25.423 25.0545C33.1655 17.3828 42.8758 12.1991 53.5039 10.0633C53.7551 10.0128 54.0138 10.0123 54.2652 10.0618C54.5167 10.1112 54.7559 10.2098 54.9692 10.3517C55.1825 10.4937 55.3658 10.6763 55.5086 10.8891C55.6513 11.1019 55.7508 11.3407 55.8012 11.5919C56.0128 12.6479 55.3288 13.6763 54.2726 13.888C44.3945 15.8731 35.3683 20.693 28.169 27.826C20.9745 34.9538 16.0712 43.9293 13.9916 53.7812C13.8991 54.2187 13.6592 54.6112 13.312 54.893C12.9649 55.1748 12.5312 55.3289 12.0841 55.3295ZM115.705 55.2987C115.254 55.2983 114.818 55.142 114.47 54.8564C114.122 54.5709 113.883 54.1736 113.795 53.7321C109.846 34.0855 94.6945 18.3876 75.1928 13.7413C74.1446 13.4914 73.4969 12.4392 73.7468 11.3921C73.8668 10.889 74.1817 10.4541 74.6222 10.183C75.0627 9.91196 75.5928 9.82685 76.096 9.94642C97.0731 14.9452 113.371 31.8298 117.619 52.9634C117.676 53.2466 117.669 53.539 117.599 53.8193C117.529 54.0996 117.398 54.3609 117.215 54.5843C117.032 54.8078 116.801 54.9878 116.54 55.1114C116.279 55.2349 115.994 55.299 115.705 55.299V55.2987Z" fill="#51EEDA"/>
<path d="M75.1637 118.077C75.1637 124.11 70.2722 129 64.2402 129C58.207 129 53.3166 124.11 53.3166 118.077C53.3166 112.043 58.207 107.153 64.2402 107.153C70.2722 107.153 75.1637 112.043 75.1637 118.077ZM21.8469 64.2402C21.8469 70.2722 16.9564 75.1637 10.9234 75.1637C4.89041 75.1637 0 70.2722 0 64.2405C0 58.2072 4.89041 53.3168 10.9234 53.3168C16.9567 53.3168 21.8471 58.2072 21.8471 64.2405L21.8469 64.2402ZM75.6834 10.9234C75.6834 16.9567 70.793 21.8471 64.7598 21.8471C58.7278 21.8471 53.8363 16.9567 53.8363 10.9234C53.8363 4.89041 58.7278 0 64.7595 0C70.7928 0 75.6832 4.89041 75.6832 10.9234H75.6834ZM129 64.7598C129 70.793 124.11 75.6834 118.077 75.6834C112.043 75.6834 107.153 70.793 107.153 64.7598C107.153 58.7278 112.043 53.8363 118.077 53.8363C124.11 53.8363 129 58.7278 129 64.7598Z" fill="#E0E0E0"/>
<path d="M63.9795 118.077C63.9795 113.979 66.2352 110.413 69.5716 108.544C67.9436 107.629 66.1074 107.15 64.2402 107.153C58.206 107.153 53.3166 112.042 53.3166 118.077C53.3166 124.111 58.2062 129 64.2405 129C66.1075 129.002 67.9436 128.524 69.5718 127.61C66.2355 125.741 63.9797 122.174 63.9797 118.076L63.9795 118.077ZM10.6637 64.2402C10.6637 60.143 12.9186 56.5753 16.255 54.7063C14.6267 53.7929 12.7907 53.3143 10.9237 53.3166C4.88915 53.3166 0 58.2062 0 64.2405C0 70.2748 4.8894 75.1639 10.9234 75.1639C12.7906 75.1664 14.6268 74.6874 16.2548 73.7731C12.9184 71.9044 10.6639 68.3375 10.6639 64.2405L10.6637 64.2402ZM64.5 10.9234C64.5 6.82643 66.7557 3.25877 70.0921 1.38953C68.4634 0.476283 66.627 -0.00225006 64.7598 7.95409e-06C58.7257 7.95409e-06 53.8363 4.88941 53.8363 10.9234C53.8363 16.9575 58.7257 21.8471 64.7598 21.8471C66.6272 21.8494 68.4637 21.3704 70.0921 20.4563C66.7557 18.5873 64.5 15.0207 64.5 10.9234ZM117.817 64.7598C117.817 60.6628 120.072 57.0959 123.408 55.2269C121.78 54.3127 119.944 53.8336 118.077 53.8361C112.042 53.8361 107.153 58.7257 107.153 64.7598C107.153 70.7938 112.042 75.6834 118.077 75.6834C119.944 75.6858 121.78 75.2071 123.408 74.2937C120.072 72.4247 117.817 68.857 117.817 64.7598Z" fill="white"/>
</svg>
