<svg width="128" height="128" viewBox="0 0 128 128" fill="none" xmlns="http://www.w3.org/2000/svg">
<g clip-path="url(#clip0_481_617)">
<path d="M63.9998 42.3266C63.7464 42.3266 63.4954 42.2767 63.2613 42.1797C63.0272 42.0828 62.8144 41.9406 62.6352 41.7614C62.456 41.5822 62.3139 41.3695 62.2169 41.1353C62.1199 40.9012 62.07 40.6502 62.0701 40.3968V17.8853C62.0701 16.8196 62.9338 15.9556 63.9998 15.9556C65.0658 15.9556 65.9296 16.8196 65.9296 17.8853V40.3971C65.9296 40.6505 65.8797 40.9014 65.7827 41.1355C65.6857 41.3696 65.5435 41.5823 65.3643 41.7615C65.1851 41.9407 64.9724 42.0828 64.7383 42.1798C64.5042 42.2767 64.2532 42.3266 63.9998 42.3266ZM63.9998 110.614C63.7464 110.614 63.4954 110.564 63.2613 110.467C63.0272 110.37 62.8144 110.228 62.6352 110.049C62.456 109.87 62.3139 109.657 62.2169 109.423C62.1199 109.189 62.07 108.938 62.0701 108.684V87.0441C62.0701 85.9783 62.9338 85.1143 63.9998 85.1143C65.0658 85.1143 65.9296 85.9783 65.9296 87.0441V108.684C65.9296 108.938 65.8797 109.189 65.7827 109.423C65.6858 109.657 65.5436 109.87 65.3644 110.049C65.1852 110.228 64.9725 110.37 64.7383 110.467C64.5042 110.564 64.2532 110.614 63.9998 110.614ZM47.3193 49.2491C47.0658 49.2494 46.8147 49.1997 46.5805 49.1027C46.3463 49.0057 46.1336 48.8633 45.9546 48.6838L30.9061 33.6353C30.5531 33.2716 30.3574 32.7836 30.3612 32.2767C30.365 31.7699 30.5681 31.2849 30.9265 30.9265C31.2849 30.5681 31.7699 30.3651 32.2768 30.3613C32.7836 30.3576 33.2716 30.5533 33.6353 30.9063L48.6838 45.9548C48.9536 46.2247 49.1372 46.5686 49.2116 46.9429C49.286 47.3171 49.2478 47.7051 49.1017 48.0576C48.9557 48.4102 48.7084 48.7115 48.3912 48.9236C48.0739 49.1357 47.7009 49.2489 47.3193 49.2491ZM95.9611 97.8906C95.7076 97.8909 95.4565 97.8411 95.2223 97.7441C94.9881 97.6471 94.7754 97.5048 94.5963 97.3253L78.6001 81.3291C78.2471 80.9653 78.0514 80.4773 78.0552 79.9705C78.059 79.4636 78.2621 78.9786 78.6205 78.6203C78.9789 78.2619 79.4639 78.0589 79.9708 78.0551C80.4776 78.0513 80.9656 78.2471 81.3293 78.6001L97.3258 94.5963C97.5956 94.8663 97.7793 95.2101 97.8536 95.5844C97.928 95.9587 97.8897 96.3467 97.7437 96.6992C97.5976 97.0518 97.3503 97.3532 97.033 97.5652C96.7157 97.7773 96.3427 97.8905 95.9611 97.8906ZM40.3458 65.9296H17.8413C17.3349 65.9214 16.852 65.7145 16.4967 65.3535C16.1415 64.9925 15.9424 64.5063 15.9424 63.9998C15.9424 63.4933 16.1415 63.0071 16.4967 62.6461C16.852 62.2851 17.3349 62.0782 17.8413 62.0701H40.3458C41.4118 62.0701 42.2756 62.9341 42.2756 63.9998C42.2756 65.0656 41.4118 65.9296 40.3458 65.9296ZM109.017 65.9296H85.1831C84.6766 65.9214 84.1937 65.7145 83.8385 65.3535C83.4832 64.9925 83.2841 64.5063 83.2841 63.9998C83.2841 63.4933 83.4832 63.0071 83.8385 62.6461C84.1937 62.2851 84.6766 62.0782 85.1831 62.0701H109.017C109.523 62.0782 110.006 62.2851 110.362 62.6461C110.717 63.0071 110.916 63.4933 110.916 63.9998C110.916 64.5063 110.717 64.9925 110.362 65.3535C110.006 65.7145 109.523 65.9214 109.017 65.9296ZM32.6561 97.2733C32.2744 97.2732 31.9014 97.16 31.5841 96.948C31.2668 96.7359 31.0195 96.4346 30.8735 96.082C30.7274 95.7294 30.6891 95.3415 30.7635 94.9672C30.8379 94.5929 31.0216 94.249 31.2913 93.9791L47.4596 77.8108C47.8233 77.4578 48.3113 77.2621 48.8181 77.2658C49.325 77.2696 49.81 77.4726 50.1684 77.831C50.5268 78.1894 50.7298 78.6744 50.7337 79.1812C50.7375 79.6881 50.5418 80.1761 50.1888 80.5398L34.0206 96.7081C33.8416 96.8876 33.6289 97.0299 33.3947 97.1269C33.1606 97.2239 32.9095 97.2737 32.6561 97.2733ZM80.8668 49.0631C80.4852 49.063 80.1122 48.9498 79.7949 48.7377C79.4776 48.5257 79.2303 48.2243 79.0842 47.8718C78.9381 47.5192 78.8999 47.1312 78.9743 46.7569C79.0486 46.3826 79.2323 46.0388 79.5021 45.7688L94.7498 30.5211C95.1135 30.1681 95.6015 29.9723 96.1084 29.9761C96.6152 29.9799 97.1002 30.1829 97.4586 30.5413C97.817 30.8996 98.0201 31.3846 98.0239 31.8915C98.0277 32.3983 97.832 32.8863 97.4791 33.2501L82.2313 48.4978C82.0523 48.6773 81.8396 48.8196 81.6055 48.9166C81.3713 49.0136 81.1203 49.0634 80.8668 49.0631Z" fill="white"/>
<path d="M63.9997 22.8255C70.3027 22.8255 75.4124 17.7158 75.4124 11.4128C75.4124 5.10966 70.3027 0 63.9997 0C57.6966 0 52.5869 5.10966 52.5869 11.4128C52.5869 17.7158 57.6966 22.8255 63.9997 22.8255Z" fill="#51EEDA"/>
<path d="M63.9997 128C70.3027 128 75.4124 122.89 75.4124 116.587C75.4124 110.284 70.3027 105.174 63.9997 105.174C57.6966 105.174 52.5869 110.284 52.5869 116.587C52.5869 122.89 57.6966 128 63.9997 128Z" fill="#51EEDA"/>
<path d="M11.4128 75.4124C17.7158 75.4124 22.8255 70.3027 22.8255 63.9997C22.8255 57.6966 17.7158 52.5869 11.4128 52.5869C5.10966 52.5869 0 57.6966 0 63.9997C0 70.3027 5.10966 75.4124 11.4128 75.4124Z" fill="#51EEDA"/>
<path d="M116.587 75.4124C122.89 75.4124 127.999 70.3027 127.999 63.9997C127.999 57.6966 122.89 52.5869 116.587 52.5869C110.283 52.5869 105.174 57.6966 105.174 63.9997C105.174 70.3027 110.283 75.4124 116.587 75.4124Z" fill="#51EEDA"/>
<path d="M26.8151 38.2278C33.1182 38.2278 38.2278 33.1182 38.2278 26.8151C38.2278 20.512 33.1182 15.4023 26.8151 15.4023C20.512 15.4023 15.4023 20.512 15.4023 26.8151C15.4023 33.1182 20.512 38.2278 26.8151 38.2278Z" fill="#4AFEBF"/>
<path d="M101.184 112.597C107.487 112.597 112.597 107.488 112.597 101.185C112.597 94.8816 107.487 89.772 101.184 89.772C94.8811 89.772 89.7715 94.8816 89.7715 101.185C89.7715 107.488 94.8811 112.597 101.184 112.597Z" fill="#4AFEBF"/>
<path d="M26.8151 112.597C33.1182 112.597 38.2278 107.488 38.2278 101.185C38.2278 94.8816 33.1182 89.772 26.8151 89.772C20.512 89.772 15.4023 94.8816 15.4023 101.185C15.4023 107.488 20.512 112.597 26.8151 112.597Z" fill="#4AFEBF"/>
<path d="M101.184 38.2278C107.487 38.2278 112.597 33.1182 112.597 26.8151C112.597 20.512 107.487 15.4023 101.184 15.4023C94.8811 15.4023 89.7715 20.512 89.7715 26.8151C89.7715 33.1182 94.8811 38.2278 101.184 38.2278Z" fill="#4AFEBF"/>
<path d="M75.4138 11.4135C75.4138 17.7148 70.3038 22.8248 64 22.8248C60.3155 22.8248 57.0375 21.0778 54.9508 18.3683C56.3608 18.9935 57.92 19.3383 59.559 19.3383C65.8628 19.3383 70.9728 14.2283 70.9728 7.92454C70.9762 5.40728 70.1436 2.96015 68.6058 0.967285C72.6145 2.73729 75.4138 6.74854 75.4138 11.4135ZM75.4138 116.586C75.4138 122.89 70.3038 128 64 128C60.3155 128 57.0375 126.253 54.9508 123.544C56.4024 124.185 57.9721 124.515 59.559 124.514C65.8628 124.514 70.9728 119.404 70.9728 113.1C70.9728 110.483 70.0928 108.07 68.6108 106.145C72.617 107.915 75.4138 111.924 75.4138 116.586ZM22.8248 63.9998C22.8248 70.3035 17.7148 75.4135 11.4135 75.4135C7.72651 75.4135 4.44851 73.6665 2.36426 70.9545C3.77426 71.5798 5.33351 71.9245 6.97251 71.9245C13.2763 71.9245 18.3863 66.8145 18.3863 60.5133C18.3863 57.894 17.5063 55.4805 16.0218 53.556C20.028 55.3263 22.8248 59.3375 22.8248 63.9998ZM128 63.9998C128 70.3035 122.89 75.4135 116.587 75.4135C112.902 75.4135 109.624 73.6665 107.54 70.9545C108.95 71.5798 110.509 71.9245 112.148 71.9245C118.45 71.9245 123.56 66.8145 123.56 60.5133C123.563 57.9951 122.731 55.5469 121.192 53.5533C125.201 55.3238 128 59.335 128 63.9998Z" fill="#28BCA9"/>
<path d="M34.8841 34.8841C30.4276 39.3431 23.2028 39.3431 18.7463 34.8841C18.3972 34.5347 18.0706 34.1634 17.7686 33.7726C21.9523 35.6173 27.0183 34.8248 30.4456 31.3978C34.5468 27.2966 34.8736 20.8461 31.4233 16.3716C32.7141 16.9418 33.8877 17.747 34.8841 18.7463C39.3431 23.2028 39.3431 30.4278 34.8841 34.8841ZM109.253 109.253C104.797 113.712 97.5721 113.712 93.1156 109.253C92.7664 108.904 92.4399 108.533 92.1378 108.142C96.3215 109.987 101.388 109.194 104.815 105.767C108.916 101.666 109.243 95.2153 105.793 90.7408C107.083 91.311 108.257 92.1163 109.253 93.1156C113.712 97.5721 113.712 104.797 109.253 109.253ZM34.8841 109.253C30.4276 113.712 23.2028 113.712 18.7463 109.253C18.3972 108.904 18.0706 108.533 17.7686 108.142C21.9523 109.987 27.0183 109.194 30.4456 105.767C34.5468 101.666 34.8736 95.2153 31.4233 90.7408C32.7141 91.311 33.8877 92.1163 34.8841 93.1156C39.3431 97.5721 39.3431 104.797 34.8841 109.253ZM109.253 34.8841C104.797 39.3431 97.5721 39.3431 93.1156 34.8841C92.7664 34.5347 92.4399 34.1634 92.1378 33.7726C96.3215 35.6173 101.388 34.8248 104.815 31.3978C108.916 27.2966 109.243 20.8461 105.793 16.3716C107.083 16.9418 108.257 17.747 109.253 18.7463C113.712 23.2028 113.712 30.4278 109.253 34.8841Z" fill="#00D48A"/>
<path d="M63.9998 89.9283C78.3197 89.9283 89.9283 78.3197 89.9283 63.9998C89.9283 49.6799 78.3197 38.0713 63.9998 38.0713C49.6799 38.0713 38.0713 49.6799 38.0713 63.9998C38.0713 78.3197 49.6799 89.9283 63.9998 89.9283Z" fill="#FDFEFF"/>
<path d="M89.928 63.9995C89.928 78.3208 78.3212 89.9273 64.0002 89.9273C59.1682 89.9273 54.645 88.6048 50.7725 86.302C53.4302 87.2258 56.2837 87.7248 59.2555 87.7248C73.574 87.7248 85.1832 76.1155 85.1832 61.7943C85.1832 52.3078 80.0862 44.01 72.4805 39.4893C82.6362 43.004 89.928 52.6475 89.928 63.9995Z" fill="#E0E0E0"/>
<path d="M72.8802 61.8942H55.1202C54.0542 61.8942 53.1904 61.0302 53.1904 59.9644C53.1904 58.8987 54.0542 58.0347 55.1202 58.0347H72.8802C73.9462 58.0347 74.8099 58.8987 74.8099 59.9644C74.8099 61.0302 73.9462 61.8942 72.8802 61.8942ZM68.4402 69.9649H59.5604C58.4944 69.9649 57.6307 69.1009 57.6307 68.0352C57.6307 66.9694 58.4944 66.1054 59.5604 66.1054H68.4402C68.9466 66.1136 69.4295 66.3205 69.7848 66.6815C70.14 67.0425 70.3391 67.5287 70.3391 68.0352C70.3391 68.5417 70.14 69.0278 69.7848 69.3889C69.4295 69.7499 68.9466 69.9568 68.4402 69.9649Z" fill="#1E2121"/>
</g>
<defs>
<clipPath id="clip0_481_617">
<rect width="128" height="128" fill="white"/>
</clipPath>
</defs>
</svg>
