<svg width="500" height="500" viewBox="0 0 500 500" fill="none" xmlns="http://www.w3.org/2000/svg">
<g clip-path="url(#clip0_519_257)">
<path d="M34.4391 9.46729C34.4391 10.5612 34.2519 11.4918 33.8775 12.2592C33.506 13.0266 32.9989 13.6127 32.3562 14.0176C31.7164 14.4193 30.997 14.6201 30.1981 14.6201C29.3932 14.6201 28.6709 14.4176 28.0311 14.0127C27.3913 13.6078 26.8857 13.0217 26.5143 12.2543C26.1428 11.4869 25.957 10.5579 25.957 9.46729C25.957 8.37336 26.1428 7.44274 26.5143 6.67535C26.8857 5.90798 27.3913 5.32347 28.0311 4.92182C28.6709 4.51691 29.3932 4.31445 30.1981 4.31445C30.997 4.31445 31.7164 4.51691 32.3562 4.92182C32.9989 5.32347 33.506 5.90798 33.8775 6.67535C34.2519 7.44274 34.4391 8.37336 34.4391 9.46729ZM32.4977 9.46729C32.4977 8.75867 32.4019 8.16109 32.2102 7.67454C32.0215 7.18798 31.7547 6.81903 31.4098 6.56759C31.0648 6.31615 30.661 6.19043 30.1981 6.19043C29.7352 6.19043 29.3313 6.31615 28.9864 6.56759C28.6414 6.81903 28.3731 7.18798 28.1815 7.67454C27.9928 8.16109 27.8984 8.75867 27.8984 9.46729C27.8984 10.1758 27.9928 10.7734 28.1815 11.26C28.3731 11.7465 28.6414 12.1155 28.9864 12.367C29.3313 12.6184 29.7352 12.7441 30.1981 12.7441C30.661 12.7441 31.0648 12.6184 31.4098 12.367C31.7547 12.1155 32.0215 11.7465 32.2102 11.26C32.4019 10.7734 32.4977 10.1758 32.4977 9.46729ZM40.1781 11.2796V6.95943H42.0621V14.483H40.2534V13.1164H40.1826C40.0293 13.5572 39.7743 13.9115 39.4175 14.1793C39.0638 14.447 38.6318 14.5809 38.1218 14.5809C37.6677 14.5809 37.2682 14.4666 36.9233 14.2381C36.5784 14.0094 36.3087 13.6845 36.1141 13.2633C35.9224 12.8421 35.8251 12.3376 35.8222 11.7498V6.95943H37.7061V11.3776C37.709 11.8216 37.8166 12.1727 38.0289 12.4306C38.2412 12.6886 38.5257 12.8176 38.8824 12.8176C39.1095 12.8176 39.3217 12.7605 39.5192 12.6461C39.7167 12.5286 39.876 12.3555 39.9968 12.1269C40.1207 11.8984 40.1811 11.6159 40.1781 11.2796ZM43.569 14.483V6.95943H45.3954V8.27212H45.4662C45.59 7.80516 45.7979 7.45254 46.0897 7.21412C46.3816 6.97247 46.7177 6.85168 47.098 6.85168C47.1923 6.85168 47.2941 6.85821 47.4032 6.87127C47.5123 6.88434 47.6081 6.90226 47.6906 6.92516V8.77667C47.6022 8.74723 47.4798 8.72116 47.3235 8.69826C47.1673 8.67543 47.0243 8.66398 46.8946 8.66398C46.6174 8.66398 46.3698 8.73095 46.1516 8.86481C45.9364 8.99543 45.7654 9.17826 45.6387 9.41336C45.5148 9.64854 45.4529 9.9195 45.4529 10.2265V14.483H43.569ZM53.1433 14.483H51.0914L54.218 4.4516H56.6856L59.8078 14.483H57.7558L55.4872 6.74392H55.4164L53.1433 14.483ZM53.0151 10.54H57.862V12.1955H53.0151V10.54ZM60.8979 14.483V4.4516H64.4712C65.158 4.4516 65.7433 4.59692 66.2265 4.88754C66.7103 5.17489 67.079 5.5749 67.3324 6.08757C67.5889 6.59698 67.7172 7.18474 67.7172 7.85088C67.7172 8.51702 67.5877 9.10481 67.328 9.61419C67.0684 10.1236 66.6929 10.5204 66.2004 10.8045C65.711 11.0885 65.1182 11.2306 64.4227 11.2306H62.145V9.53095H64.1132C64.4812 9.53095 64.7851 9.46074 65.0242 9.32033C65.2657 9.17667 65.4457 8.97909 65.5634 8.72764C65.6842 8.47295 65.7446 8.18067 65.7446 7.85088C65.7446 7.51785 65.6842 7.22723 65.5634 6.97902C65.4457 6.72759 65.2657 6.5333 65.0242 6.39616C64.7819 6.25574 64.4756 6.18554 64.1039 6.18554H62.8131V14.483H60.8979ZM70.876 4.4516V14.483H68.9606V4.4516H70.876Z" fill="white"/>
<path d="M328.2 324.827H326.148L329.275 314.796H331.742L334.864 324.827H332.813L330.544 317.088H330.473L328.2 324.827ZM328.072 320.885H332.919V322.54H328.072V320.885ZM341.413 319.449L339.688 319.567C339.659 319.403 339.596 319.256 339.498 319.126C339.401 318.992 339.273 318.886 339.114 318.807C338.957 318.726 338.77 318.685 338.552 318.685C338.26 318.685 338.014 318.754 337.813 318.891C337.613 319.025 337.513 319.205 337.513 319.43C337.513 319.61 337.577 319.761 337.707 319.885C337.837 320.01 338.059 320.109 338.375 320.184L339.604 320.458C340.265 320.609 340.757 320.85 341.081 321.183C341.406 321.516 341.568 321.954 341.568 322.496C341.568 322.989 341.437 323.422 341.175 323.794C340.915 324.166 340.558 324.457 340.104 324.666C339.653 324.872 339.133 324.974 338.543 324.974C337.644 324.974 336.927 324.767 336.394 324.352C335.863 323.934 335.552 323.366 335.46 322.647L337.313 322.54C337.369 322.844 337.505 323.076 337.721 323.236C337.935 323.392 338.211 323.471 338.548 323.471C338.878 323.471 339.143 323.401 339.343 323.26C339.547 323.116 339.65 322.932 339.653 322.707C339.65 322.517 339.578 322.362 339.436 322.241C339.295 322.117 339.077 322.023 338.782 321.957L337.605 321.698C336.942 321.551 336.449 321.296 336.124 320.934C335.803 320.571 335.642 320.109 335.642 319.547C335.642 319.064 335.76 318.647 335.996 318.298C336.234 317.949 336.569 317.679 337 317.49C337.433 317.301 337.94 317.206 338.521 317.206C339.379 317.206 340.054 317.407 340.546 317.808C341.042 318.21 341.331 318.757 341.413 319.449ZM348.406 319.449L346.681 319.567C346.652 319.403 346.589 319.256 346.491 319.126C346.394 318.992 346.265 318.886 346.106 318.807C345.95 318.726 345.763 318.685 345.544 318.685C345.253 318.685 345.006 318.754 344.806 318.891C344.605 319.025 344.505 319.205 344.505 319.43C344.505 319.61 344.571 319.761 344.7 319.885C344.83 320.01 345.053 320.109 345.368 320.184L346.597 320.458C347.257 320.609 347.75 320.85 348.074 321.183C348.399 321.516 348.561 321.954 348.561 322.496C348.561 322.989 348.429 323.422 348.167 323.794C347.907 324.166 347.551 324.457 347.097 324.666C346.646 324.872 346.125 324.974 345.536 324.974C344.637 324.974 343.921 324.767 343.387 324.352C342.856 323.934 342.545 323.366 342.454 322.647L344.307 322.54C344.363 322.844 344.498 323.076 344.713 323.236C344.929 323.392 345.204 323.471 345.54 323.471C345.871 323.471 346.136 323.401 346.336 323.26C346.539 323.116 346.643 322.932 346.646 322.707C346.643 322.517 346.571 322.362 346.429 322.241C346.288 322.117 346.069 322.023 345.775 321.957L344.599 321.698C343.935 321.551 343.441 321.296 343.117 320.934C342.795 320.571 342.635 320.109 342.635 319.547C342.635 319.064 342.753 318.647 342.988 318.298C343.228 317.949 343.562 317.679 343.993 317.49C344.426 317.301 344.933 317.206 345.514 317.206C346.372 317.206 347.047 317.407 347.539 317.808C348.034 318.21 348.323 318.757 348.406 319.449ZM352.843 324.974C352.144 324.974 351.543 324.818 351.038 324.504C350.537 324.187 350.151 323.74 349.879 323.162C349.609 322.581 349.473 321.894 349.473 321.1C349.473 320.326 349.609 319.647 349.879 319.063C350.151 318.478 350.533 318.023 351.025 317.696C351.52 317.369 352.101 317.206 352.767 317.206C353.216 317.206 353.633 317.286 354.019 317.446C354.408 317.603 354.747 317.839 355.036 318.156C355.328 318.473 355.555 318.872 355.717 319.352C355.879 319.828 355.96 320.387 355.96 321.027V321.6H350.224V320.307H354.187C354.187 320.006 354.128 319.74 354.01 319.508C353.893 319.276 353.729 319.095 353.52 318.965C353.313 318.83 353.072 318.763 352.798 318.763C352.513 318.763 352.259 318.837 352.038 318.984C351.82 319.127 351.648 319.322 351.525 319.567C351.401 319.809 351.338 320.078 351.335 320.375V321.605C351.335 321.976 351.397 322.298 351.52 322.57C351.647 322.841 351.825 323.05 352.056 323.196C352.285 323.343 352.558 323.417 352.874 323.417C353.083 323.417 353.275 323.384 353.449 323.318C353.622 323.254 353.771 323.156 353.895 323.025C354.019 322.894 354.114 322.734 354.178 322.545L355.921 322.672C355.832 323.136 355.651 323.541 355.377 323.887C355.105 324.23 354.754 324.498 354.324 324.69C353.897 324.88 353.403 324.974 352.843 324.974ZM360.803 317.304V318.872H356.712V317.304H360.803ZM357.641 315.501H359.525V322.516C359.525 322.708 359.551 322.858 359.604 322.966C359.658 323.071 359.731 323.144 359.825 323.187C359.923 323.229 360.035 323.25 360.162 323.25C360.25 323.25 360.338 323.242 360.427 323.226C360.515 323.206 360.583 323.192 360.63 323.182L360.927 324.734C360.832 324.767 360.699 324.805 360.529 324.847C360.358 324.893 360.15 324.921 359.905 324.93C359.451 324.95 359.053 324.883 358.711 324.73C358.372 324.576 358.108 324.338 357.919 324.014C357.731 323.691 357.638 323.283 357.641 322.79V315.501ZM367.597 319.449L365.872 319.567C365.843 319.403 365.779 319.256 365.682 319.126C365.584 318.992 365.456 318.886 365.297 318.807C365.141 318.726 364.954 318.685 364.736 318.685C364.444 318.685 364.198 318.754 363.997 318.891C363.797 319.025 363.696 319.205 363.696 319.43C363.696 319.61 363.761 319.761 363.891 319.885C364.021 320.01 364.243 320.109 364.559 320.184L365.788 320.458C366.449 320.609 366.94 320.85 367.265 321.183C367.589 321.516 367.751 321.954 367.751 322.496C367.751 322.989 367.62 323.422 367.358 323.794C367.099 324.166 366.742 324.457 366.288 324.666C365.836 324.872 365.316 324.974 364.727 324.974C363.827 324.974 363.111 324.767 362.577 324.352C362.047 323.934 361.736 323.366 361.644 322.647L363.497 322.54C363.553 322.844 363.689 323.076 363.904 323.236C364.119 323.392 364.395 323.471 364.731 323.471C365.061 323.471 365.327 323.401 365.527 323.26C365.731 323.116 365.833 322.932 365.836 322.707C365.833 322.517 365.761 322.362 365.62 322.241C365.478 322.117 365.26 322.023 364.965 321.957L363.789 321.698C363.126 321.551 362.632 321.296 362.308 320.934C361.986 320.571 361.825 320.109 361.825 319.547C361.825 319.064 361.944 318.647 362.18 318.298C362.418 317.949 362.753 317.679 363.183 317.49C363.617 317.301 364.124 317.206 364.704 317.206C365.563 317.206 366.237 317.407 366.73 317.808C367.225 318.21 367.514 318.757 367.597 319.449Z" fill="white"/>
<path d="M387.922 278.206V228.23C387.922 228.076 387.884 227.924 387.811 227.791C387.739 227.657 387.634 227.547 387.509 227.47L346.719 202.482C346.593 202.405 346.451 202.364 346.306 202.364C346.16 202.364 346.017 202.405 345.891 202.482L305.102 227.47C304.976 227.547 304.872 227.658 304.799 227.791C304.726 227.925 304.688 228.076 304.688 228.23V278.206C304.688 278.519 304.847 278.809 305.102 278.966L345.891 303.954C346.017 304.031 346.16 304.071 346.306 304.071C346.451 304.071 346.593 304.031 346.719 303.954L387.509 278.966C387.634 278.889 387.739 278.778 387.811 278.644C387.884 278.511 387.922 278.359 387.922 278.206Z" fill="#1E2121"/>
<path d="M387.509 227.47L346.719 202.482C346.593 202.405 346.451 202.364 346.305 202.364C346.16 202.364 346.017 202.405 345.892 202.482L342.349 204.653L379.596 227.47C379.722 227.547 379.826 227.657 379.898 227.791C379.971 227.924 380.009 228.076 380.009 228.23V278.206C380.009 278.359 379.971 278.511 379.898 278.644C379.826 278.778 379.722 278.889 379.596 278.966L342.349 301.784L345.892 303.954C346.017 304.03 346.16 304.071 346.305 304.071C346.451 304.071 346.593 304.03 346.719 303.954L387.509 278.966C387.634 278.889 387.739 278.778 387.811 278.644C387.884 278.511 387.922 278.359 387.922 278.206V228.23C387.922 228.076 387.884 227.924 387.811 227.791C387.739 227.657 387.634 227.547 387.509 227.47Z" fill="#141616"/>
<path d="M388.648 226.39L347.031 200.896C346.811 200.76 346.56 200.689 346.306 200.689C346.051 200.689 345.801 200.76 345.581 200.896L333.297 208.42C332.967 208.626 332.726 208.962 332.628 209.355C332.53 209.747 332.583 210.165 332.774 210.518C332.966 210.869 333.281 211.127 333.65 211.234C334.02 211.34 334.414 211.287 334.748 211.086L346.306 204.005L386.472 228.612V277.824L360.487 293.743C360.157 293.948 359.916 294.284 359.819 294.676C359.72 295.069 359.773 295.487 359.964 295.839C360.156 296.192 360.471 296.449 360.84 296.555C361.21 296.661 361.604 296.609 361.938 296.407L388.648 280.045C388.868 279.91 389.051 279.716 389.179 279.482C389.306 279.247 389.373 278.983 389.373 278.712V227.723C389.373 227.453 389.306 227.187 389.179 226.954C389.051 226.72 388.868 226.525 388.648 226.39ZM355.604 296.734L346.306 302.43L306.139 277.824V228.612L329.864 214.078C330.194 213.872 330.434 213.536 330.533 213.143C330.631 212.75 330.578 212.332 330.386 211.98C330.195 211.629 329.88 211.372 329.51 211.265C329.141 211.158 328.746 211.212 328.413 211.412L303.964 226.39C303.743 226.525 303.56 226.72 303.433 226.954C303.306 227.187 303.238 227.453 303.238 227.723V278.712C303.238 278.983 303.306 279.247 303.433 279.482C303.56 279.716 303.743 279.91 303.964 280.045L345.58 305.54C345.801 305.675 346.051 305.746 346.306 305.746C346.56 305.746 346.811 305.675 347.031 305.54L357.054 299.399C357.383 299.193 357.622 298.857 357.718 298.465C357.815 298.073 357.763 297.656 357.572 297.305C357.381 296.954 357.067 296.697 356.698 296.59C356.33 296.483 355.937 296.535 355.604 296.734Z" fill="#51EEDA"/>
<path d="M498.55 103.902V53.9271C498.55 53.773 498.512 53.6216 498.439 53.4881C498.367 53.3546 498.262 53.2438 498.136 53.1667L457.347 28.1791C457.221 28.1021 457.079 28.0615 456.933 28.0615C456.788 28.0615 456.645 28.1021 456.519 28.1791L415.73 53.1669C415.604 53.2439 415.5 53.3548 415.427 53.4883C415.354 53.6218 415.316 53.7732 415.316 53.9273V103.903C415.316 104.217 415.474 104.506 415.73 104.663L456.519 129.651C456.645 129.728 456.788 129.768 456.933 129.768C457.079 129.768 457.221 129.728 457.347 129.651L498.136 104.663C498.262 104.586 498.367 104.475 498.439 104.342C498.512 104.208 498.55 104.057 498.55 103.902Z" fill="#1E2121"/>
<path d="M498.137 53.1669L457.347 28.1791C457.221 28.1021 457.079 28.0615 456.933 28.0615C456.788 28.0615 456.645 28.1021 456.52 28.1791L452.977 30.3494L490.224 53.1669C490.35 53.2439 490.454 53.3548 490.526 53.4882C490.599 53.6217 490.637 53.773 490.637 53.9271V103.902C490.637 104.057 490.599 104.208 490.526 104.342C490.454 104.475 490.35 104.586 490.224 104.663L452.977 127.48L456.52 129.65C456.645 129.728 456.788 129.768 456.933 129.768C457.079 129.768 457.221 129.728 457.347 129.65L498.137 104.663C498.262 104.586 498.367 104.475 498.439 104.342C498.512 104.208 498.55 104.057 498.55 103.902V53.9271C498.55 53.773 498.512 53.6217 498.439 53.4881C498.367 53.3547 498.262 53.2439 498.137 53.1669Z" fill="#141616"/>
<path d="M499.275 52.0875L457.658 26.5929C457.437 26.4579 457.187 26.3867 456.932 26.3867C456.678 26.3867 456.428 26.4579 456.208 26.5929L443.924 34.1178C443.594 34.3233 443.353 34.6592 443.255 35.052C443.157 35.4449 443.21 35.8629 443.401 36.2149C443.593 36.5668 443.908 36.8241 444.277 36.9306C444.647 37.0371 445.041 36.984 445.374 36.7832L456.932 29.7026L497.099 54.3087V103.521L471.114 119.439C470.784 119.645 470.543 119.981 470.446 120.374C470.347 120.767 470.4 121.185 470.591 121.537C470.783 121.888 471.098 122.146 471.467 122.252C471.837 122.359 472.231 122.306 472.564 122.105L499.275 105.742C499.495 105.607 499.678 105.413 499.805 105.179C499.933 104.945 500 104.679 500 104.41V53.4202C500 53.1502 499.933 52.8848 499.805 52.6508C499.678 52.4169 499.495 52.2226 499.275 52.0875ZM466.231 122.431L456.932 128.127L416.766 103.521V54.3087L440.491 39.7749C440.821 39.5693 441.061 39.2335 441.16 38.8406C441.257 38.4478 441.205 38.0297 441.013 37.6778C440.822 37.3258 440.507 37.0686 440.137 36.9621C439.767 36.8556 439.373 36.9086 439.04 37.1095L414.591 52.0875C414.37 52.2227 414.186 52.4169 414.059 52.6509C413.932 52.8848 413.865 53.1502 413.865 53.4202V104.41C413.865 104.679 413.932 104.945 414.059 105.179C414.186 105.413 414.37 105.607 414.591 105.742L456.207 131.237C456.427 131.372 456.678 131.443 456.932 131.443C457.187 131.443 457.437 131.372 457.658 131.237L467.681 125.097C468.01 124.89 468.249 124.555 468.345 124.163C468.442 123.77 468.389 123.354 468.199 123.003C468.008 122.652 467.694 122.395 467.325 122.288C466.957 122.181 466.564 122.232 466.231 122.431Z" fill="#51EEDA"/>
<path d="M29.0497 68.2158C28.011 67.3428 27.8343 65.7396 28.655 64.6349L32.7183 59.1643C33.5389 58.0596 35.0462 57.8715 36.0849 58.7445C37.1235 59.6174 37.3002 61.2207 36.4795 62.3256L32.4163 67.7959C31.5957 68.9008 30.0884 69.0889 29.0497 68.2158Z" fill="#4AFEBF"/>
<path d="M56.3187 77.7609C56.3187 82.3974 52.7854 86.1561 48.4265 86.1561C44.0677 86.1561 40.5342 82.3974 40.5342 77.7609C40.5342 73.1243 44.0677 69.3657 48.4265 69.3657C52.7854 69.3657 56.3187 73.1243 56.3187 77.7609Z" fill="#51EEDA"/>
<path fill-rule="evenodd" clip-rule="evenodd" d="M53.6591 112.099C50.9174 115.531 45.9369 115.531 43.1952 112.099L20.4951 83.6815C18.3167 80.9547 18.3167 76.9512 20.4951 74.2236L22.7661 71.3809C23.9936 69.8443 26.1601 69.6574 27.6049 70.9629C29.0495 72.2684 29.2257 74.5733 27.9979 76.1098L25.727 78.9533L48.427 107.37L55.0054 99.1347C56.2331 97.5981 58.3994 97.4105 59.8443 98.7167C61.289 100.023 61.4649 102.327 60.2375 103.864L53.6591 112.099ZM67.8507 88.694C66.4055 87.3885 66.2299 85.0836 67.4572 83.5471L71.1272 78.9533L48.427 50.5361L43.6462 56.5209C42.4187 58.0578 40.2521 58.245 38.8075 56.939C37.3626 55.6333 37.1866 53.3287 38.4143 51.792L43.1952 45.8071C45.9369 42.3749 50.9174 42.3749 53.6591 45.8071L76.3588 74.2236C78.5375 76.9512 78.5375 80.9547 76.3588 83.6815L72.6895 88.276C71.4616 89.8126 69.2953 90.0002 67.8507 88.694Z" fill="url(#paint0_linear_519_257)"/>
<path fill-rule="evenodd" clip-rule="evenodd" d="M48.4269 34.743C25.4732 34.743 6.86563 54.5363 6.86563 78.9526C6.86563 103.368 25.4732 123.162 48.4269 123.162C50.3227 123.162 51.8596 124.796 51.8596 126.813C51.8596 128.83 50.3227 130.465 48.4269 130.465C21.6814 130.465 0 107.402 0 78.9526C0 50.5028 21.6814 27.4399 48.4269 27.4399C50.3227 27.4399 51.8596 29.0748 51.8596 31.0915C51.8596 33.1082 50.3227 34.743 48.4269 34.743Z" fill="url(#paint1_linear_519_257)"/>
<path fill-rule="evenodd" clip-rule="evenodd" d="M77.6574 115.521C76.323 114.088 76.333 111.777 77.6798 110.357C85.2844 102.342 89.9886 91.2347 89.9886 78.9526C89.9886 66.6704 85.2844 55.5637 77.6798 47.5481C76.333 46.1287 76.323 43.8166 77.6574 42.3841C78.9917 40.9516 81.1655 40.941 82.5123 42.3605C91.3647 51.6911 96.8541 64.6434 96.8541 78.9526C96.8541 93.2616 91.3647 106.214 82.5123 115.544C81.1655 116.964 78.9917 116.953 77.6574 115.521Z" fill="url(#paint2_linear_519_257)"/>
<path d="M68.8513 123.177C68.8513 125.346 67.1994 127.103 65.1608 127.103C63.1228 127.103 61.4707 125.346 61.4707 123.177C61.4707 121.01 63.1228 119.252 65.1608 119.252C67.1994 119.252 68.8513 121.01 68.8513 123.177Z" fill="#4AFEBF"/>
<path d="M479.811 95.1816H472.4C471.377 95.1816 470.547 94.2995 470.547 93.2113C470.547 92.1223 471.377 91.2402 472.4 91.2402H479.811C480.835 91.2402 481.664 92.1223 481.664 93.2113C481.664 94.2995 480.835 95.1816 479.811 95.1816Z" fill="white"/>
<path d="M483.518 99.1237C486.587 99.1237 489.075 96.4768 489.075 93.2112C489.075 89.9457 486.587 87.2988 483.518 87.2988C480.447 87.2988 477.959 89.9457 477.959 93.2112C477.959 96.4768 480.447 99.1237 483.518 99.1237Z" fill="#E0E0E0"/>
<path d="M473.215 91.4416L458.27 83.6457C458.015 83.5133 457.737 83.4443 457.454 83.4443C457.171 83.4443 456.892 83.5133 456.638 83.6457L441.692 91.4416C441.38 91.6036 441.118 91.8561 440.935 92.1685C440.751 92.4816 440.654 92.843 440.654 93.2112C440.654 93.5802 440.751 93.9409 440.935 94.254C441.118 94.5664 441.38 94.8188 441.692 94.9809L456.638 102.777C456.892 102.909 457.171 102.978 457.454 102.978C457.737 102.978 458.015 102.909 458.27 102.777L473.215 94.9809C473.527 94.8188 473.789 94.5664 473.972 94.254C474.156 93.9409 474.253 93.5802 474.253 93.2112C474.253 92.843 474.156 92.4816 473.972 92.1685C473.789 91.8561 473.527 91.6036 473.215 91.4416Z" fill="white"/>
<path d="M473.215 91.4416L458.269 83.6457C458.015 83.5133 457.736 83.4443 457.453 83.4443V102.978C457.732 102.978 458.012 102.911 458.269 102.777L473.215 94.9809C473.526 94.8188 473.788 94.5664 473.972 94.254C474.155 93.9409 474.252 93.5802 474.252 93.2112C474.252 92.843 474.155 92.4816 473.972 92.1685C473.788 91.8561 473.526 91.6036 473.215 91.4416Z" fill="#E0E0E0"/>
<path d="M442.383 85.3268H434.972C433.949 85.3268 433.119 84.4441 433.119 83.3558C433.119 82.2675 433.949 81.3848 434.972 81.3848H442.383C443.406 81.3848 444.236 82.2675 444.236 83.3558C444.236 84.4441 443.406 85.3268 442.383 85.3268Z" fill="#28BCA9"/>
<path d="M432.153 89.1888C435.183 88.6639 437.24 85.626 436.746 82.4025C436.253 79.1798 433.396 76.9929 430.366 77.5177C427.336 78.0425 425.28 81.0805 425.773 84.3039C426.267 87.5267 429.123 89.7143 432.153 89.1888Z" fill="#51EEDA"/>
<path d="M473.215 81.5861L458.27 73.7902C458.015 73.6578 457.737 73.5889 457.454 73.5889C457.171 73.5889 456.892 73.6578 456.638 73.7902L441.692 81.5861C441.38 81.7482 441.118 82.0006 440.935 82.313C440.751 82.6261 440.654 82.9875 440.654 83.3558C440.654 83.7247 440.751 84.0854 440.935 84.3985C441.118 84.7109 441.38 84.9633 441.692 85.1254L456.638 92.9213C456.892 93.0537 457.171 93.1227 457.454 93.1227C457.737 93.1227 458.015 93.0537 458.27 92.9213L473.215 85.1254C473.527 84.9633 473.789 84.7109 473.972 84.3985C474.156 84.0854 474.253 83.7247 474.253 83.3558C474.253 82.9875 474.156 82.6261 473.972 82.313C473.789 82.0006 473.527 81.7482 473.215 81.5861Z" fill="#51EEDA"/>
<path d="M473.215 81.5861L458.269 73.7902C458.015 73.6578 457.736 73.5889 457.453 73.5889V93.1227C457.732 93.1227 458.012 93.0558 458.269 92.9213L473.215 85.1254C473.526 84.9633 473.788 84.7116 473.972 84.3985C474.155 84.0854 474.252 83.7247 474.252 83.3558C474.252 82.9875 474.155 82.6261 473.972 82.313C473.788 82.0006 473.526 81.7482 473.215 81.5861Z" fill="#28BCA9"/>
<path d="M479.811 75.6474H472.4C471.377 75.6474 470.547 74.7654 470.547 73.6764C470.547 72.5881 471.377 71.7061 472.4 71.7061H479.811C480.835 71.7061 481.664 72.5881 481.664 73.6764C481.664 74.7654 480.835 75.6474 479.811 75.6474Z" fill="white"/>
<path d="M483.518 79.5895C486.587 79.5895 489.075 76.9426 489.075 73.6771C489.075 70.4115 486.587 67.7642 483.518 67.7642C480.447 67.7642 477.959 70.4115 477.959 73.6771C477.959 76.9426 480.447 79.5895 483.518 79.5895Z" fill="#E0E0E0"/>
<path d="M473.215 71.9075L458.27 64.1115C458.015 63.9791 457.737 63.9102 457.454 63.9102C457.171 63.9102 456.892 63.9791 456.638 64.1115L441.692 71.9075C441.38 72.0695 441.118 72.3213 440.935 72.6344C440.751 72.9475 440.654 73.3082 440.654 73.6771C440.654 74.0454 440.751 74.4068 440.935 74.7199C441.118 75.0323 441.38 75.284 441.692 75.4468L456.638 83.2426C456.892 83.3751 457.171 83.444 457.454 83.444C457.737 83.444 458.015 83.3751 458.27 83.2426L473.215 75.4468C473.527 75.284 473.789 75.0323 473.972 74.7199C474.156 74.4068 474.253 74.0454 474.253 73.6771C474.253 73.3082 474.156 72.9475 473.972 72.6344C473.789 72.3213 473.527 72.0695 473.215 71.9075Z" fill="white"/>
<path d="M473.215 71.9075L458.269 64.1115C458.015 63.9791 457.736 63.9102 457.453 63.9102V83.444C457.732 83.444 458.012 83.3764 458.269 83.2426L473.215 75.4468C473.526 75.284 473.788 75.0323 473.972 74.7192C474.155 74.4068 474.252 74.0454 474.252 73.6771C474.252 73.3082 474.155 72.9475 473.972 72.6344C473.788 72.3213 473.526 72.0695 473.215 71.9075Z" fill="#E0E0E0"/>
<path d="M442.383 66.5609H434.972C433.949 66.5609 433.119 65.6784 433.119 64.59C433.119 63.5016 433.949 62.6191 434.972 62.6191H442.383C443.406 62.6191 444.236 63.5016 444.236 64.59C444.236 65.6784 443.406 66.5609 442.383 66.5609Z" fill="#28BCA9"/>
<path d="M432.157 70.4248C435.187 69.9 437.243 66.862 436.75 63.6389C436.256 60.4159 433.4 58.2287 430.37 58.7536C427.34 59.2785 425.284 62.3167 425.777 65.5398C426.271 68.7628 429.127 70.9503 432.157 70.4248Z" fill="#51EEDA"/>
<path d="M473.215 62.8201L458.27 55.0241C458.015 54.8916 457.737 54.8228 457.454 54.8228C457.171 54.8228 456.892 54.8916 456.638 55.0241L441.692 62.8201C441.38 62.9824 441.118 63.2343 440.935 63.547C440.751 63.8599 440.654 64.2211 440.654 64.5897C440.654 64.9583 440.751 65.3196 440.935 65.6323C441.118 65.9452 441.38 66.197 441.692 66.3593L456.638 74.155C456.892 74.2874 457.171 74.3564 457.454 74.3564C457.737 74.3564 458.015 74.2874 458.27 74.155L473.215 66.3593C473.527 66.197 473.789 65.9452 473.972 65.6323C474.156 65.3196 474.253 64.9583 474.253 64.5897C474.253 64.2211 474.156 63.8599 473.972 63.547C473.789 63.2343 473.527 62.9824 473.215 62.8201Z" fill="#51EEDA"/>
<path d="M473.215 62.8201L458.269 55.024C458.015 54.8916 457.736 54.8228 457.453 54.8228V74.3564C457.732 74.3564 458.012 74.2895 458.269 74.155L473.215 66.3594C473.526 66.1972 473.788 65.9453 473.972 65.6325C474.155 65.3196 474.252 64.9584 474.252 64.5897C474.252 64.2211 474.155 63.8599 473.972 63.547C473.788 63.2342 473.526 62.9823 473.215 62.8201Z" fill="#28BCA9"/>
<path d="M186.879 495.173H183.669V485.142H186.906C187.817 485.142 188.601 485.342 189.259 485.744C189.916 486.142 190.422 486.715 190.775 487.463C191.132 488.211 191.31 489.106 191.31 490.147C191.31 491.192 191.132 492.09 190.775 492.841C190.422 493.592 189.913 494.168 189.25 494.57C188.589 494.972 187.799 495.173 186.879 495.173ZM185.584 493.355H186.8C187.366 493.355 187.842 493.244 188.228 493.022C188.617 492.797 188.909 492.449 189.104 491.979C189.302 491.506 189.4 490.895 189.4 490.147C189.4 489.406 189.302 488.8 189.104 488.33C188.909 487.86 188.619 487.513 188.232 487.291C187.846 487.069 187.37 486.958 186.804 486.958H185.584V493.355ZM195.789 495.32C195.09 495.32 194.489 495.163 193.985 494.849C193.484 494.533 193.097 494.085 192.826 493.507C192.555 492.926 192.419 492.239 192.419 491.445C192.419 490.671 192.555 489.992 192.826 489.408C193.097 488.823 193.479 488.368 193.972 488.041C194.467 487.715 195.048 487.551 195.714 487.551C196.162 487.551 196.579 487.631 196.965 487.791C197.355 487.948 197.694 488.184 197.983 488.502C198.275 488.818 198.501 489.217 198.664 489.697C198.826 490.173 198.907 490.732 198.907 491.372V491.945H193.171V490.652H197.133C197.133 490.351 197.075 490.085 196.957 489.853C196.839 489.622 196.675 489.44 196.466 489.31C196.259 489.175 196.02 489.108 195.745 489.108C195.459 489.108 195.206 489.182 194.985 489.329C194.766 489.473 194.595 489.667 194.472 489.912C194.348 490.154 194.284 490.423 194.281 490.72V491.95C194.281 492.322 194.343 492.644 194.467 492.915C194.594 493.186 194.772 493.395 195.002 493.542C195.232 493.688 195.505 493.762 195.82 493.762C196.029 493.762 196.221 493.729 196.395 493.664C196.569 493.599 196.718 493.501 196.842 493.37C196.965 493.24 197.06 493.08 197.125 492.89L198.867 493.017C198.779 493.481 198.597 493.886 198.323 494.232C198.052 494.575 197.701 494.843 197.27 495.035C196.843 495.225 196.35 495.32 195.789 495.32ZM200.137 497.994V487.649H201.994V488.913H202.078C202.16 488.711 202.28 488.504 202.436 488.295C202.595 488.084 202.802 487.907 203.055 487.766C203.312 487.623 203.63 487.551 204.01 487.551C204.506 487.551 204.963 487.695 205.381 487.982C205.8 488.266 206.135 488.695 206.385 489.271C206.636 489.842 206.761 490.559 206.761 491.421C206.761 492.26 206.638 492.969 206.394 493.546C206.152 494.121 205.822 494.557 205.404 494.854C204.988 495.148 204.522 495.295 204.006 495.295C203.64 495.295 203.33 495.228 203.073 495.094C202.819 494.96 202.612 494.792 202.449 494.59C202.287 494.384 202.163 494.177 202.078 493.968H202.02V497.994H200.137ZM201.98 491.411C201.98 491.858 202.036 492.248 202.148 492.582C202.26 492.915 202.423 493.174 202.635 493.36C202.847 493.543 203.105 493.635 203.409 493.635C203.716 493.635 203.975 493.542 204.187 493.355C204.399 493.166 204.56 492.905 204.67 492.572C204.781 492.235 204.837 491.848 204.837 491.411C204.837 490.977 204.783 490.595 204.674 490.265C204.564 489.935 204.404 489.677 204.192 489.491C203.98 489.304 203.719 489.212 203.409 489.212C203.102 489.212 202.843 489.302 202.63 489.481C202.421 489.661 202.26 489.915 202.148 490.245C202.036 490.575 201.98 490.964 201.98 491.411ZM209.901 485.142V495.173H208.017V485.142H209.901ZM214.479 495.32C213.792 495.32 213.198 495.158 212.697 494.835C212.199 494.508 211.814 494.054 211.543 493.473C211.272 492.888 211.136 492.211 211.136 491.44C211.136 490.663 211.272 489.984 211.543 489.403C211.814 488.818 212.199 488.364 212.697 488.041C213.198 487.715 213.792 487.551 214.479 487.551C215.166 487.551 215.759 487.715 216.257 488.041C216.758 488.364 217.144 488.818 217.416 489.403C217.687 489.984 217.823 490.663 217.823 491.44C217.823 492.211 217.687 492.888 217.416 493.473C217.144 494.054 216.758 494.508 216.257 494.835C215.759 495.158 215.166 495.32 214.479 495.32ZM214.488 493.703C214.8 493.703 215.061 493.605 215.27 493.409C215.48 493.21 215.638 492.939 215.744 492.596C215.853 492.253 215.907 491.863 215.907 491.426C215.907 490.988 215.853 490.597 215.744 490.255C215.638 489.912 215.48 489.641 215.27 489.442C215.061 489.243 214.8 489.143 214.488 489.143C214.173 489.143 213.907 489.243 213.692 489.442C213.48 489.641 213.319 489.912 213.21 490.255C213.104 490.597 213.051 490.988 213.051 491.426C213.051 491.863 213.104 492.253 213.21 492.596C213.319 492.939 213.48 493.21 213.692 493.409C213.907 493.605 214.173 493.703 214.488 493.703ZM219.991 497.994C219.753 497.994 219.529 497.973 219.32 497.931C219.113 497.891 218.942 497.84 218.807 497.778L219.231 496.221C219.452 496.296 219.651 496.337 219.828 496.343C220.008 496.35 220.163 496.304 220.292 496.206C220.425 496.109 220.533 495.942 220.615 495.706L220.726 495.388L218.289 487.649H220.27L221.676 493.174H221.747L223.167 487.649H225.161L222.521 495.986C222.394 496.391 222.222 496.743 222.004 497.044C221.789 497.347 221.516 497.581 221.186 497.744C220.855 497.911 220.457 497.994 219.991 497.994ZM226.125 495.173V487.649H227.921V488.977H228C228.142 488.535 228.378 488.188 228.708 487.933C229.038 487.679 229.434 487.551 229.893 487.551C230.359 487.551 230.755 487.68 231.083 487.938C231.41 488.193 231.628 488.539 231.737 488.977H231.808C231.947 488.546 232.197 488.201 232.56 487.943C232.925 487.682 233.358 487.551 233.856 487.551C234.49 487.551 235.004 487.775 235.399 488.222C235.797 488.666 235.996 489.297 235.996 490.113V495.173H234.117V490.524C234.117 490.106 234.016 489.793 233.816 489.584C233.615 489.375 233.364 489.271 233.064 489.271C232.722 489.271 232.455 489.391 232.264 489.633C232.072 489.871 231.976 490.186 231.976 490.578V495.173H230.15V490.48C230.15 490.111 230.054 489.817 229.862 489.599C229.673 489.38 229.424 489.271 229.115 489.271C228.906 489.271 228.717 489.329 228.549 489.446C228.384 489.561 228.252 489.723 228.155 489.932C228.058 490.137 228.01 490.379 228.01 490.657V495.173H226.125ZM240.58 495.32C239.881 495.32 239.28 495.163 238.775 494.849C238.274 494.533 237.888 494.085 237.617 493.507C237.346 492.926 237.21 492.239 237.21 491.445C237.21 490.671 237.346 489.992 237.617 489.408C237.888 488.823 238.27 488.368 238.762 488.041C239.257 487.715 239.838 487.551 240.505 487.551C240.953 487.551 241.37 487.631 241.756 487.791C242.145 487.948 242.485 488.184 242.774 488.502C243.065 488.818 243.292 489.217 243.454 489.697C243.617 490.173 243.698 490.732 243.698 491.372V491.945H237.962V490.652H241.924C241.924 490.351 241.865 490.085 241.747 489.853C241.629 489.622 241.466 489.44 241.256 489.31C241.05 489.175 240.81 489.108 240.536 489.108C240.249 489.108 239.996 489.182 239.775 489.329C239.557 489.473 239.386 489.667 239.262 489.912C239.138 490.154 239.075 490.423 239.072 490.72V491.95C239.072 492.322 239.133 492.644 239.257 492.915C239.384 493.186 239.562 493.395 239.793 493.542C240.023 493.688 240.295 493.762 240.611 493.762C240.82 493.762 241.011 493.729 241.186 493.664C241.359 493.599 241.508 493.501 241.632 493.37C241.756 493.24 241.851 493.08 241.916 492.89L243.658 493.017C243.569 493.481 243.388 493.886 243.114 494.232C242.843 494.575 242.491 494.843 242.061 495.035C241.634 495.225 241.14 495.32 240.58 495.32ZM246.811 490.823V495.173H244.927V487.649H246.722V488.977H246.802C246.952 488.539 247.204 488.193 247.558 487.938C247.912 487.68 248.341 487.551 248.845 487.551C249.317 487.551 249.728 487.666 250.079 487.894C250.43 488.122 250.703 488.449 250.897 488.873C251.092 489.295 251.189 489.797 251.189 490.382V495.173H249.305V490.755C249.308 490.294 249.202 489.935 248.986 489.677C248.772 489.415 248.475 489.285 248.098 489.285C247.844 489.285 247.62 489.346 247.425 489.466C247.234 489.587 247.084 489.764 246.975 489.995C246.868 490.224 246.814 490.5 246.811 490.823ZM256.287 487.649V489.217H252.196V487.649H256.287ZM253.125 485.846H255.009V492.861C255.009 493.053 255.035 493.204 255.089 493.311C255.142 493.416 255.215 493.489 255.31 493.532C255.407 493.574 255.519 493.595 255.645 493.595C255.734 493.595 255.823 493.587 255.911 493.571C256 493.551 256.067 493.537 256.114 493.527L256.411 495.08C256.317 495.112 256.184 495.15 256.013 495.192C255.841 495.238 255.634 495.266 255.389 495.275C254.935 495.295 254.537 495.228 254.195 495.075C253.856 494.921 253.592 494.683 253.404 494.36C253.215 494.036 253.122 493.628 253.125 493.135V485.846ZM260.396 495.173V487.649H262.223V488.962H262.293C262.417 488.495 262.625 488.142 262.917 487.904C263.209 487.662 263.545 487.542 263.925 487.542C264.02 487.542 264.122 487.548 264.231 487.561C264.34 487.574 264.435 487.592 264.518 487.615V489.466C264.429 489.437 264.307 489.411 264.151 489.388C263.995 489.365 263.851 489.353 263.722 489.353C263.445 489.353 263.197 489.421 262.979 489.555C262.764 489.685 262.593 489.868 262.466 490.103C262.342 490.338 262.28 490.609 262.28 490.916V495.173H260.396ZM269.848 491.969V487.649H271.732V495.173H269.923V493.806H269.853C269.699 494.247 269.444 494.601 269.087 494.869C268.734 495.137 268.302 495.271 267.792 495.271C267.338 495.271 266.938 495.156 266.593 494.928C266.248 494.699 265.978 494.374 265.784 493.953C265.592 493.532 265.495 493.027 265.492 492.44V487.649H267.376V492.067C267.379 492.511 267.486 492.862 267.699 493.12C267.911 493.378 268.196 493.507 268.552 493.507C268.779 493.507 268.991 493.45 269.189 493.336C269.386 493.218 269.546 493.045 269.666 492.817C269.79 492.588 269.851 492.306 269.848 491.969ZM275.123 485.142V495.173H273.239V485.142H275.123ZM279.727 495.32C279.029 495.32 278.427 495.163 277.923 494.849C277.422 494.533 277.036 494.085 276.764 493.507C276.493 492.926 276.358 492.239 276.358 491.445C276.358 490.671 276.493 489.992 276.764 489.408C277.036 488.823 277.417 488.368 277.91 488.041C278.405 487.715 278.986 487.551 279.652 487.551C280.1 487.551 280.518 487.631 280.904 487.791C281.293 487.948 281.632 488.184 281.921 488.502C282.213 488.818 282.44 489.217 282.602 489.697C282.764 490.173 282.845 490.732 282.845 491.372V491.945H277.109V490.652H281.072C281.072 490.351 281.013 490.085 280.895 489.853C280.777 489.622 280.614 489.44 280.404 489.31C280.198 489.175 279.957 489.108 279.683 489.108C279.397 489.108 279.143 489.182 278.922 489.329C278.704 489.473 278.533 489.667 278.409 489.912C278.286 490.154 278.223 490.423 278.219 490.72V491.95C278.219 492.322 278.281 492.644 278.405 492.915C278.532 493.186 278.71 493.395 278.94 493.542C279.17 493.688 279.443 493.762 279.759 493.762C279.968 493.762 280.16 493.729 280.333 493.664C280.507 493.599 280.656 493.501 280.78 493.37C280.904 493.24 280.998 493.08 281.063 492.89L282.805 493.017C282.717 493.481 282.536 493.886 282.261 494.232C281.99 494.575 281.639 494.843 281.209 495.035C280.782 495.225 280.288 495.32 279.727 495.32ZM292.609 489.795L290.884 489.912C290.855 489.748 290.791 489.602 290.694 489.471C290.597 489.337 290.468 489.231 290.309 489.153C290.153 489.071 289.965 489.031 289.747 489.031C289.455 489.031 289.209 489.099 289.009 489.236C288.808 489.37 288.708 489.55 288.708 489.775C288.708 489.955 288.773 490.106 288.902 490.231C289.033 490.355 289.255 490.454 289.571 490.529L290.8 490.804C291.46 490.954 291.953 491.195 292.277 491.528C292.601 491.862 292.764 492.299 292.764 492.841C292.764 493.334 292.632 493.767 292.37 494.139C292.11 494.511 291.754 494.802 291.3 495.011C290.848 495.217 290.328 495.32 289.739 495.32C288.84 495.32 288.123 495.112 287.589 494.697C287.059 494.28 286.747 493.711 286.656 492.993L288.509 492.885C288.565 493.189 288.701 493.421 288.916 493.581C289.131 493.737 289.407 493.816 289.743 493.816C290.073 493.816 290.338 493.746 290.539 493.605C290.742 493.462 290.846 493.277 290.848 493.052C290.846 492.862 290.774 492.707 290.632 492.586C290.49 492.462 290.272 492.368 289.977 492.302L288.801 492.043C288.138 491.896 287.644 491.641 287.32 491.279C286.998 490.916 286.838 490.454 286.838 489.893C286.838 489.409 286.955 488.993 287.191 488.644C287.43 488.294 287.765 488.024 288.195 487.835C288.628 487.646 289.135 487.551 289.716 487.551C290.574 487.551 291.249 487.752 291.742 488.153C292.237 488.555 292.526 489.102 292.609 489.795ZM297.045 495.32C296.346 495.32 295.745 495.163 295.241 494.849C294.74 494.533 294.353 494.085 294.082 493.507C293.811 492.926 293.675 492.239 293.675 491.445C293.675 490.671 293.811 489.992 294.082 489.408C294.353 488.823 294.736 488.368 295.227 488.041C295.723 487.715 296.304 487.551 296.97 487.551C297.418 487.551 297.835 487.631 298.222 487.791C298.611 487.948 298.95 488.184 299.239 488.502C299.531 488.818 299.757 489.217 299.92 489.697C300.082 490.173 300.163 490.732 300.163 491.372V491.945H294.427V490.652H298.389C298.389 490.351 298.331 490.085 298.213 489.853C298.095 489.622 297.931 489.44 297.722 489.31C297.516 489.175 297.275 489.108 297.001 489.108C296.715 489.108 296.462 489.182 296.241 489.329C296.022 489.473 295.851 489.667 295.727 489.912C295.604 490.154 295.54 490.423 295.538 490.72V491.95C295.538 492.322 295.599 492.644 295.723 492.915C295.85 493.186 296.028 493.395 296.258 493.542C296.488 493.688 296.76 493.762 297.076 493.762C297.285 493.762 297.477 493.729 297.651 493.664C297.825 493.599 297.974 493.501 298.098 493.37C298.222 493.24 298.316 493.08 298.381 492.89L300.123 493.017C300.035 493.481 299.853 493.886 299.579 494.232C299.308 494.575 298.957 494.843 298.527 495.035C298.099 495.225 297.605 495.32 297.045 495.32ZM305.005 487.649V489.217H300.915V487.649H305.005ZM301.843 485.846H303.727V492.861C303.727 493.053 303.754 493.204 303.807 493.311C303.86 493.416 303.934 493.489 304.028 493.532C304.125 493.574 304.237 493.595 304.364 493.595C304.453 493.595 304.541 493.587 304.63 493.571C304.718 493.551 304.786 493.537 304.833 493.527L305.129 495.08C305.035 495.112 304.902 495.15 304.731 495.192C304.561 495.238 304.353 495.266 304.108 495.275C303.654 495.295 303.256 495.228 302.914 495.075C302.575 494.921 302.311 494.683 302.122 494.36C301.934 494.036 301.841 493.628 301.843 493.135V485.846Z" fill="white"/>
<path d="M285.183 446.482V396.506C285.183 396.352 285.145 396.2 285.072 396.067C285 395.933 284.895 395.823 284.769 395.746L243.98 370.758C243.854 370.681 243.711 370.64 243.566 370.64C243.421 370.64 243.278 370.681 243.152 370.758L202.363 395.746C202.237 395.823 202.133 395.934 202.06 396.067C201.987 396.201 201.949 396.352 201.949 396.506V446.482C201.949 446.795 202.107 447.085 202.363 447.242L243.152 472.23C243.278 472.307 243.421 472.347 243.566 472.347C243.711 472.347 243.854 472.307 243.98 472.23L284.769 447.242C284.895 447.165 285 447.054 285.072 446.92C285.145 446.787 285.183 446.635 285.183 446.482Z" fill="#1E2121"/>
<path d="M284.769 395.746L243.98 370.758C243.854 370.681 243.711 370.64 243.566 370.64C243.421 370.64 243.278 370.681 243.152 370.758L239.609 372.928L276.857 395.746C276.982 395.823 277.087 395.933 277.159 396.067C277.232 396.2 277.27 396.352 277.27 396.506V446.482C277.27 446.635 277.232 446.787 277.159 446.92C277.087 447.054 276.982 447.165 276.857 447.242L239.609 470.059L243.152 472.23C243.278 472.306 243.421 472.347 243.566 472.347C243.711 472.347 243.854 472.306 243.98 472.23L284.769 447.242C284.895 447.165 285 447.054 285.072 446.92C285.145 446.787 285.183 446.635 285.183 446.482V396.506C285.183 396.352 285.145 396.2 285.072 396.067C285 395.933 284.895 395.823 284.769 395.746Z" fill="#141616"/>
<path d="M285.908 394.666L244.291 369.172C244.07 369.036 243.82 368.965 243.565 368.965C243.311 368.965 243.061 369.036 242.841 369.172L230.557 376.696C230.227 376.902 229.986 377.238 229.888 377.631C229.79 378.023 229.843 378.441 230.034 378.794C230.226 379.145 230.54 379.403 230.91 379.509C231.28 379.616 231.674 379.563 232.007 379.362L243.565 372.281L283.732 396.887V446.1L257.747 462.018C257.416 462.224 257.176 462.56 257.078 462.952C256.98 463.345 257.033 463.763 257.224 464.115C257.416 464.467 257.731 464.725 258.1 464.831C258.47 464.937 258.864 464.885 259.197 464.683L285.908 448.321C286.128 448.186 286.311 447.992 286.438 447.758C286.566 447.523 286.633 447.258 286.633 446.988V395.999C286.633 395.729 286.566 395.463 286.438 395.229C286.311 394.996 286.128 394.801 285.908 394.666ZM252.864 465.009L243.565 470.706L203.399 446.1V396.887L227.124 382.354C227.454 382.148 227.694 381.812 227.793 381.419C227.89 381.026 227.837 380.608 227.646 380.256C227.454 379.905 227.14 379.647 226.77 379.54C226.4 379.434 226.006 379.487 225.673 379.688L201.223 394.666C201.003 394.801 200.82 394.996 200.692 395.229C200.565 395.463 200.498 395.729 200.498 395.999V446.988C200.498 447.258 200.565 447.523 200.692 447.758C200.82 447.992 201.003 448.186 201.223 448.321L242.84 473.816C243.06 473.951 243.311 474.022 243.565 474.022C243.82 474.022 244.07 473.951 244.291 473.816L254.314 467.675C254.643 467.469 254.882 467.133 254.978 466.741C255.075 466.349 255.022 465.932 254.832 465.581C254.641 465.23 254.327 464.973 253.958 464.866C253.59 464.759 253.197 464.811 252.864 465.009Z" fill="#51EEDA"/>
<path d="M255.985 424.331L255.748 435.714L258.802 439.83L259.887 438.637C260.812 439.885 260.036 438.072 260.162 436.489L260.667 432.973C260.902 430.042 261.082 429.557 259.244 427.359L255.985 424.331Z" fill="#51EEDA"/>
<path d="M255.748 435.714L252.747 431.667L253.842 417.975L260.436 425.86C261.346 426.947 262.038 428.221 262.469 429.601C262.901 430.983 263.065 432.443 262.948 433.893L262.469 439.881C262.343 441.464 260.459 442.065 259.534 440.818L258.801 439.83L259.276 433.894C259.437 431.88 259.06 429.86 258.187 428.065C257.846 427.363 256.858 427.541 256.751 428.323L255.748 435.714Z" fill="#28BCA9"/>
<path d="M230.634 424.689L231.396 435.714L228.343 439.83C227.418 441.078 227.456 439.08 227.329 437.497L227.145 433.836C226.911 430.905 226.501 430.305 228.339 428.107L230.634 424.689Z" fill="#51EEDA"/>
<path d="M231.395 435.714L234.396 431.667L233.302 417.975L226.707 425.86C225.798 426.947 225.106 428.221 224.674 429.601C224.243 430.983 224.08 432.443 224.195 433.893L224.674 439.881C224.801 441.464 226.685 442.065 227.61 440.818L228.342 439.83L227.868 433.894C227.707 431.88 228.084 429.86 228.957 428.065C229.298 427.363 230.286 427.541 230.392 428.323L231.395 435.714Z" fill="#28BCA9"/>
<path d="M246.433 445.521L246.967 446.777C247.32 447.61 247.465 448.526 247.387 449.435C247.308 450.345 247.009 451.218 246.519 451.968L245.101 454.141C245.055 454.211 245.006 454.277 244.951 454.339C244.778 454.535 244.254 453.944 244.094 453.911C243.635 453.817 243.568 453.595 243.057 452.813L242.345 451.968C241.348 450.442 241.626 448.471 242.345 446.777L243.47 445.521H246.433Z" fill="#51EEDA"/>
<path d="M244.802 454.141L243.384 451.968C242.894 451.218 242.595 450.345 242.516 449.435C242.438 448.526 242.583 447.61 242.936 446.777L243.47 445.521H240.711L240.178 446.777C239.824 447.61 239.68 448.526 239.758 449.435C239.837 450.345 240.135 451.218 240.625 451.968L242.044 454.141C242.738 455.203 244.165 455.27 244.951 454.341C244.898 454.277 244.848 454.21 244.802 454.141Z" fill="#28BCA9"/>
<path d="M248.055 446.484H241.497C240.497 446.484 239.416 445.622 239.416 444.559L240.028 437.497H249.866V444.559C249.866 445.622 249.055 446.484 248.055 446.484Z" fill="#51EEDA"/>
<path d="M240.038 444.559V437.497H237.279V444.559C237.279 445.622 238.09 446.484 239.09 446.484H241.848C240.848 446.484 240.038 445.622 240.038 444.559Z" fill="#28BCA9"/>
<path d="M251.354 397.058C250.306 394.777 249.065 392.584 247.632 390.511L246.817 389.331C246.447 388.797 245.99 388.385 245.485 388.096C243.793 387.126 242.691 389.533 241.45 391.326L240.854 392.856C239.42 394.929 240.664 394.777 239.615 397.059L245.484 399.675L251.354 397.058Z" fill="#51EEDA"/>
<path d="M239.615 397.058C234.306 404.216 234.03 413.404 235.193 421.971L237.58 437.722C237.721 438.762 238.749 439.534 239.738 439.534H250.932C251.921 439.534 252.759 438.762 252.9 437.722L255.038 421.971C256.201 413.404 254.885 404.728 251.358 397.058H239.615Z" fill="white"/>
<path d="M244.153 389.331C244.505 388.819 244.96 388.398 245.485 388.097C243.792 387.128 241.567 387.538 240.328 389.331L239.513 390.51C238.079 392.583 236.839 394.777 235.791 397.058L237.075 398.698L239.616 397.058C240.664 394.777 241.904 392.583 243.338 390.51L244.153 389.331Z" fill="#28BCA9"/>
<path d="M238.069 437.722L235.931 421.971C234.768 413.404 236.084 404.728 239.611 397.058H235.786C232.259 404.728 230.943 413.404 232.106 421.971L234.244 437.722C234.313 438.225 234.549 438.685 234.91 439.018C235.271 439.351 235.734 439.534 236.212 439.534H240.037C239.559 439.534 239.097 439.351 238.735 439.018C238.374 438.685 238.138 438.225 238.069 437.722Z" fill="#E0E0E0"/>
<path d="M250.705 413.788C250.705 417.512 248.184 420.609 244.857 421.253C244.44 421.334 243.388 420.865 242.949 420.865C240.333 420.865 238.268 417.979 238.268 413.788C238.268 409.598 241.571 406.543 243.408 406.543C243.847 406.543 244.441 406.243 244.857 406.323C248.183 406.967 250.705 410.065 250.705 413.788Z" fill="#51EEDA"/>
<path d="M239.01 413.788C239.01 410.065 241.532 406.97 244.857 406.326C244.434 406.243 244.004 406.201 243.572 406.201C239.633 406.201 236.439 409.598 236.439 413.788C236.439 417.979 239.633 421.376 243.572 421.376C244.011 421.376 244.441 421.332 244.857 421.251C241.532 420.607 239.01 417.512 239.01 413.788Z" fill="#28BCA9"/>
<path d="M247.033 413.789C247.033 415.339 246.133 416.665 244.858 417.208C244.461 417.377 243.695 416.406 243.241 416.406C241.329 416.406 242.078 415.822 242.078 413.789C242.078 411.755 241.513 411.068 243.424 411.068C243.879 411.068 244.461 410.2 244.858 410.37C246.133 410.912 247.033 412.239 247.033 413.789Z" fill="white"/>
<path d="M242.682 413.789C242.682 412.239 243.583 410.913 244.858 410.37C244.449 410.196 244.013 410.107 243.573 410.107C241.661 410.107 240.111 411.755 240.111 413.789C240.111 415.822 241.661 417.47 243.573 417.47C244.027 417.47 244.46 417.377 244.858 417.207C243.583 416.664 242.682 415.339 242.682 413.789Z" fill="#E0E0E0"/>
<path d="M244.377 442.848L243.425 442.372C242.626 442.372 242.92 442.19 242.92 441.341L242.323 429.922C242.323 429.072 242.029 428.644 242.828 428.644L244.412 428.408C244.457 428.408 244.591 428.386 244.635 428.39C245.372 428.461 245.95 429.119 245.95 429.922V441.341C245.95 442.14 245.376 442.797 244.644 442.872C244.597 442.877 244.425 442.848 244.377 442.848Z" fill="#51EEDA"/>
<path d="M243.337 441.341V429.922C243.337 429.124 243.911 428.467 244.643 428.392C244.596 428.387 244.55 428.384 244.503 428.384H242.642C241.843 428.384 241.195 429.073 241.195 429.923V441.341C241.195 442.191 241.843 442.879 242.642 442.879H244.503C244.55 442.879 244.597 442.877 244.643 442.873C243.911 442.797 243.337 442.14 243.337 441.341Z" fill="#28BCA9"/>
<path d="M265.732 370.814L260.775 366.207L259.651 373.266L265.732 370.814Z" fill="#ACBEC0"/>
<path d="M92.3615 323.26C92.3615 324.354 92.174 325.285 91.7998 326.053C91.4281 326.819 90.9212 327.406 90.278 327.811C89.6386 328.213 88.9194 328.413 88.1199 328.413C87.3154 328.413 86.5931 328.21 85.953 327.806C85.3135 327.401 84.8079 326.815 84.4362 326.047C84.0651 325.28 83.8789 324.351 83.8789 323.26C83.8789 322.166 84.0651 321.236 84.4362 320.468C84.8079 319.701 85.3135 319.117 85.953 318.715C86.5931 318.31 87.3154 318.108 88.1199 318.108C88.9194 318.108 89.6386 318.31 90.278 318.715C90.9212 319.117 91.4281 319.701 91.7998 320.468C92.174 321.236 92.3615 322.166 92.3615 323.26ZM90.42 323.26C90.42 322.552 90.3241 321.954 90.1323 321.468C89.9437 320.981 89.6765 320.612 89.3322 320.361C88.9872 320.109 88.5831 319.984 88.1199 319.984C87.6572 319.984 87.2531 320.109 86.9082 320.361C86.5632 320.612 86.2955 320.981 86.1037 321.468C85.915 321.954 85.8204 322.552 85.8204 323.26C85.8204 323.969 85.915 324.566 86.1037 325.053C86.2955 325.539 86.5632 325.908 86.9082 326.16C87.2531 326.411 87.6572 326.537 88.1199 326.537C88.5831 326.537 88.9872 326.411 89.3322 326.16C89.6765 325.908 89.9437 325.539 90.1323 325.053C90.3241 324.566 90.42 323.969 90.42 323.26ZM95.628 323.926V328.276H93.7444V320.753H95.5395V322.08H95.6193C95.7699 321.642 96.0215 321.296 96.3758 321.042C96.7295 320.784 97.1585 320.655 97.6622 320.655C98.1342 320.655 98.5458 320.769 98.8963 320.997C99.2469 321.226 99.5196 321.553 99.7145 321.977C99.9088 322.398 100.007 322.901 100.007 323.486V328.276H98.1224V323.858C98.1255 323.397 98.019 323.038 97.8042 322.78C97.5887 322.519 97.2923 322.388 96.915 322.388C96.6616 322.388 96.4374 322.449 96.2432 322.57C96.0514 322.691 95.9007 322.867 95.7917 323.099C95.6859 323.327 95.6311 323.603 95.628 323.926ZM105.723 323.329V324.984H101.593V323.329H105.723ZM115.355 321.757H113.418C113.383 321.479 113.31 321.233 113.201 321.017C113.092 320.798 112.952 320.612 112.781 320.459C112.611 320.305 112.413 320.188 112.189 320.106C111.967 320.024 111.728 319.984 111.468 319.984C110.999 319.984 110.591 320.113 110.243 320.37C109.895 320.625 109.625 320.997 109.434 321.487C109.242 321.974 109.146 322.565 109.146 323.26C109.146 323.975 109.242 324.576 109.434 325.063C109.628 325.549 109.899 325.917 110.248 326.165C110.595 326.413 110.998 326.537 111.455 326.537C111.711 326.537 111.949 326.499 112.167 326.424C112.388 326.349 112.584 326.24 112.755 326.096C112.926 325.949 113.068 325.771 113.18 325.562C113.294 325.353 113.374 325.115 113.418 324.847L115.355 324.857C115.305 325.317 115.18 325.762 114.979 326.189C114.782 326.614 114.515 326.995 114.179 327.33C113.846 327.664 113.447 327.928 112.985 328.124C112.525 328.317 112.005 328.413 111.424 328.413C110.616 328.413 109.894 328.21 109.257 327.806C108.623 327.401 108.122 326.815 107.753 326.047C107.388 325.28 107.205 324.351 107.205 323.26C107.205 322.166 107.391 321.236 107.762 320.468C108.134 319.701 108.637 319.117 109.274 318.715C109.911 318.31 110.628 318.108 111.424 318.108C111.949 318.108 112.435 318.189 112.883 318.353C113.334 318.516 113.734 318.754 114.081 319.068C114.429 319.378 114.713 319.758 114.931 320.209C115.152 320.659 115.293 321.175 115.355 321.757ZM118.577 323.926V328.276H116.693V318.245H118.524V322.08H118.603C118.757 321.636 119.004 321.288 119.347 321.037C119.688 320.782 120.117 320.655 120.633 320.655C121.105 320.655 121.516 320.769 121.867 320.997C122.221 321.223 122.495 321.548 122.69 321.972C122.887 322.393 122.984 322.898 122.982 323.486V328.276H121.097V323.858C121.101 323.394 120.994 323.033 120.779 322.775C120.567 322.517 120.269 322.388 119.886 322.388C119.629 322.388 119.403 322.449 119.205 322.57C119.01 322.691 118.857 322.867 118.745 323.099C118.636 323.327 118.58 323.603 118.577 323.926ZM126.401 328.418C125.968 328.418 125.581 328.335 125.243 328.168C124.903 327.999 124.635 327.748 124.437 327.419C124.243 327.086 124.145 326.671 124.145 326.175C124.145 325.757 124.215 325.406 124.353 325.122C124.492 324.837 124.681 324.609 124.919 324.436C125.158 324.263 125.429 324.132 125.733 324.044C126.04 323.956 126.361 323.894 126.697 323.858C127.092 323.812 127.411 323.77 127.652 323.73C127.894 323.688 128.069 323.626 128.179 323.544C128.288 323.463 128.342 323.342 128.342 323.182V323.153C128.342 322.842 128.254 322.602 128.077 322.433C127.903 322.263 127.655 322.178 127.334 322.178C126.995 322.178 126.725 322.261 126.525 322.428C126.324 322.591 126.191 322.797 126.127 323.045L124.385 322.888C124.473 322.431 124.647 322.036 124.906 321.703C125.166 321.366 125.5 321.108 125.91 320.929C126.323 320.746 126.8 320.655 127.343 320.655C127.72 320.655 128.081 320.704 128.426 320.802C128.774 320.899 129.083 321.051 129.351 321.257C129.622 321.463 129.836 321.727 129.992 322.05C130.149 322.37 130.226 322.754 130.226 323.202V328.276H128.44V327.233H128.386C128.277 327.468 128.132 327.675 127.949 327.855C127.766 328.031 127.546 328.17 127.29 328.271C127.033 328.369 126.737 328.418 126.401 328.418ZM126.941 326.978C127.218 326.978 127.462 326.917 127.675 326.797C127.887 326.673 128.053 326.506 128.175 326.297C128.295 326.088 128.356 325.851 128.356 325.587V324.788C128.297 324.831 128.216 324.871 128.112 324.906C128.012 324.939 127.899 324.97 127.772 324.999C127.645 325.025 127.518 325.05 127.391 325.073C127.265 325.093 127.15 325.111 127.046 325.126C126.825 325.162 126.632 325.219 126.467 325.298C126.302 325.376 126.174 325.482 126.083 325.616C125.991 325.747 125.946 325.911 125.946 326.106C125.946 326.391 126.038 326.607 126.224 326.757C126.413 326.904 126.652 326.978 126.941 326.978ZM131.688 328.276V320.753H133.572V328.276H131.688ZM132.634 319.783C132.354 319.783 132.114 319.68 131.914 319.474C131.716 319.265 131.617 319.015 131.617 318.725C131.617 318.437 131.716 318.191 131.914 317.985C132.114 317.776 132.354 317.672 132.634 317.672C132.914 317.672 133.154 317.776 133.351 317.985C133.551 318.191 133.652 318.437 133.652 318.725C133.652 319.015 133.551 319.265 133.351 319.474C133.154 319.68 132.914 319.783 132.634 319.783ZM136.965 323.926V328.276H135.081V320.753H136.876V322.08H136.956C137.106 321.642 137.358 321.296 137.712 321.042C138.066 320.784 138.495 320.655 138.999 320.655C139.471 320.655 139.882 320.769 140.233 320.997C140.584 321.226 140.856 321.553 141.051 321.977C141.246 322.398 141.343 322.901 141.343 323.486V328.276H139.459V323.858C139.462 323.397 139.356 323.038 139.14 322.78C138.926 322.519 138.629 322.388 138.252 322.388C137.998 322.388 137.774 322.449 137.579 322.57C137.388 322.691 137.238 322.867 137.129 323.099C137.022 323.327 136.968 323.603 136.965 323.926ZM145.746 328.276V318.245H149.319C150.003 318.245 150.586 318.38 151.07 318.651C151.556 318.919 151.926 319.299 152.18 319.793C152.436 320.282 152.564 320.859 152.564 321.522C152.564 322.188 152.435 322.761 152.175 323.241C151.916 323.717 151.54 324.083 151.048 324.338C150.558 324.593 149.966 324.72 149.27 324.72H146.878V323.015H148.96C149.326 323.015 149.63 322.96 149.871 322.849C150.113 322.738 150.293 322.571 150.411 322.349C150.532 322.127 150.592 321.851 150.592 321.522C150.592 321.188 150.532 320.908 150.411 320.679C150.293 320.451 150.112 320.277 149.867 320.16C149.625 320.039 149.32 319.979 148.952 319.979H147.66V328.276H145.746ZM150.637 323.711L152.888 328.276H150.774L148.571 323.711H150.637ZM156.842 328.423C156.155 328.423 155.561 328.262 155.06 327.938C154.562 327.611 154.177 327.157 153.906 326.577C153.635 325.992 153.499 325.314 153.499 324.544C153.499 323.766 153.635 323.087 153.906 322.506C154.177 321.922 154.562 321.468 155.06 321.144C155.561 320.818 156.155 320.655 156.842 320.655C157.529 320.655 158.122 320.818 158.62 321.144C159.121 321.468 159.507 321.922 159.779 322.506C160.05 323.087 160.185 323.766 160.185 324.544C160.185 325.314 160.05 325.992 159.779 326.577C159.507 327.157 159.121 327.611 158.62 327.938C158.122 328.262 157.529 328.423 156.842 328.423ZM156.851 326.806C157.163 326.806 157.424 326.708 157.634 326.513C157.843 326.313 158.001 326.042 158.107 325.699C158.216 325.357 158.271 324.966 158.271 324.529C158.271 324.091 158.216 323.701 158.107 323.358C158.001 323.015 157.843 322.744 157.634 322.545C157.424 322.346 157.163 322.246 156.851 322.246C156.536 322.246 156.27 322.346 156.055 322.545C155.843 322.744 155.682 323.015 155.573 323.358C155.467 323.701 155.414 324.091 155.414 324.529C155.414 324.966 155.467 325.357 155.573 325.699C155.682 326.042 155.843 326.313 156.055 326.513C156.27 326.708 156.536 326.806 156.851 326.806ZM162.355 331.097C162.116 331.097 161.892 331.076 161.682 331.034C161.476 330.995 161.305 330.944 161.17 330.882L161.594 329.324C161.815 329.399 162.014 329.44 162.191 329.446C162.371 329.453 162.526 329.408 162.655 329.31C162.788 329.212 162.896 329.045 162.978 328.81L163.089 328.491L160.652 320.753H162.633L164.04 326.277H164.111L165.53 320.753H167.525L164.885 329.089C164.757 329.494 164.585 329.846 164.367 330.147C164.152 330.451 163.879 330.684 163.549 330.848C163.218 331.014 162.82 331.097 162.355 331.097ZM170.243 328.418C169.81 328.418 169.423 328.335 169.084 328.168C168.745 327.999 168.477 327.748 168.279 327.419C168.085 327.086 167.988 326.671 167.988 326.175C167.988 325.757 168.057 325.406 168.195 325.122C168.334 324.837 168.523 324.609 168.761 324.436C169 324.263 169.272 324.132 169.575 324.044C169.882 323.956 170.203 323.894 170.54 323.858C170.934 323.812 171.253 323.77 171.495 323.73C171.736 323.688 171.912 323.626 172.021 323.544C172.13 323.463 172.185 323.342 172.185 323.182V323.153C172.185 322.842 172.096 322.602 171.919 322.433C171.745 322.263 171.497 322.178 171.176 322.178C170.837 322.178 170.568 322.261 170.367 322.428C170.167 322.591 170.034 322.797 169.969 323.045L168.226 322.888C168.315 322.431 168.489 322.036 168.748 321.703C169.008 321.366 169.342 321.108 169.752 320.929C170.165 320.746 170.642 320.655 171.185 320.655C171.563 320.655 171.924 320.704 172.269 320.802C172.616 320.899 172.924 321.051 173.193 321.257C173.464 321.463 173.678 321.727 173.834 322.05C173.99 322.37 174.068 322.754 174.068 323.202V328.276H172.282V327.233H172.229C172.119 327.468 171.974 327.675 171.79 327.855C171.608 328.031 171.388 328.17 171.132 328.271C170.875 328.369 170.579 328.418 170.243 328.418ZM170.782 326.978C171.059 326.978 171.304 326.917 171.517 326.797C171.729 326.673 171.896 326.506 172.017 326.297C172.137 326.088 172.198 325.851 172.198 325.587V324.788C172.139 324.831 172.058 324.871 171.954 324.906C171.854 324.939 171.741 324.97 171.614 324.999C171.487 325.025 171.36 325.05 171.234 325.073C171.107 325.093 170.992 325.111 170.889 325.126C170.668 325.162 170.474 325.219 170.309 325.298C170.144 325.376 170.016 325.482 169.924 325.616C169.833 325.747 169.787 325.911 169.787 326.106C169.787 326.391 169.88 326.607 170.066 326.757C170.255 326.904 170.493 326.978 170.782 326.978ZM177.414 318.245V328.276H175.53V318.245H177.414ZM182.536 320.753V322.32H178.446V320.753H182.536ZM179.374 318.95H181.258V325.964C181.258 326.157 181.284 326.307 181.338 326.415C181.391 326.519 181.464 326.593 181.559 326.635C181.656 326.677 181.768 326.699 181.894 326.699C181.983 326.699 182.071 326.691 182.16 326.675C182.249 326.655 182.316 326.64 182.363 326.631L182.66 328.183C182.566 328.215 182.433 328.253 182.262 328.295C182.091 328.342 181.883 328.369 181.638 328.379C181.184 328.399 180.786 328.331 180.444 328.178C180.105 328.024 179.842 327.786 179.653 327.463C179.464 327.139 179.371 326.731 179.374 326.238V318.95ZM183.763 328.276V320.753H185.647V328.276H183.763ZM184.71 319.783C184.429 319.783 184.189 319.68 183.988 319.474C183.791 319.265 183.692 319.015 183.692 318.725C183.692 318.437 183.791 318.191 183.988 317.985C184.189 317.776 184.429 317.672 184.71 317.672C184.99 317.672 185.228 317.776 185.426 317.985C185.627 318.191 185.727 318.437 185.727 318.725C185.727 319.015 185.627 319.265 185.426 319.474C185.228 319.68 184.99 319.783 184.71 319.783ZM190.252 328.423C189.553 328.423 188.952 328.266 188.447 327.953C187.946 327.636 187.56 327.188 187.289 326.61C187.018 326.029 186.882 325.342 186.882 324.548C186.882 323.775 187.018 323.095 187.289 322.511C187.56 321.926 187.942 321.471 188.434 321.144C188.929 320.818 189.51 320.655 190.177 320.655C190.625 320.655 191.042 320.735 191.428 320.895C191.817 321.051 192.157 321.288 192.446 321.605C192.737 321.922 192.964 322.32 193.126 322.8C193.289 323.277 193.37 323.835 193.37 324.475V325.048H187.634V323.755H191.596C191.596 323.455 191.537 323.188 191.419 322.957C191.302 322.725 191.138 322.544 190.929 322.413C190.722 322.279 190.482 322.212 190.208 322.212C189.922 322.212 189.668 322.286 189.447 322.433C189.229 322.576 189.058 322.771 188.934 323.015C188.81 323.257 188.747 323.526 188.744 323.824V325.053C188.744 325.425 188.805 325.747 188.929 326.018C189.056 326.289 189.234 326.498 189.465 326.645C189.695 326.792 189.967 326.866 190.283 326.866C190.492 326.866 190.684 326.833 190.858 326.767C191.031 326.702 191.18 326.604 191.304 326.473C191.428 326.343 191.523 326.183 191.588 325.993L193.33 326.121C193.241 326.584 193.06 326.989 192.786 327.335C192.515 327.679 192.163 327.946 191.733 328.139C191.306 328.328 190.812 328.423 190.252 328.423ZM200.251 322.898L198.526 323.015C198.497 322.852 198.433 322.705 198.336 322.575C198.239 322.441 198.111 322.335 197.951 322.256C197.795 322.175 197.607 322.134 197.389 322.134C197.097 322.134 196.852 322.202 196.651 322.339C196.451 322.473 196.35 322.653 196.35 322.878C196.35 323.058 196.415 323.21 196.545 323.334C196.675 323.458 196.897 323.557 197.213 323.633L198.442 323.907C199.102 324.057 199.595 324.299 199.919 324.632C200.243 324.965 200.406 325.402 200.406 325.944C200.406 326.437 200.274 326.871 200.012 327.242C199.753 327.615 199.396 327.906 198.942 328.115C198.49 328.32 197.97 328.423 197.381 328.423C196.482 328.423 195.765 328.215 195.231 327.801C194.701 327.383 194.389 326.815 194.299 326.096L196.151 325.988C196.207 326.293 196.343 326.524 196.558 326.684C196.773 326.841 197.049 326.919 197.385 326.919C197.715 326.919 197.98 326.849 198.181 326.708C198.385 326.565 198.488 326.38 198.49 326.155C198.488 325.966 198.416 325.811 198.274 325.69C198.132 325.566 197.914 325.471 197.619 325.406L196.443 325.146C195.78 324.999 195.286 324.744 194.962 324.382C194.64 324.019 194.48 323.557 194.48 322.996C194.48 322.513 194.597 322.096 194.833 321.747C195.072 321.397 195.407 321.128 195.837 320.939C196.271 320.749 196.778 320.655 197.358 320.655C198.216 320.655 198.891 320.855 199.384 321.257C199.88 321.659 200.168 322.206 200.251 322.898Z" fill="white"/>
<path d="M183.769 271.999V222.023C183.769 221.869 183.731 221.717 183.658 221.584C183.586 221.45 183.481 221.34 183.355 221.263L142.566 196.275C142.44 196.198 142.297 196.157 142.152 196.157C142.007 196.157 141.864 196.198 141.738 196.275L100.949 221.263C100.823 221.34 100.719 221.451 100.646 221.584C100.573 221.718 100.535 221.869 100.535 222.023V271.999C100.535 272.312 100.693 272.602 100.949 272.759L141.738 297.747C141.864 297.824 142.007 297.864 142.152 297.864C142.297 297.864 142.44 297.824 142.566 297.747L183.355 272.759C183.481 272.682 183.586 272.571 183.658 272.437C183.731 272.304 183.769 272.152 183.769 271.999Z" fill="#1E2121"/>
<path d="M183.355 221.263L142.566 196.275C142.44 196.198 142.297 196.157 142.152 196.157C142.007 196.157 141.864 196.198 141.738 196.275L138.195 198.445L175.443 221.263C175.568 221.34 175.673 221.45 175.745 221.584C175.818 221.717 175.856 221.869 175.856 222.023V271.999C175.856 272.152 175.818 272.304 175.745 272.437C175.672 272.571 175.568 272.682 175.443 272.759L138.195 295.577L141.738 297.747C141.864 297.823 142.007 297.864 142.152 297.864C142.297 297.864 142.44 297.823 142.566 297.747L183.355 272.759C183.481 272.682 183.585 272.571 183.658 272.437C183.731 272.304 183.769 272.152 183.769 271.999V222.023C183.769 221.869 183.731 221.717 183.658 221.584C183.585 221.45 183.481 221.34 183.355 221.263Z" fill="#141616"/>
<path d="M184.494 220.184L142.877 194.689C142.656 194.554 142.406 194.483 142.151 194.483C141.897 194.483 141.647 194.554 141.426 194.689L129.143 202.214C128.813 202.419 128.572 202.755 128.474 203.148C128.376 203.541 128.428 203.959 128.62 204.311C128.812 204.663 129.126 204.92 129.496 205.027C129.865 205.133 130.26 205.08 130.593 204.879L142.151 197.799L182.318 222.405V271.617L156.332 287.536C156.002 287.742 155.762 288.077 155.664 288.47C155.566 288.863 155.619 289.281 155.81 289.633C156.002 289.985 156.317 290.242 156.686 290.348C157.056 290.455 157.45 290.402 157.783 290.201L184.493 273.838C184.714 273.704 184.897 273.509 185.024 273.275C185.151 273.041 185.218 272.776 185.218 272.506V221.517C185.218 221.246 185.152 220.981 185.024 220.747C184.897 220.513 184.714 220.319 184.494 220.184ZM151.449 290.527L142.151 296.224L101.984 271.617V222.405L125.71 207.871C126.04 207.666 126.28 207.33 126.379 206.937C126.476 206.544 126.423 206.126 126.232 205.774C126.04 205.422 125.726 205.165 125.356 205.058C124.986 204.952 124.592 205.005 124.259 205.206L99.8094 220.184C99.5883 220.319 99.4053 220.513 99.2783 220.747C99.1512 220.981 99.084 221.246 99.084 221.517V272.506C99.084 272.776 99.1512 273.041 99.2783 273.275C99.4053 273.509 99.5883 273.704 99.8094 273.838L141.426 299.333C141.646 299.468 141.897 299.539 142.151 299.539C142.406 299.539 142.656 299.468 142.876 299.333L152.9 293.193C153.228 292.986 153.468 292.65 153.564 292.259C153.661 291.866 153.608 291.45 153.417 291.099C153.227 290.748 152.913 290.49 152.544 290.384C152.176 290.277 151.782 290.328 151.449 290.527Z" fill="#51EEDA"/>
<path d="M120.474 240.436L123.839 233.643C123.958 233.402 124.132 233.193 124.346 233.033C124.56 232.874 124.808 232.768 125.07 232.726C125.332 232.683 125.599 232.705 125.852 232.789C126.104 232.872 126.332 233.016 126.52 233.208L131.615 238.433L126.403 244.454L120.474 240.436Z" fill="#51EEDA"/>
<path d="M142.153 222.393C141.896 222.393 141.644 222.453 141.415 222.568C141.185 222.684 140.984 222.852 140.827 223.059L126.403 242.173L116.169 235.202C115.893 235.014 115.569 234.914 115.238 234.915C114.906 234.915 114.583 235.015 114.307 235.204C114.032 235.392 113.817 235.659 113.691 235.973C113.565 236.286 113.532 236.63 113.597 236.962L117.41 256.268C117.566 257.068 118.286 257.98 119.084 257.98H142.153L147.193 240.577L142.153 222.393Z" fill="white"/>
<path d="M157.905 244.455L152.693 238.433L157.789 233.208C157.976 233.016 158.205 232.872 158.457 232.789C158.709 232.705 158.977 232.683 159.238 232.726C159.5 232.768 159.748 232.874 159.962 233.033C160.177 233.193 160.35 233.402 160.47 233.643L163.835 240.436L157.905 244.455Z" fill="#28BCA9"/>
<path d="M165.223 257.98C166.022 257.98 166.742 257.068 166.898 256.268L170.711 236.962C170.776 236.63 170.743 236.286 170.616 235.973C170.49 235.66 170.276 235.393 170 235.204C169.725 235.016 169.401 234.915 169.07 234.915C168.739 234.915 168.415 235.015 168.139 235.202L157.905 242.173L143.481 223.059C143.324 222.852 143.123 222.684 142.893 222.568C142.664 222.453 142.41 222.393 142.154 222.393V257.98H165.223Z" fill="#E0E0E0"/>
<path d="M117.41 264.125C117.41 265.07 118.16 265.836 119.085 265.836H142.153L145.765 261.052L142.154 256.268H117.41V264.125Z" fill="#51EEDA"/>
<path d="M142.154 265.837H165.223C166.149 265.837 166.898 265.071 166.898 264.125V256.268H142.154V265.837Z" fill="#28BCA9"/>
<path d="M142.153 249.877C139.375 249.877 137.114 247.568 137.114 244.728V243.079C137.114 240.239 139.375 237.93 142.153 237.93L144.673 244.455L142.153 249.877Z" fill="#51EEDA"/>
<path d="M147.194 244.728V243.079C147.194 240.239 144.933 237.93 142.154 237.93V249.877C144.933 249.877 147.194 247.568 147.194 244.728Z" fill="#28BCA9"/>
<path d="M190.535 251.035L196.139 254.618V247.451L190.535 251.035Z" fill="#ACBEC0"/>
<path d="M293.9 103.902V53.9271C293.9 53.773 293.862 53.6216 293.789 53.4881C293.716 53.3546 293.612 53.2438 293.486 53.1667L252.697 28.1791C252.571 28.1021 252.428 28.0615 252.283 28.0615C252.137 28.0615 251.995 28.1021 251.869 28.1791L211.079 53.1669C210.954 53.2439 210.85 53.3548 210.777 53.4883C210.704 53.6218 210.666 53.7732 210.666 53.9273V103.903C210.666 104.217 210.824 104.506 211.079 104.663L251.869 129.651C251.995 129.728 252.137 129.768 252.283 129.768C252.428 129.768 252.571 129.728 252.697 129.651L293.486 104.663C293.612 104.586 293.716 104.475 293.789 104.342C293.862 104.208 293.9 104.057 293.9 103.902Z" fill="#1E2121"/>
<path d="M293.486 53.1669L252.697 28.1791C252.571 28.1021 252.428 28.0615 252.283 28.0615C252.137 28.0615 251.995 28.1021 251.869 28.1791L248.326 30.3494L285.573 53.1669C285.699 53.2439 285.804 53.3548 285.876 53.4882C285.949 53.6217 285.987 53.773 285.987 53.9271V103.902C285.987 104.057 285.949 104.208 285.876 104.342C285.804 104.475 285.699 104.586 285.573 104.663L248.326 127.48L251.869 129.65C251.995 129.728 252.137 129.768 252.283 129.768C252.428 129.768 252.571 129.728 252.697 129.65L293.486 104.663C293.612 104.586 293.717 104.475 293.789 104.342C293.862 104.208 293.9 104.057 293.9 103.902V53.9271C293.9 53.773 293.862 53.6217 293.789 53.4881C293.717 53.3547 293.612 53.2439 293.486 53.1669Z" fill="#141616"/>
<path d="M294.626 52.0875L253.008 26.5929C252.788 26.4579 252.538 26.3867 252.283 26.3867C252.028 26.3867 251.779 26.4579 251.558 26.5929L239.274 34.1178C238.944 34.3233 238.704 34.6592 238.606 35.052C238.508 35.4449 238.561 35.8629 238.752 36.2149C238.944 36.5668 239.258 36.8241 239.628 36.9306C239.998 37.0371 240.392 36.984 240.725 36.7832L252.283 29.7026L292.45 54.3087V103.521L266.465 119.439C266.134 119.645 265.894 119.981 265.796 120.374C265.698 120.767 265.751 121.185 265.942 121.537C266.134 121.888 266.449 122.146 266.818 122.252C267.188 122.359 267.582 122.306 267.915 122.105L294.626 105.742C294.846 105.607 295.029 105.413 295.156 105.179C295.284 104.945 295.35 104.679 295.35 104.41V53.4202C295.35 53.1502 295.284 52.8848 295.156 52.6508C295.029 52.4169 294.846 52.2226 294.626 52.0875ZM261.581 122.431L252.283 128.127L212.117 103.521V54.3087L235.842 39.7749C236.172 39.5693 236.412 39.2335 236.51 38.8406C236.608 38.4478 236.555 38.0297 236.364 37.6778C236.172 37.3258 235.858 37.0686 235.488 36.9621C235.118 36.8556 234.724 36.9086 234.391 37.1095L209.941 52.0875C209.721 52.2227 209.538 52.4169 209.41 52.6509C209.283 52.8848 209.216 53.1502 209.216 53.4202V104.41C209.216 104.679 209.283 104.945 209.41 105.179C209.538 105.413 209.721 105.607 209.941 105.742L251.558 131.237C251.778 131.372 252.028 131.443 252.283 131.443C252.538 131.443 252.788 131.372 253.008 131.237L263.032 125.097C263.36 124.89 263.599 124.555 263.696 124.163C263.793 123.77 263.74 123.354 263.55 123.003C263.358 122.652 263.045 122.395 262.676 122.288C262.307 122.181 261.914 122.232 261.581 122.431Z" fill="#51EEDA"/>
<path d="M246.989 97.5614C246.815 97.5614 246.645 97.5104 246.496 97.4152L241.255 94.0538C241.041 93.9125 240.889 93.6876 240.83 93.4276C240.772 93.1676 240.811 92.8938 240.942 92.6649C241.071 92.4359 241.28 92.2704 241.524 92.2042C241.767 92.1387 242.025 92.1766 242.242 92.3118L247.483 95.6731C247.663 95.7876 247.801 95.9614 247.878 96.1683C247.955 96.3752 247.967 96.6028 247.911 96.8173C247.854 97.0311 247.734 97.22 247.567 97.3545C247.401 97.489 247.198 97.5614 246.989 97.5614ZM258.051 97.6856C257.838 97.6862 257.63 97.6104 257.462 97.4711C257.294 97.3318 257.174 97.1366 257.122 96.9166C257.07 96.6966 257.089 96.4649 257.175 96.2573C257.261 96.0497 257.41 95.8787 257.599 95.7718L263.708 92.2862C263.932 92.1607 264.193 92.1338 264.434 92.2125C264.676 92.2911 264.879 92.4676 264.998 92.7049C265.117 92.9414 265.144 93.2194 265.072 93.4766C265 93.7338 264.834 93.9504 264.612 94.0793L258.502 97.5649C258.363 97.6442 258.209 97.6856 258.051 97.6856ZM264.215 67.0913C264.059 67.0913 263.905 67.0503 263.767 66.972L257.601 63.4846C257.377 63.358 257.21 63.1419 257.136 62.8839C257.062 62.6259 257.087 62.3472 257.206 62.109C257.325 61.8708 257.528 61.6927 257.77 61.6138C258.013 61.5349 258.275 61.5618 258.499 61.6884L264.665 65.1756C264.853 65.2821 265.003 65.4527 265.09 65.6602C265.177 65.8676 265.196 66.1001 265.144 66.3205C265.092 66.5409 264.973 66.7365 264.805 66.8762C264.636 67.0159 264.429 67.0916 264.215 67.0913ZM241.75 67.0911C241.541 67.0914 241.338 67.0191 241.171 66.8851C241.005 66.7511 240.884 66.5629 240.828 66.3491C240.771 66.1354 240.782 65.9078 240.859 65.7012C240.935 65.4947 241.073 65.3204 241.252 65.205L246.823 61.5973C247.273 61.305 247.862 61.4573 248.136 61.9372C248.411 62.4171 248.269 63.0428 247.817 63.3349L242.246 66.9427C242.097 67.0398 241.925 67.0912 241.75 67.0911Z" fill="#FFFCF8"/>
<path d="M224.921 77.4602C224.713 77.4602 224.51 77.3885 224.343 77.254C224.176 77.1202 224.056 76.9319 224 76.7182C223.943 76.5044 223.954 76.2768 224.03 76.0706C224.107 75.8637 224.245 75.6892 224.423 75.574L230.218 71.8216C230.325 71.752 230.444 71.7057 230.568 71.6851C230.693 71.6651 230.819 71.6706 230.941 71.7023C231.063 71.7333 231.178 71.7906 231.279 71.8692C231.381 71.9478 231.467 72.0471 231.532 72.1616C231.597 72.2754 231.641 72.4023 231.66 72.534C231.68 72.6664 231.674 72.8009 231.644 72.9306C231.615 73.0602 231.561 73.183 231.487 73.2906C231.413 73.3982 231.32 73.4899 231.213 73.5595L225.417 77.3119C225.268 77.4092 225.096 77.4602 224.921 77.4602ZM274.823 87.5809C274.615 87.5809 274.412 87.5085 274.245 87.3747C274.079 87.2409 273.958 87.0526 273.902 86.8388C273.845 86.6251 273.856 86.3975 273.932 86.1906C274.009 85.9844 274.147 85.8099 274.325 85.6947L281.473 81.0664C281.924 80.774 282.512 80.9264 282.787 81.4064C283.061 81.8857 282.919 82.512 282.467 82.8037L275.32 87.432C275.17 87.5292 274.998 87.5809 274.823 87.5809ZM241.523 87.4975C241.312 87.4975 241.107 87.4237 240.94 87.2864C240.772 87.1499 240.652 86.9582 240.598 86.7409C240.544 86.5244 240.559 86.294 240.64 86.0871C240.722 85.8802 240.866 85.7078 241.049 85.5961L246.847 82.0809C247.067 81.9506 247.326 81.9182 247.569 81.9899C247.812 82.0623 248.018 82.2333 248.142 82.4657C248.267 82.6988 248.3 82.974 248.236 83.2333C248.17 83.492 248.011 83.7126 247.794 83.8478L241.996 87.3637C241.852 87.4513 241.689 87.4975 241.523 87.4975ZM258.282 77.2657C258.071 77.2657 257.866 77.1913 257.698 77.0547C257.531 76.9182 257.411 76.7264 257.356 76.5092C257.302 76.2926 257.317 76.0623 257.399 75.8554C257.48 75.6485 257.623 75.4754 257.807 75.3644L263.67 71.8071C263.891 71.6782 264.149 71.6471 264.391 71.7195C264.632 71.7919 264.837 71.9623 264.962 72.1947C265.086 72.4264 265.12 72.7009 265.055 72.9588C264.991 73.2168 264.834 73.4382 264.618 73.574L258.754 77.1313C258.61 77.2195 258.447 77.2651 258.282 77.2657Z" fill="#FFFCF8"/>
<path d="M236.751 69.0495L236.74 76.5523L236.416 76.7516C236.319 76.8116 236.209 76.8426 236.097 76.8426C235.984 76.8426 235.874 76.8116 235.777 76.7516L230.275 73.373C230.178 73.3137 230.098 73.2275 230.042 73.124C229.986 73.0213 229.956 72.904 229.957 72.7847L229.976 65.6724L236.116 69.4426L236.751 69.0495Z" fill="#28BCA9"/>
<path d="M242.218 65.6724L242.198 72.7888C242.198 72.9068 242.168 73.0233 242.112 73.1261C242.057 73.2282 241.977 73.3137 241.881 73.373L236.416 76.7516C236.32 76.8116 236.21 76.8426 236.099 76.8419L236.117 69.4426L242.218 65.6724Z" fill="#51EEDA"/>
<path d="M242.217 65.6724L242.197 72.7888C242.197 72.9068 242.168 73.0233 242.112 73.1261C242.057 73.2282 241.976 73.3137 241.88 73.373L239.844 74.6316V67.1384L242.217 65.6724Z" fill="#28BCA9"/>
<path d="M230.298 65.076L235.751 61.7048C235.85 61.6441 235.961 61.612 236.075 61.6118C236.189 61.6117 236.3 61.6434 236.399 61.704L241.894 65.079C242.325 65.3431 242.325 66.0028 241.896 66.2681L236.443 69.6391C236.345 69.6998 236.232 69.7322 236.119 69.7322C236.005 69.7322 235.894 69.7005 235.795 69.6398L230.3 66.2651C229.869 66.001 229.869 65.3413 230.298 65.076Z" fill="#51EEDA"/>
<path d="M236.751 69.0495L236.74 76.5523L236.416 76.7516C236.319 76.8116 236.209 76.8426 236.097 76.8426C235.984 76.8426 235.874 76.8116 235.777 76.7516L230.275 73.373C230.178 73.3137 230.098 73.2275 230.042 73.124C229.986 73.0213 229.956 72.904 229.957 72.7847L229.976 65.6724L236.116 69.4426L236.751 69.0495Z" fill="#28BCA9"/>
<path d="M242.218 65.6724L242.198 72.7888C242.198 72.9068 242.168 73.0233 242.112 73.1261C242.057 73.2282 241.977 73.3137 241.881 73.373L236.416 76.7516C236.32 76.8116 236.21 76.8426 236.099 76.8419L236.117 69.4426L242.218 65.6724Z" fill="#51EEDA"/>
<path d="M242.217 65.6724L242.197 72.7888C242.197 72.9068 242.168 73.0233 242.112 73.1261C242.057 73.2282 241.976 73.3137 241.88 73.373L239.844 74.6316V67.1384L242.217 65.6724Z" fill="#28BCA9"/>
<path d="M230.298 65.076L235.751 61.7048C235.85 61.6441 235.961 61.612 236.075 61.6118C236.189 61.6117 236.3 61.6434 236.399 61.704L241.894 65.079C242.325 65.3431 242.325 66.0028 241.896 66.2681L236.443 69.6391C236.345 69.6998 236.232 69.7322 236.119 69.7322C236.005 69.7322 235.894 69.7005 235.795 69.6398L230.3 66.2651C229.869 66.001 229.869 65.3413 230.298 65.076Z" fill="#51EEDA"/>
<path d="M253.311 58.9693L253.3 66.4721L252.975 66.6714C252.879 66.7313 252.769 66.7629 252.656 66.7629C252.544 66.7629 252.434 66.7313 252.337 66.6714L246.835 63.293C246.738 63.2333 246.658 63.1475 246.602 63.0441C246.546 62.9408 246.517 62.8236 246.517 62.7044L246.536 55.5923L252.676 59.3626L253.311 58.9693Z" fill="#28BCA9"/>
<path d="M258.777 55.5928L258.758 62.7089C258.758 62.8274 258.729 62.9437 258.673 63.0462C258.617 63.1487 258.537 63.234 258.441 63.2935L252.976 66.6719C252.88 66.7317 252.771 66.7631 252.659 66.7627L252.678 59.3631L258.777 55.5928Z" fill="#51EEDA"/>
<path d="M258.778 55.5928L258.759 62.7089C258.758 62.8274 258.729 62.9437 258.674 63.0462C258.618 63.1487 258.538 63.234 258.441 63.2935L256.405 64.552V57.0588L258.778 55.5928Z" fill="#28BCA9"/>
<path d="M246.858 54.9959L252.311 51.6248C252.409 51.564 252.521 51.5319 252.635 51.5317C252.748 51.5316 252.86 51.5633 252.959 51.6238L258.454 54.9989C258.885 55.263 258.885 55.9227 258.456 56.188L253.002 59.5591C252.904 59.6199 252.792 59.652 252.679 59.6522C252.565 59.6524 252.453 59.6206 252.355 59.5601L246.859 56.185C246.429 55.9209 246.428 55.2612 246.858 54.9959Z" fill="#51EEDA"/>
<path d="M270.137 69.1551L270.125 76.6579L269.802 76.8572C269.705 76.9172 269.594 76.9482 269.482 76.9482C269.37 76.9482 269.26 76.9172 269.163 76.8572L263.662 73.4786C263.564 73.4186 263.483 73.3331 263.427 73.2296C263.372 73.1262 263.342 73.0089 263.343 72.8896L263.362 65.7778L269.502 69.5482L270.137 69.1551Z" fill="#28BCA9"/>
<path d="M275.602 65.7778L275.583 72.8938C275.582 73.0124 275.553 73.1289 275.498 73.231C275.442 73.3338 275.362 73.4193 275.265 73.4786L269.801 76.8572C269.704 76.9165 269.595 76.9482 269.483 76.9476L269.503 69.5482L275.602 65.7778Z" fill="#51EEDA"/>
<path d="M275.602 65.7778L275.583 72.8938C275.583 73.0124 275.553 73.1289 275.497 73.231C275.442 73.3338 275.361 73.4193 275.266 73.4786L273.229 74.7372V67.2439L275.602 65.7778Z" fill="#28BCA9"/>
<path d="M263.682 65.181L269.136 61.8098C269.233 61.7491 269.345 61.717 269.459 61.7168C269.573 61.7167 269.684 61.7485 269.783 61.8089L275.279 65.184C275.708 65.4481 275.709 66.1078 275.28 66.3731L269.827 69.7439C269.728 69.8053 269.617 69.837 269.503 69.837C269.389 69.8377 269.278 69.806 269.179 69.7453L263.684 66.37C263.253 66.1061 263.253 65.4462 263.682 65.181Z" fill="#51EEDA"/>
<path d="M253.444 79.4837L253.432 86.9864L253.108 87.1858C253.011 87.2458 252.902 87.2775 252.789 87.2775C252.677 87.2775 252.567 87.2458 252.469 87.1858L246.968 83.8078C246.871 83.7478 246.791 83.6623 246.735 83.5589C246.679 83.4554 246.649 83.3382 246.649 83.2189L246.669 76.1064L252.809 79.8768L253.444 79.4837Z" fill="#28BCA9"/>
<path d="M258.91 76.1064L258.891 83.223C258.891 83.3416 258.861 83.4575 258.805 83.5602C258.75 83.663 258.67 83.7478 258.573 83.8078L253.109 87.1858C253.013 87.2458 252.903 87.2775 252.791 87.2768L252.81 79.8768L258.91 76.1064Z" fill="#51EEDA"/>
<path d="M258.911 76.1064L258.892 83.223C258.891 83.3416 258.862 83.4575 258.806 83.5602C258.75 83.663 258.671 83.7478 258.574 83.8078L256.538 85.0658V77.5727L258.911 76.1064Z" fill="#28BCA9"/>
<path d="M246.99 75.5095L252.444 72.1385C252.542 72.0778 252.654 72.0461 252.768 72.0454C252.881 72.0454 252.993 72.0771 253.092 72.1378L258.587 75.513C259.017 75.7771 259.018 76.4364 258.588 76.702L253.135 80.073C253.037 80.1337 252.925 80.1661 252.811 80.1661C252.698 80.1661 252.586 80.1344 252.488 80.0737L246.992 76.6992C246.562 76.4351 246.561 75.7751 246.99 75.5095Z" fill="#51EEDA"/>
<path d="M236.751 89.5198L236.74 97.0226L236.416 97.2219C236.319 97.2819 236.209 97.3136 236.097 97.3136C235.984 97.3136 235.874 97.2819 235.777 97.2219L230.275 93.8433C230.178 93.784 230.098 93.6978 230.042 93.5943C229.986 93.4915 229.956 93.3743 229.957 93.255L229.976 86.1426L236.116 89.9129L236.751 89.5198Z" fill="#28BCA9"/>
<path d="M242.218 86.1426L242.198 93.2591C242.198 93.3771 242.168 93.4936 242.112 93.5964C242.057 93.6984 241.977 93.784 241.881 93.8433L236.416 97.2219C236.32 97.2819 236.21 97.3129 236.099 97.3129L236.117 89.9129L242.218 86.1426Z" fill="#51EEDA"/>
<path d="M242.217 86.1426L242.197 93.2591C242.197 93.3771 242.168 93.4936 242.112 93.5964C242.057 93.6984 241.976 93.784 241.88 93.8433L239.844 95.1019V87.6088L242.217 86.1426Z" fill="#28BCA9"/>
<path d="M230.298 85.5467L235.751 82.1749C235.85 82.1143 235.961 82.0825 236.075 82.0825C236.189 82.0818 236.3 82.1136 236.399 82.1743L241.894 85.5494C242.325 85.8136 242.325 86.4729 241.896 86.7384L236.443 90.1094C236.345 90.1701 236.232 90.2025 236.119 90.2025C236.005 90.2025 235.894 90.1708 235.795 90.1108L230.3 86.7356C229.869 86.4715 229.869 85.8115 230.298 85.5467Z" fill="#51EEDA"/>
<path d="M253.311 99.8719L253.3 107.375L252.975 107.574C252.879 107.634 252.769 107.666 252.656 107.666C252.544 107.666 252.434 107.634 252.337 107.574L246.835 104.195C246.738 104.136 246.658 104.05 246.602 103.947C246.546 103.844 246.517 103.726 246.517 103.607L246.536 96.4946L252.676 100.265L253.311 99.8719Z" fill="#28BCA9"/>
<path d="M258.777 96.4946L258.758 103.611C258.758 103.73 258.729 103.846 258.673 103.948C258.617 104.051 258.537 104.136 258.441 104.195L252.976 107.574C252.88 107.634 252.771 107.666 252.659 107.665L252.678 100.265L258.777 96.4946Z" fill="#51EEDA"/>
<path d="M258.778 96.4946L258.759 103.611C258.758 103.73 258.729 103.846 258.674 103.948C258.618 104.051 258.538 104.136 258.441 104.195L256.405 105.454V97.9608L258.778 96.4946Z" fill="#28BCA9"/>
<path d="M246.858 95.8977L252.311 92.5267C252.409 92.466 252.521 92.4343 252.635 92.4336C252.748 92.4336 252.86 92.4653 252.959 92.526L258.454 95.9012C258.885 96.1653 258.885 96.8246 258.456 97.0901L253.002 100.461C252.904 100.522 252.792 100.554 252.679 100.554C252.565 100.554 252.453 100.523 252.355 100.463L246.859 97.0874C246.429 96.8232 246.428 96.1632 246.858 95.8977Z" fill="#51EEDA"/>
<path d="M270.137 89.6766L270.125 97.1793L269.802 97.3786C269.705 97.4386 269.594 97.4703 269.482 97.4703C269.37 97.4703 269.26 97.4386 269.163 97.3786L263.662 94C263.564 93.9407 263.483 93.8545 263.427 93.7517C263.372 93.6483 263.342 93.531 263.343 93.4117L263.362 86.2993L269.502 90.0697L270.137 89.6766Z" fill="#28BCA9"/>
<path d="M275.602 86.2993L275.583 93.4159C275.582 93.5338 275.553 93.6504 275.498 93.7531C275.442 93.8552 275.362 93.9407 275.265 94L269.801 97.3786C269.704 97.4386 269.595 97.4697 269.483 97.4697L269.503 90.0697L275.602 86.2993Z" fill="#51EEDA"/>
<path d="M275.602 86.2993L275.583 93.4159C275.583 93.5338 275.553 93.6504 275.497 93.7531C275.442 93.8552 275.361 93.9407 275.266 94L273.229 95.2586V87.7655L275.602 86.2993Z" fill="#28BCA9"/>
<path d="M263.682 85.7029L269.136 82.3319C269.233 82.2712 269.345 82.2388 269.459 82.2388C269.573 82.2388 269.684 82.2705 269.783 82.3312L275.279 85.7064C275.708 85.9698 275.709 86.6298 275.28 86.8953L269.827 90.2664C269.728 90.327 269.617 90.3595 269.503 90.3595C269.389 90.3595 269.278 90.3277 269.179 90.267L263.684 86.8919C263.253 86.6277 263.253 85.9684 263.682 85.7029Z" fill="#51EEDA"/>
<path d="M223.591 79.9563C224.969 79.9563 226.085 78.768 226.085 77.3025C226.085 75.837 224.969 74.6494 223.591 74.6494C222.214 74.6494 221.097 75.837 221.097 77.3025C221.097 78.768 222.214 79.9563 223.591 79.9563Z" fill="#51EEDA"/>
<path d="M226.087 77.3032C226.087 78.768 224.97 79.9563 223.592 79.9563C222.993 79.9563 222.444 79.7322 222.015 79.3563C223.009 79.2701 223.789 78.3825 223.789 77.3032C223.789 76.2225 223.009 75.3356 222.015 75.2487C222.459 74.8598 223.017 74.648 223.592 74.6494C224.97 74.6494 226.087 75.837 226.087 77.3032Z" fill="#28BCA9"/>
<path d="M281.97 84.5881C283.347 84.5881 284.464 83.3999 284.464 81.9344C284.464 80.4695 283.347 79.2812 281.97 79.2812C280.592 79.2812 279.476 80.4695 279.476 81.9344C279.476 83.3999 280.592 84.5881 281.97 84.5881Z" fill="#51EEDA"/>
<path d="M284.464 81.9351C284.464 83.3999 283.347 84.5875 281.97 84.5875C281.453 84.5888 280.948 84.4178 280.527 84.0978C281.491 83.9109 282.22 83.013 282.22 81.9351C282.22 80.8557 281.489 79.9578 280.525 79.7716C280.947 79.4516 281.453 79.2799 281.97 79.2813C283.347 79.2806 284.464 80.4688 284.464 81.9351Z" fill="#28BCA9"/>
<path d="M222 0.313477V10.3448H220.346L216.406 4.03115H216.34V10.3448H214.425V0.313477H216.105L220.014 6.62225H220.094V0.313477H222ZM223.582 10.3448V0.313477H229.579V2.06211H225.497V4.45239H229.181V6.20102H225.497V10.3448H223.582ZM230.522 2.06211V0.313477H237.96V2.06211H235.188V10.3448H233.295V2.06211H230.522ZM243.628 10.3448H241.577L244.703 0.313477H247.171L250.293 10.3448H248.241L245.972 2.6058H245.902L243.628 10.3448ZM243.5 6.40184H248.347V8.05738H243.5V6.40184ZM253.534 10.4673C253.019 10.4673 252.551 10.3203 252.133 10.0265C251.717 9.72931 251.387 9.29338 251.142 8.71862C250.901 8.14069 250.78 7.43207 250.78 6.59287C250.78 5.7308 250.905 5.01404 251.155 4.44259C251.406 3.86788 251.739 3.43848 252.155 3.15438C252.574 2.86703 253.032 2.72335 253.53 2.72335C253.91 2.72335 254.227 2.79519 254.481 2.93887C254.737 3.07928 254.944 3.25561 255.1 3.46787C255.259 3.67685 255.38 3.88257 255.463 4.08503H255.52V0.313477H257.4V10.3448H255.542V9.13986H255.463C255.374 9.34889 255.249 9.5562 255.087 9.76193C254.928 9.96441 254.72 10.1325 254.463 10.2665C254.21 10.4003 253.9 10.4673 253.534 10.4673ZM254.132 8.80683C254.435 8.80683 254.692 8.71538 254.901 8.53255C255.113 8.34641 255.275 8.08682 255.387 7.75372C255.503 7.42062 255.56 7.03041 255.56 6.58307C255.56 6.13571 255.504 5.74712 255.392 5.41731C255.28 5.08751 255.118 4.83281 254.905 4.65321C254.693 4.47361 254.435 4.38381 254.132 4.38381C253.822 4.38381 253.561 4.47688 253.349 4.663C253.137 4.84914 252.976 5.1071 252.867 5.43691C252.758 5.76671 252.703 6.14877 252.703 6.58307C252.703 7.02062 252.758 7.40758 252.867 7.74393C252.979 8.07696 253.14 8.3382 253.349 8.52765C253.561 8.71372 253.822 8.80683 254.132 8.80683ZM261.452 10.4673C260.936 10.4673 260.468 10.3203 260.05 10.0265C259.634 9.72931 259.304 9.29338 259.059 8.71862C258.818 8.14069 258.696 7.43207 258.696 6.59287C258.696 5.7308 258.822 5.01404 259.072 4.44259C259.323 3.86788 259.656 3.43848 260.072 3.15438C260.491 2.86703 260.949 2.72335 261.447 2.72335C261.828 2.72335 262.145 2.79519 262.398 2.93887C262.655 3.07928 262.861 3.25561 263.017 3.46787C263.176 3.67685 263.297 3.88257 263.38 4.08503H263.437V0.313477H265.317V10.3448H263.46V9.13986H263.38C263.292 9.34889 263.166 9.5562 263.004 9.76193C262.844 9.96441 262.637 10.1325 262.381 10.2665C262.127 10.4003 261.817 10.4673 261.452 10.4673ZM262.049 8.80683C262.353 8.80683 262.609 8.71538 262.818 8.53255C263.031 8.34641 263.193 8.08682 263.305 7.75372C263.42 7.42062 263.477 7.03041 263.477 6.58307C263.477 6.13571 263.421 5.74712 263.309 5.41731C263.197 5.08751 263.035 4.83281 262.823 4.65321C262.61 4.47361 262.353 4.38381 262.049 4.38381C261.739 4.38381 261.478 4.47688 261.266 4.663C261.054 4.84914 260.893 5.1071 260.784 5.43691C260.675 5.76671 260.62 6.14877 260.62 6.58307C260.62 7.02062 260.675 7.40758 260.784 7.74393C260.896 8.07696 261.057 8.3382 261.266 8.52765C261.478 8.71372 261.739 8.80683 262.049 8.80683ZM266.866 10.3448V2.82131H268.692V4.13401H268.763C268.887 3.66705 269.095 3.31439 269.386 3.07602C269.678 2.83438 270.014 2.71356 270.395 2.71356C270.489 2.71356 270.591 2.72009 270.7 2.73315C270.809 2.74621 270.905 2.76417 270.987 2.78702V4.63851C270.899 4.60913 270.777 4.583 270.62 4.56015C270.464 4.53729 270.321 4.52586 270.191 4.52586C269.914 4.52586 269.666 4.5928 269.448 4.72668C269.233 4.8573 269.062 5.04016 268.935 5.27527C268.811 5.51038 268.75 5.78141 268.75 6.08836V10.3448H266.866ZM274.741 10.4918C274.042 10.4918 273.44 10.335 272.937 10.0215C272.435 9.70483 272.049 9.25745 271.778 8.67945C271.506 8.0982 271.371 7.41082 271.371 6.61736C271.371 5.84345 271.506 5.16425 271.778 4.57974C272.049 3.99523 272.431 3.53971 272.923 3.21316C273.419 2.88662 274 2.72335 274.666 2.72335C275.113 2.72335 275.531 2.80336 275.917 2.96336C276.306 3.1201 276.645 3.35684 276.934 3.67358C277.226 3.99033 277.453 4.38871 277.615 4.86873C277.777 5.34548 277.859 5.90387 277.859 6.54389V7.11696H272.123V5.82386H276.085C276.085 5.52345 276.026 5.25731 275.909 5.02547C275.79 4.79362 275.627 4.61239 275.417 4.48178C275.211 4.34789 274.971 4.28096 274.696 4.28096C274.41 4.28096 274.157 4.35442 273.936 4.50137C273.718 4.64505 273.547 4.83934 273.423 5.08425C273.299 5.32589 273.236 5.59528 273.233 5.89243V7.12186C273.233 7.49414 273.295 7.81579 273.419 8.08682C273.546 8.35779 273.724 8.56682 273.953 8.71372C274.184 8.86069 274.457 8.93414 274.772 8.93414C274.981 8.93414 275.173 8.90152 275.347 8.8362C275.521 8.77089 275.67 8.67296 275.793 8.54234C275.917 8.41172 276.011 8.25172 276.076 8.06227L277.819 8.18965C277.731 8.65331 277.549 9.05827 277.275 9.40441C277.004 9.74724 276.653 10.015 276.222 10.2077C275.795 10.3971 275.301 10.4918 274.741 10.4918ZM284.74 4.96669L283.015 5.08425C282.986 4.92098 282.922 4.77403 282.825 4.64341C282.727 4.50954 282.599 4.4034 282.44 4.32504C282.284 4.2434 282.097 4.20258 281.879 4.20258C281.587 4.20258 281.34 4.27116 281.14 4.40831C280.94 4.54218 280.84 4.72178 280.84 4.9471C280.84 5.12669 280.904 5.27854 281.034 5.40262C281.163 5.52671 281.386 5.6263 281.701 5.70141L282.931 5.9757C283.592 6.12591 284.084 6.36755 284.408 6.70062C284.732 7.03372 284.894 7.47124 284.894 8.01331C284.894 8.50641 284.764 8.93903 284.501 9.31131C284.242 9.68358 283.885 9.9742 283.43 10.1832C282.98 10.3889 282.459 10.4918 281.869 10.4918C280.97 10.4918 280.254 10.2844 279.721 9.86972C279.189 9.45172 278.879 8.88358 278.787 8.16517L280.64 8.05738C280.696 8.3611 280.832 8.59296 281.047 8.75296C281.262 8.90965 281.538 8.98807 281.874 8.98807C282.204 8.98807 282.47 8.91786 282.67 8.77745C282.874 8.63372 282.976 8.44924 282.98 8.22393C282.976 8.03455 282.904 7.87945 282.763 7.75862C282.622 7.63455 282.403 7.53986 282.108 7.47455L280.932 7.21489C280.269 7.068 279.775 6.81328 279.45 6.45082C279.129 6.08836 278.968 5.6263 278.968 5.06465C278.968 4.58137 279.087 4.16503 279.322 3.81563C279.561 3.46623 279.896 3.19684 280.326 3.00745C280.76 2.81805 281.267 2.72335 281.848 2.72335C282.706 2.72335 283.381 2.92418 283.873 3.32582C284.368 3.72747 284.657 4.27443 284.74 4.96669ZM291.732 4.96669L290.008 5.08425C289.978 4.92098 289.915 4.77403 289.818 4.64341C289.721 4.50954 289.592 4.4034 289.433 4.32504C289.277 4.2434 289.089 4.20258 288.871 4.20258C288.579 4.20258 288.333 4.27116 288.133 4.40831C287.932 4.54218 287.832 4.72178 287.832 4.9471C287.832 5.12669 287.897 5.27854 288.027 5.40262C288.156 5.52671 288.379 5.6263 288.694 5.70141L289.924 5.9757C290.584 6.12591 291.077 6.36755 291.401 6.70062C291.725 7.03372 291.887 7.47124 291.887 8.01331C291.887 8.50641 291.756 8.93903 291.494 9.31131C291.234 9.68358 290.877 9.9742 290.424 10.1832C289.973 10.3889 289.452 10.4918 288.863 10.4918C287.963 10.4918 287.247 10.2844 286.713 9.86972C286.183 9.45172 285.871 8.88358 285.78 8.16517L287.633 8.05738C287.689 8.3611 287.825 8.59296 288.04 8.75296C288.255 8.90965 288.531 8.98807 288.867 8.98807C289.197 8.98807 289.462 8.91786 289.663 8.77745C289.866 8.63372 289.97 8.44924 289.973 8.22393C289.97 8.03455 289.897 7.87945 289.756 7.75862C289.614 7.63455 289.396 7.53986 289.101 7.47455L287.925 7.21489C287.262 7.068 286.768 6.81328 286.443 6.45082C286.122 6.08836 285.962 5.6263 285.962 5.06465C285.962 4.58137 286.079 4.16503 286.315 3.81563C286.554 3.46623 286.889 3.19684 287.319 3.00745C287.752 2.81805 288.26 2.72335 288.84 2.72335C289.698 2.72335 290.373 2.92418 290.866 3.32582C291.361 3.72747 291.65 4.27443 291.732 4.96669Z" fill="white"/>
<path d="M205.479 81.3793L199.875 77.7959V84.9628L205.479 81.3793Z" fill="#ACBEC0"/>
<path d="M409.713 81.3793L404.109 77.7959V84.9628L409.713 81.3793Z" fill="#ACBEC0"/>
<path d="M374.805 206.331L369.848 201.724L368.725 208.782L374.805 206.331Z" fill="#ACBEC0"/>
<path d="M346.751 250.965L342.72 246.677C339.059 242.783 333.103 242.783 329.442 246.677L319.059 257.722C315.4 261.616 315.4 267.952 319.059 271.845L323.091 276.134C326.751 280.027 332.708 280.027 336.368 276.134L343.168 268.901L346.751 265.09C347.923 263.845 348.719 262.351 349.141 260.765C350.038 257.393 349.241 253.614 346.751 250.965ZM343.401 261.525L338.264 266.99L333.018 272.57C331.205 274.499 328.255 274.499 326.441 272.57L322.41 268.282C320.597 266.352 320.597 263.214 322.41 261.286L332.792 250.241C334.606 248.312 337.557 248.312 339.369 250.241L343.401 254.53C344.707 255.919 345.073 257.934 344.497 259.674C344.274 260.351 343.908 260.985 343.401 261.525Z" fill="#51EEDA"/>
<path d="M329.796 250.242L319.413 261.286C317.601 263.214 317.601 266.353 319.413 268.282L323.445 272.571C324.738 273.944 326.607 274.339 328.231 273.754C327.556 273.512 326.943 273.106 326.44 272.571L322.408 268.282C320.596 266.353 320.596 263.215 322.408 261.286L332.791 250.242C333.294 249.705 333.908 249.3 334.583 249.057C332.959 248.473 331.089 248.866 329.796 250.242Z" fill="#28BCA9"/>
<path d="M346.751 250.966L342.719 246.677C340.507 244.325 337.458 243.396 334.583 243.886C336.466 244.207 338.275 245.136 339.724 246.677L343.756 250.966C346.245 253.615 347.042 257.393 346.144 260.765C345.723 262.351 344.927 263.846 343.756 265.09L340.172 268.901L333.373 276.135C331.924 277.675 330.115 278.604 328.231 278.925C331.106 279.415 334.155 278.486 336.368 276.135L343.167 268.901L346.751 265.09C347.922 263.846 348.718 262.351 349.139 260.765C350.037 257.393 349.24 253.615 346.751 250.966Z" fill="#28BCA9"/>
<path d="M345.283 243.951L349.314 248.239C352.975 252.133 358.931 252.133 362.593 248.239L372.975 237.194C376.635 233.3 376.635 226.964 372.975 223.071L368.944 218.782C365.282 214.889 359.327 214.889 355.666 218.782L348.866 226.015L345.283 229.826C344.112 231.071 343.315 232.565 342.894 234.151C341.996 237.523 342.793 241.302 345.283 243.951ZM348.634 233.391L353.771 227.926L359.017 222.346C360.829 220.418 363.779 220.418 365.593 222.346L369.625 226.635C371.437 228.564 371.437 231.702 369.625 233.631L359.242 244.675C357.428 246.604 354.478 246.604 352.665 244.675L348.634 240.386C347.327 238.998 346.961 236.982 347.538 235.243C347.761 234.566 348.126 233.931 348.634 233.391Z" fill="#51EEDA"/>
<path d="M356.023 222.345L350.777 227.925L345.64 233.39C345.132 233.931 344.767 234.565 344.544 235.243C343.967 236.982 344.333 238.998 345.64 240.386L349.671 244.674C350.963 246.05 352.832 246.443 354.457 245.859C353.782 245.617 353.169 245.211 352.666 244.674L348.635 240.386C347.328 238.998 346.962 236.982 347.539 235.243C347.762 234.565 348.127 233.931 348.635 233.39L353.772 227.925L359.018 222.345C359.521 221.81 360.134 221.405 360.808 221.162C359.184 220.578 357.314 220.972 356.023 222.345Z" fill="#28BCA9"/>
<path d="M372.976 223.07L368.945 218.782C366.733 216.43 363.683 215.501 360.808 215.992C362.692 216.313 364.501 217.241 365.95 218.782L369.981 223.07C373.641 226.964 373.641 233.3 369.981 237.194L359.598 248.239C358.149 249.78 356.341 250.709 354.457 251.03C357.332 251.52 360.382 250.592 362.593 248.239L372.976 237.194C376.636 233.3 376.636 226.964 372.976 223.07Z" fill="#28BCA9"/>
<path d="M357.018 235.757V259.159C350.942 265.622 341.092 265.622 335.017 259.159C328.941 252.697 328.941 242.219 335.017 235.757C341.092 229.295 350.942 229.295 357.018 235.757Z" fill="white"/>
<path d="M357.018 235.756C353.368 231.874 348.356 230.325 343.619 231.107C346.767 231.627 349.795 233.176 352.22 235.756C358.295 242.219 358.295 252.696 352.22 259.159C349.795 261.739 346.767 263.288 343.619 263.808C348.356 264.59 353.368 263.041 357.018 259.159C363.094 252.696 363.094 242.219 357.018 235.756Z" fill="#E0E0E0"/>
<path d="M344.91 234.399C343.901 233.598 343.611 232.008 344.449 230.839C344.706 230.482 344.984 230.144 345.282 229.826L348.866 226.015L350 227.951L351.183 228.532L347.885 233.257C347.731 233.422 344.91 234.399 344.91 234.399Z" fill="#51EEDA"/>
<path d="M345.638 233.39C345.356 233.691 345.111 234.03 344.91 234.398C345.18 234.611 345.489 234.762 345.817 234.838C346.717 235.049 347.654 234.689 348.21 233.907C348.34 233.725 348.481 233.551 348.633 233.39L353.771 227.925L351.578 227.071L350.776 227.925L345.638 233.39Z" fill="#28BCA9"/>
<path d="M349.286 245.032L346.558 253.823L345.622 255.05L344.404 254.936L344.403 254.935L339.498 252.405C339.212 252.256 338.971 252.026 338.802 251.74C338.634 251.453 338.544 251.121 338.544 250.783V243.992C338.544 243.634 338.644 243.292 338.822 243.005L349.286 245.032Z" fill="#51EEDA"/>
<path d="M346.557 253.823L346.016 255.568C345.762 255.568 345.51 255.507 345.276 255.387L344.403 254.936L344.401 254.936L346.557 253.823Z" fill="#51EEDA"/>
<path d="M351.68 242.658L351.609 244.467L349.753 246.156L346.016 246.719L338.82 243.005C338.987 242.732 339.221 242.512 339.497 242.37L344.402 239.84L351.68 242.658Z" fill="#51EEDA"/>
<path d="M353.212 243.005L351.608 244.466L350.262 244.528V243.421C350.261 243.254 350.217 243.09 350.134 242.948C350.05 242.806 349.931 242.692 349.789 242.619L344.401 239.839L345.297 239.377C345.526 239.263 345.775 239.206 346.027 239.208C346.279 239.209 346.528 239.271 346.755 239.388L352.535 242.37C352.811 242.512 353.045 242.732 353.212 243.005Z" fill="#51EEDA"/>
<path d="M352.761 250.666C352.761 251.005 352.671 251.337 352.502 251.623C352.333 251.91 352.092 252.14 351.806 252.288L346.017 254.103V246.719L350.262 244.528L352.761 250.666Z" fill="#28BCA9"/>
<path d="M353.49 243.992V250.783C353.49 251.121 353.401 251.453 353.232 251.74C353.063 252.027 352.821 252.257 352.535 252.404L346.756 255.388C346.525 255.506 346.273 255.568 346.017 255.568V254.103L349.79 252.156C349.931 252.083 350.05 251.969 350.134 251.827C350.218 251.686 350.262 251.521 350.262 251.354V244.528L353.213 243.005C353.394 243.298 353.49 243.641 353.49 243.992Z" fill="#28BCA9"/>
<path d="M346.59 263.49L342.085 266.867L341.848 266.421L338.263 266.99L343.4 261.526C343.552 261.364 343.693 261.191 343.822 261.009C344.379 260.226 345.398 259.888 346.298 260.1C346.298 260.1 346.893 263.168 346.59 263.49Z" fill="#51EEDA"/>
<path d="M346.299 260.1C346.255 260.324 346.203 260.545 346.145 260.765C345.724 262.351 344.927 263.846 343.756 265.09L340.976 268.048L343.168 268.901L346.751 265.09C347.05 264.773 347.328 264.435 347.584 264.077C348.62 262.633 347.934 260.547 346.299 260.1Z" fill="#28BCA9"/>
<path d="M96.5127 81.3794H199.875" stroke="#ACBEC0"/>
<path d="M295.144 81.3794H404.11" stroke="#ACBEC0"/>
<path d="M437.733 119.311L372.354 204.138" stroke="#ACBEC0"/>
<path d="M321.918 291.035L262.765 368.966" stroke="#ACBEC0"/>
<path d="M303.238 251.035H196.14" stroke="#ACBEC0"/>
</g>
<defs>
<linearGradient id="paint0_linear_519_257" x1="48.427" y1="114.673" x2="48.427" y2="43.2329" gradientUnits="userSpaceOnUse">
<stop stop-color="#4AFEBF"/>
<stop offset="1" stop-color="#51EEDA"/>
</linearGradient>
<linearGradient id="paint1_linear_519_257" x1="25.9298" y1="27.4399" x2="25.9298" y2="130.465" gradientUnits="userSpaceOnUse">
<stop stop-color="#4AFEBF"/>
<stop offset="1" stop-color="#51EEDA"/>
</linearGradient>
<linearGradient id="paint2_linear_519_257" x1="86.7582" y1="116.602" x2="86.7582" y2="41.3028" gradientUnits="userSpaceOnUse">
<stop stop-color="#4AFEBF"/>
<stop offset="1" stop-color="#51EEDA"/>
</linearGradient>
<clipPath id="clip0_519_257">
<rect width="500" height="500" fill="white"/>
</clipPath>
</defs>
</svg>
