<svg width="146" height="136" viewBox="0 0 146 136" fill="none" xmlns="http://www.w3.org/2000/svg">
<path fill-rule="evenodd" clip-rule="evenodd" d="M30.3817 80.2621L101.434 59.584L102.063 61.7444C102.371 62.805 103.481 63.4145 104.542 63.1059C105.602 62.7972 106.212 61.6872 105.903 60.6267L105.275 58.4663L126.398 52.3188C128.519 51.7015 130.739 52.9206 131.357 55.0417L133.041 60.8289C132.718 60.904 132.395 60.9883 132.073 61.0821C122.528 63.86 117.042 73.8498 119.82 83.3949C122.598 92.94 132.587 98.4259 142.133 95.6481C142.455 95.5543 142.772 95.4523 143.085 95.3424L144.769 101.13C145.387 103.251 144.168 105.471 142.046 106.088L120.923 112.236L120.364 110.315C120.055 109.255 118.945 108.645 117.885 108.954C116.824 109.262 116.215 110.372 116.523 111.433L117.082 113.353L46.03 134.031C43.9088 134.649 41.6889 133.43 41.0716 131.308L27.6588 85.2205C27.0414 83.0994 28.2605 80.8795 30.3817 80.2621ZM111.737 87.8301C110.677 88.1388 110.067 89.2488 110.376 90.3093L111.284 93.4299C111.593 94.4904 112.703 95.1 113.763 94.7913C114.824 94.4827 115.433 93.3727 115.125 92.3121L114.216 89.1916C113.908 88.131 112.798 87.5215 111.737 87.8301ZM113.45 100.871C113.141 99.8106 113.75 98.7006 114.811 98.3919C115.872 98.0833 116.982 98.6928 117.29 99.7534L118.198 102.874C118.507 103.935 117.897 105.044 116.837 105.353C115.776 105.662 114.666 105.052 114.358 103.992L113.45 100.871ZM107.302 79.7475C106.993 78.6869 107.603 77.577 108.663 77.2683C109.724 76.9597 110.834 77.5692 111.143 78.6298L112.051 81.7503C112.359 82.8109 111.75 83.9209 110.689 84.2295C109.629 84.5382 108.519 83.9286 108.21 82.868L107.302 79.7475ZM105.59 66.7065C104.529 67.0152 103.92 68.1251 104.228 69.1857L105.136 72.3062C105.445 73.3668 106.555 73.9763 107.616 73.6677C108.676 73.359 109.286 72.2491 108.977 71.1885L108.069 68.068C107.76 67.0074 106.65 66.3978 105.59 66.7065Z" fill="white"/>
<path fill-rule="evenodd" clip-rule="evenodd" d="M30.3817 80.2621L101.434 59.584L102.063 61.7444C102.371 62.805 103.481 63.4145 104.542 63.1059C105.602 62.7972 106.212 61.6872 105.903 60.6267L105.275 58.4663L126.398 52.3188C128.519 51.7015 130.739 52.9206 131.357 55.0417L133.041 60.8289C132.718 60.904 132.395 60.9883 132.073 61.0821C130.753 61.4663 129.511 61.9884 128.357 62.6281L127.953 61.2397C127.49 59.6488 125.825 58.7345 124.234 59.1975L35.8989 84.9054C34.3081 85.3684 33.3938 87.0333 33.8567 88.6242L44.4752 125.11C44.9382 126.701 46.6032 127.616 48.194 127.153L136.529 101.445C138.12 100.982 139.034 99.3168 138.571 97.726L138.167 96.3375C139.484 96.2583 140.813 96.0322 142.133 95.6481C142.455 95.5543 142.772 95.4523 143.085 95.3424L144.769 101.13C145.387 103.251 144.168 105.471 142.046 106.088L120.923 112.236L120.364 110.315C120.055 109.255 118.945 108.645 117.885 108.954C116.824 109.262 116.215 110.372 116.523 111.433L117.082 113.353L46.03 134.031C43.9088 134.649 41.6889 133.43 41.0716 131.308L27.6588 85.2205C27.0414 83.0994 28.2605 80.8795 30.3817 80.2621ZM127.469 63.1548C120.865 67.3333 117.527 75.5156 119.82 83.3949C122.113 91.2742 129.32 96.3875 137.135 96.3697L137.611 98.0054C137.92 99.066 137.31 100.176 136.25 100.485L47.9146 126.192C46.854 126.501 45.744 125.892 45.4354 124.831L34.8169 88.3448C34.5083 87.2842 35.1178 86.1742 36.1784 85.8656L124.514 60.1577C125.574 59.849 126.684 60.4585 126.993 61.5191L127.469 63.1548ZM111.737 87.8301C110.677 88.1388 110.067 89.2488 110.376 90.3093L111.284 93.4299C111.593 94.4904 112.703 95.1 113.763 94.7913C114.824 94.4827 115.433 93.3727 115.125 92.3121L114.216 89.1916C113.908 88.131 112.798 87.5215 111.737 87.8301ZM113.45 100.871C113.141 99.8106 113.75 98.7006 114.811 98.3919C115.872 98.0833 116.982 98.6928 117.29 99.7534L118.198 102.874C118.507 103.935 117.897 105.044 116.837 105.353C115.776 105.662 114.666 105.052 114.358 103.992L113.45 100.871ZM107.302 79.7475C106.993 78.6869 107.603 77.577 108.663 77.2683C109.724 76.9597 110.834 77.5692 111.143 78.6298L112.051 81.7503C112.359 82.8109 111.75 83.9209 110.689 84.2295C109.629 84.5382 108.519 83.9286 108.21 82.868L107.302 79.7475ZM105.59 66.7065C104.529 67.0152 103.92 68.1251 104.228 69.1857L105.136 72.3062C105.445 73.3668 106.555 73.9763 107.616 73.6677C108.676 73.359 109.286 72.2491 108.977 71.1885L108.069 68.068C107.76 67.0074 106.65 66.3978 105.59 66.7065Z" fill="#51EEDA"/>
<path d="M53.049 103.324L52.8722 102.716C52.3963 101.081 52.1994 99.4536 52.2816 97.8349C52.3745 96.1969 52.7329 94.6605 53.3568 93.2259C53.9808 91.7912 54.8644 90.5496 56.0075 89.5009C57.1506 88.4522 58.5398 87.6899 60.1751 87.214C61.7954 86.7424 63.307 86.6524 64.7099 86.9438C66.1235 87.2159 67.4191 87.7257 68.5968 88.4733C69.7895 89.2165 70.8496 90.0634 71.7772 91.0139C72.7004 91.9495 73.4883 92.8674 74.1409 93.7678C74.8041 94.6488 75.3184 95.3535 75.6837 95.8819L75.9588 96.827C75.934 97.4689 75.8804 98.347 75.7979 99.4613C75.726 100.556 75.5537 101.754 75.281 103.053C75.0084 104.353 74.5758 105.635 73.9832 106.897C73.3905 108.16 72.573 109.293 71.5305 110.296C70.4987 111.28 69.1801 112.006 67.5749 112.473C65.9246 112.953 64.3283 113.06 62.7859 112.792C61.2586 112.521 59.8467 111.947 58.5504 111.071C57.254 110.196 56.1294 109.099 55.1764 107.782C54.234 106.445 53.5249 104.959 53.049 103.324ZM57.0354 101.504L57.2122 102.112C57.5659 103.327 58.0424 104.433 58.6418 105.431C59.2519 106.408 59.962 107.227 60.7723 107.886C61.5975 108.541 62.4979 108.979 63.4734 109.199C64.4489 109.42 65.4842 109.371 66.5794 109.052C67.6446 108.742 68.5221 108.235 69.2118 107.529C69.9123 106.805 70.4706 105.983 70.8867 105.065C71.3029 104.146 71.6031 103.221 71.7874 102.288C71.9867 101.352 72.1113 100.494 72.1611 99.7142C72.211 98.9348 72.2241 98.337 72.2006 97.9207L71.9256 96.9756C71.7264 96.6267 71.3989 96.1443 70.943 95.5284C70.4827 94.8975 69.9172 94.2403 69.2463 93.5568C68.5905 92.8689 67.8405 92.2491 66.9965 91.6974C66.1481 91.1306 65.2286 90.7391 64.2381 90.5229C63.2583 90.2873 62.2357 90.3246 61.1706 90.6345C60.0904 90.9489 59.2001 91.4684 58.4996 92.193C57.7948 92.9026 57.2775 93.7529 56.9475 94.7439C56.6175 95.735 56.4597 96.8143 56.474 97.9818C56.499 99.1299 56.6861 100.304 57.0354 101.504ZM95.562 90.292L95.7388 90.8996C96.2148 92.5349 96.4063 94.1716 96.3134 95.8096C96.2162 97.4327 95.8557 98.9616 95.2317 100.396C94.6077 101.831 93.7167 103.075 92.5585 104.128C91.4154 105.176 90.0262 105.939 88.3909 106.415C86.7857 106.882 85.2762 106.979 83.8626 106.707C82.4597 106.416 81.1619 105.899 79.9692 105.155C78.7915 104.408 77.7389 103.559 76.8113 102.608C75.8837 101.658 75.0883 100.742 74.4251 99.8608C73.7725 98.9604 73.2711 98.2439 72.9208 97.7112L72.6457 96.766C72.6704 96.1241 72.7188 95.2557 72.7907 94.1608C72.8732 93.0465 73.053 91.8469 73.33 90.562C73.6026 89.2622 74.0352 87.9809 74.6279 86.7181C75.2355 85.451 76.0552 84.3255 77.087 83.3417C78.1295 82.3386 79.4609 81.6013 81.0812 81.1297C82.7014 80.6582 84.2753 80.5582 85.8026 80.8297C87.3299 81.1012 88.7418 81.6749 90.0381 82.5506C91.3495 83.422 92.4764 84.5261 93.4187 85.8629C94.3717 87.1804 95.0861 88.6567 95.562 90.292ZM91.5756 92.1112L91.3988 91.5036C91.0495 90.3034 90.5698 89.2144 89.9598 88.2365C89.3454 87.2437 88.633 86.4176 87.8228 85.7584C87.0126 85.0992 86.1197 84.6593 85.1442 84.4387C84.1794 84.1987 83.1568 84.236 82.0766 84.5503C80.9965 84.8647 80.1062 85.3842 79.4057 86.1087C78.7009 86.8183 78.1426 87.6399 77.7308 88.5734C77.3147 89.4919 77.0069 90.4195 76.8076 91.3563C76.6083 92.293 76.4838 93.1511 76.4339 93.9304C76.3797 94.6948 76.3622 95.2776 76.3813 95.6788L76.6564 96.624C76.8599 96.9879 77.1918 97.4852 77.6521 98.1161C78.1123 98.747 78.6779 99.4042 79.3487 100.088C80.0196 100.771 80.7695 101.391 81.5986 101.947C82.4426 102.499 83.3546 102.893 84.3344 103.128C85.3099 103.349 86.3303 103.304 87.3955 102.994C88.4756 102.68 89.3681 102.168 90.0729 101.458C90.7777 100.749 91.2951 99.8983 91.6251 98.9072C91.97 97.9118 92.1375 96.8378 92.1276 95.6853C92.1133 94.5178 91.9293 93.3264 91.5756 92.1112Z" fill="white"/>
<g filter="url(#filter0_d_481_211)">
<path fill-rule="evenodd" clip-rule="evenodd" d="M2.22501 86.4255L43.3876 24.9304L45.2574 26.182C46.1753 26.7964 47.4175 26.5504 48.0319 25.6325C48.6464 24.7146 48.4003 23.4724 47.4824 22.8579L45.6126 21.6064L57.8502 3.32407C59.079 1.48824 61.5634 0.996184 63.3992 2.22502L68.408 5.57772C68.2088 5.84273 68.0157 6.11469 67.8291 6.39355C62.2993 14.6548 64.5136 25.8346 72.7748 31.3643C81.036 36.8941 92.2158 34.6798 97.7456 26.4186C97.9322 26.1398 98.11 25.8576 98.2791 25.5724L103.288 28.9251C105.124 30.1539 105.616 32.6383 104.387 34.4742L92.1494 52.7565L90.4874 51.644C89.5695 51.0295 88.3273 51.2756 87.7129 52.1935C87.0984 53.1114 87.3445 54.3536 88.2624 54.968L89.9244 56.0805L48.7618 117.576C47.5329 119.411 45.0485 119.903 43.2127 118.675L3.32406 91.9745C1.48823 90.7457 0.996169 88.2613 2.22501 86.4255ZM69.4305 39.956C68.8161 40.8739 69.0622 42.1161 69.9801 42.7305L72.6809 44.5383C73.5988 45.1527 74.841 44.9067 75.4554 43.9888C76.0698 43.0709 75.8238 41.8287 74.9059 41.2142L72.2051 39.4064C71.2872 38.792 70.045 39.038 69.4305 39.956ZM79.1212 48.8493C78.2033 48.2348 77.9573 46.9926 78.5717 46.0747C79.1861 45.1568 80.4283 44.9108 81.3462 45.5252L84.047 47.333C84.9649 47.9474 85.211 49.1896 84.5966 50.1075C83.9821 51.0255 82.7399 51.2715 81.822 50.6571L79.1212 48.8493ZM60.8389 36.6117C59.921 35.9973 59.675 34.7551 60.2894 33.8372C60.9038 32.9193 62.146 32.6732 63.0639 33.2877L65.7647 35.0955C66.6826 35.7099 66.9287 36.9521 66.3142 37.87C65.6998 38.7879 64.4576 39.034 63.5397 38.4195L60.8389 36.6117ZM51.1482 27.7184C50.5338 28.6363 50.7799 29.8785 51.6978 30.4929L54.3986 32.3008C55.3165 32.9152 56.5587 32.6692 57.1731 31.7512C57.7875 30.8333 57.5415 29.5911 56.6236 28.9767L53.9228 27.1689C53.0049 26.5545 51.7627 26.8005 51.1482 27.7184Z" fill="white"/>
<path fill-rule="evenodd" clip-rule="evenodd" d="M2.22501 86.4255L43.3876 24.9304L45.2574 26.182C46.1753 26.7964 47.4175 26.5504 48.0319 25.6325C48.6464 24.7146 48.4003 23.4724 47.4824 22.8579L45.6126 21.6064L57.8502 3.32407C59.079 1.48824 61.5634 0.996184 63.3992 2.22502L68.408 5.57772C68.2088 5.84273 68.0157 6.11469 67.8291 6.39355C67.0643 7.53601 66.4477 8.73428 65.9747 9.96571L64.773 9.16135C63.3962 8.23972 61.5329 8.60877 60.6112 9.98564L9.4361 86.4389C8.51447 87.8158 8.88351 89.6791 10.2604 90.6007L41.8389 111.738C43.2158 112.66 45.0791 112.291 46.0007 110.914L97.1759 34.4607C98.0975 33.0838 97.7284 31.2205 96.3516 30.2989L95.1499 29.4946C96.1081 28.5879 96.9808 27.5611 97.7456 26.4186C97.9322 26.1398 98.11 25.8576 98.2791 25.5724L103.288 28.9251C105.124 30.1539 105.616 32.6383 104.387 34.4742L92.1494 52.7565L90.4874 51.644C89.5695 51.0295 88.3273 51.2756 87.7129 52.1935C87.0984 53.1114 87.3445 54.3536 88.2624 54.968L89.9244 56.0805L48.7618 117.576C47.5329 119.411 45.0485 119.903 43.2127 118.675L3.32406 91.9745C1.48823 90.7457 0.996169 88.2613 2.22501 86.4255ZM65.6325 10.94C63.2564 18.3849 65.9553 26.7996 72.7748 31.3643C79.5942 35.929 88.4025 35.2168 94.3797 30.1823L95.7953 31.1299C96.7132 31.7443 96.9593 32.9865 96.3448 33.9045L45.1697 110.358C44.5553 111.276 43.3131 111.522 42.3952 110.907L10.8166 89.7697C9.89872 89.1553 9.65269 87.9131 10.2671 86.9952L61.4423 10.5419C62.0567 9.62398 63.2989 9.37794 64.2168 9.99236L65.6325 10.94ZM69.4305 39.956C68.8161 40.8739 69.0622 42.1161 69.9801 42.7305L72.6809 44.5383C73.5988 45.1527 74.841 44.9067 75.4554 43.9888C76.0698 43.0709 75.8238 41.8287 74.9059 41.2142L72.2051 39.4064C71.2872 38.792 70.045 39.038 69.4305 39.956ZM79.1212 48.8493C78.2033 48.2348 77.9573 46.9926 78.5717 46.0747C79.1861 45.1568 80.4283 44.9108 81.3462 45.5252L84.047 47.333C84.9649 47.9474 85.211 49.1896 84.5966 50.1075C83.9821 51.0255 82.7399 51.2715 81.822 50.6571L79.1212 48.8493ZM60.8389 36.6117C59.921 35.9973 59.675 34.7551 60.2894 33.8372C60.9038 32.9193 62.146 32.6732 63.0639 33.2877L65.7647 35.0955C66.6826 35.7099 66.9287 36.9521 66.3142 37.87C65.6998 38.7879 64.4576 39.034 63.5397 38.4195L60.8389 36.6117ZM51.1482 27.7184C50.5338 28.6363 50.7799 29.8785 51.6978 30.4929L54.3986 32.3008C55.3165 32.9152 56.5587 32.6692 57.1731 31.7512C57.7875 30.8333 57.5415 29.5911 56.6236 28.9767L53.9228 27.1689C53.0049 26.5545 51.7627 26.8005 51.1482 27.7184Z" fill="#4AFEBF"/>
<path d="M34.4111 89.534L33.8852 89.182C32.4699 88.2346 31.2738 87.1143 30.2968 85.8211C29.3155 84.5061 28.6031 83.0986 28.1595 81.5983C27.716 80.098 27.5953 78.5789 27.7975 77.0408C27.9997 75.5028 28.5745 74.0261 29.5219 72.6108C30.4606 71.2084 31.5611 70.1683 32.8234 69.4902C34.0815 68.7906 35.4019 68.3488 36.7846 68.1651C38.1761 67.9683 39.5326 67.9362 40.8541 68.0686C42.1626 68.1924 43.3561 68.3897 44.4347 68.6604C45.509 68.9094 46.3558 69.119 46.9752 69.2891L47.7932 69.8367C48.1866 70.3445 48.7097 71.0518 49.3623 71.9588C50.0107 72.844 50.648 73.8723 51.2742 75.0435C51.9004 76.2148 52.3921 77.4746 52.7492 78.823C53.1064 80.1714 53.2078 81.5649 53.0535 83.0033C52.8948 84.4201 52.3505 85.8232 51.4205 87.2125C50.4645 88.6409 49.3097 89.7481 47.9561 90.5343C46.6112 91.3075 45.1608 91.775 43.6047 91.9368C42.0486 92.0985 40.4823 91.9808 38.9056 91.5835C37.3246 91.1645 35.8264 90.4813 34.4111 89.534ZM36.2971 85.5787L36.823 85.9307C37.8747 86.6347 38.9506 87.1763 40.0507 87.5554C41.1464 87.9128 42.2165 88.0838 43.2609 88.0684C44.314 88.04 45.2852 87.797 46.1744 87.3393C47.0637 86.8816 47.8256 86.1788 48.46 85.2309C49.0771 84.309 49.4234 83.3562 49.4989 82.3727C49.5701 81.3674 49.4701 80.3792 49.1989 79.4079C48.9277 78.4367 48.5632 77.5346 48.1054 76.7017C47.6563 75.8558 47.2005 75.1183 46.738 74.489C46.2754 73.8598 45.9015 73.3932 45.616 73.0893L44.798 72.5418C44.4212 72.4024 43.8603 72.2432 43.1153 72.0641C42.3572 71.8764 41.5016 71.7361 40.5484 71.6433C39.6039 71.5375 38.6309 71.5444 37.6297 71.6639C36.6154 71.7746 35.6593 72.0654 34.7614 72.5361C33.8591 72.9851 33.0995 73.6705 32.4824 74.5924C31.8566 75.5273 31.5081 76.4974 31.4369 77.5027C31.3527 78.4992 31.5025 79.4832 31.8864 80.4547C32.2703 81.4261 32.8428 82.3546 33.6038 83.2401C34.3606 84.1039 35.2584 84.8834 36.2971 85.5787ZM58.6167 52.2343L59.1426 52.5863C60.5579 53.5337 61.7562 54.6648 62.7375 55.9797C63.7058 57.2859 64.4117 58.6892 64.8553 60.1894C65.2988 61.6897 65.4152 63.2153 65.2042 64.7664C65.002 66.3044 64.4272 67.7811 63.4799 69.1964C62.5499 70.5858 61.4559 71.6303 60.1978 72.33C58.9355 73.008 57.6086 73.4454 56.2171 73.6422C54.8344 73.8259 53.4822 73.8516 52.1607 73.7191C50.8392 73.5866 49.6413 73.3959 48.5671 73.1468C47.4885 72.8762 46.6439 72.6492 46.0332 72.4661L45.2152 71.9185C44.8218 71.4108 44.3009 70.7142 43.6525 69.829C42.9998 68.922 42.3668 67.8873 41.7536 66.7247C41.1274 65.5535 40.6358 64.2937 40.2786 62.9453C39.9301 61.5839 39.8352 60.1948 39.9939 58.778C40.1482 57.3395 40.6947 55.9191 41.6334 54.5168C42.5721 53.1144 43.7138 52.0266 45.0587 51.2534C46.4036 50.4802 47.854 50.0127 49.4101 49.851C50.9748 49.6762 52.5477 49.7983 54.1287 50.2173C55.7054 50.6146 57.2014 51.2869 58.6167 52.2343ZM56.7307 56.1895L56.2048 55.8375C55.1661 55.1422 54.0988 54.6159 53.0031 54.2585C51.8944 53.8924 50.8178 53.717 49.7734 53.7324C48.7289 53.7478 47.7621 53.9843 46.8729 54.442C45.9793 54.8781 45.2197 55.5635 44.5939 56.4984C43.9681 57.4333 43.6196 58.4034 43.5484 59.4086C43.4642 60.4052 43.5642 61.3935 43.8484 62.3734C44.1196 63.3446 44.4797 64.2532 44.9289 65.0991C45.378 65.945 45.8338 66.6825 46.2963 67.3118C46.7459 67.9323 47.1069 68.3902 47.3793 68.6854L48.1974 69.2329C48.5871 69.381 49.161 69.5489 49.919 69.7367C50.6771 69.9244 51.5327 70.0647 52.4859 70.1575C53.4391 70.2503 54.412 70.2434 55.4046 70.1369C56.4059 70.0174 57.3577 69.7332 58.2599 69.2842C59.1491 68.8265 59.9023 68.1367 60.5194 67.2148C61.1452 66.2799 61.5002 65.3142 61.5844 64.3176C61.6686 63.321 61.5187 62.337 61.1348 61.3656C60.7597 60.3811 60.198 59.4505 59.4499 58.5737C58.6889 57.6883 57.7825 56.8935 56.7307 56.1895Z" fill="white"/>
</g>
<defs>
<filter id="filter0_d_481_211" x="1.54883" y="1.54883" width="104.515" height="123.802" filterUnits="userSpaceOnUse" color-interpolation-filters="sRGB">
<feFlood flood-opacity="0" result="BackgroundImageFix"/>
<feColorMatrix in="SourceAlpha" type="matrix" values="0 0 0 0 0 0 0 0 0 0 0 0 0 0 0 0 0 0 127 0" result="hardAlpha"/>
<feOffset dx="1" dy="6"/>
<feComposite in2="hardAlpha" operator="out"/>
<feColorMatrix type="matrix" values="0 0 0 0 0 0 0 0 0 0 0 0 0 0 0 0 0 0 0.25 0"/>
<feBlend mode="normal" in2="BackgroundImageFix" result="effect1_dropShadow_481_211"/>
<feBlend mode="normal" in="SourceGraphic" in2="effect1_dropShadow_481_211" result="shape"/>
</filter>
</defs>
</svg>
