<svg width="233" height="71" viewBox="0 0 233 71" fill="none" xmlns="http://www.w3.org/2000/svg">
<g clip-path="url(#clip0_481_134)">
<path d="M1.99023 21.5803V49.4198C1.99023 51.1915 2.77904 52.8325 4.06539 53.7184L24.2102 67.6309C25.4965 68.5167 27.0741 68.5167 28.3605 67.6309L48.5053 53.7184C49.7916 52.8325 50.5804 51.1915 50.5804 49.4198V21.5803C50.5804 19.8086 49.7916 18.1676 48.5053 17.2817L28.3605 3.36923C27.0741 2.48337 25.4965 2.48337 24.2102 3.36923L4.06539 17.2817C2.79117 18.1676 1.99023 19.8086 1.99023 21.5803Z" fill="#213147"/>
<path d="M30.6908 40.895L27.8147 50.3201C27.7297 50.5815 27.7297 50.8719 27.8147 51.1333L32.7538 67.3548L38.4696 63.4048L31.6131 40.895C31.4553 40.3722 30.8485 40.3722 30.6908 40.895Z" fill="#12AAFF"/>
<path d="M36.4431 25.0366C36.2854 24.5138 35.6786 24.5138 35.5209 25.0366L32.6448 34.4617C32.5598 34.7231 32.5598 35.0135 32.6448 35.2749L40.7391 61.8364L46.4549 57.8863L36.4431 25.0366Z" fill="#12AAFF"/>
<path d="M26.2853 4.40029C26.4309 4.40029 26.5644 4.44385 26.6979 4.53099L48.4931 19.5907C48.748 19.765 48.9057 20.0845 48.9057 20.433V50.5525C48.9057 50.901 48.748 51.2205 48.4931 51.3948L26.6979 66.469C26.5766 66.5562 26.4309 66.5997 26.2853 66.5997C26.1397 66.5997 26.0062 66.5562 25.8727 66.469L4.08964 51.4093C3.83479 51.235 3.67703 50.9155 3.67703 50.567V20.433C3.67703 20.0845 3.83479 19.765 4.08964 19.5907L25.8848 4.53099C26.0062 4.44385 26.1518 4.40029 26.2853 4.40029ZM26.2853 0C25.5086 0 24.732 0.246881 24.0403 0.72612L2.24505 15.7858C0.861615 16.7443 0 18.5161 0 20.433V50.5525C0 52.4694 0.861615 54.2557 2.24505 55.2142L24.0403 70.2739C24.732 70.7531 25.5086 71 26.2853 71C27.062 71 27.8386 70.7531 28.5304 70.2739L50.3256 55.2142C51.7211 54.2557 52.5706 52.4839 52.5706 50.5525V20.433C52.5706 18.5161 51.709 16.7298 50.3256 15.7713L28.5425 0.72612C27.8386 0.246881 27.062 0 26.2853 0Z" fill="#9DCCED"/>
<path d="M11.8809 61.8654L13.8832 55.3013L17.9122 59.3095L14.1502 63.4338L11.8809 61.8654Z" fill="#213147"/>
<path d="M24.4531 18.2837H18.9315C18.5189 18.2837 18.1427 18.5887 18.0092 19.0534L6.16504 57.9153L11.8808 61.8654L24.9264 19.0679C25.0356 18.6903 24.805 18.2837 24.4531 18.2837Z" fill="white"/>
<path d="M34.1253 18.2837H28.6037C28.1911 18.2837 27.8149 18.5887 27.6814 19.0534L14.1504 63.4338L19.8662 67.3839L34.5864 19.0824C34.7078 18.6903 34.4651 18.2837 34.1253 18.2837Z" fill="white"/>
<path d="M76.101 18.2981C76.6471 18.2981 77.1203 18.4288 77.4965 18.7047C77.8727 18.9806 78.2489 19.5035 78.613 20.2877L85.8214 35.9428C85.8942 36.1171 85.9064 36.2623 85.87 36.3785C85.8336 36.4947 85.7243 36.5527 85.5544 36.5527H82.7876C82.5449 36.5527 82.375 36.4366 82.29 36.2187L80.7488 32.8641H70.5187L69.0139 36.2187C68.9168 36.4511 68.7469 36.5527 68.5163 36.5527H65.6888C65.4946 36.5527 65.3854 36.4947 65.349 36.3785C65.3126 36.2623 65.3247 36.1171 65.3975 35.9428L72.5453 20.2877C72.9093 19.5035 73.2613 18.9806 73.6132 18.7047C73.9651 18.4288 74.3656 18.2981 74.8267 18.2981H76.101ZM71.8657 29.8144H79.3654L75.9068 22.1756C75.8461 22.0594 75.7733 21.9868 75.6641 21.9868H75.5306C75.4335 21.9868 75.3486 22.0449 75.2879 22.1756L71.8657 29.8144Z" fill="white"/>
<path d="M101.658 18.2982C103.332 18.2982 104.522 18.7484 105.25 19.6488C105.978 20.5492 106.342 21.8852 106.342 23.657V25.1383C106.342 26.6341 106.087 27.8104 105.577 28.6817C105.068 29.5531 104.242 30.1049 103.09 30.3518L106.815 35.8703C106.888 35.9574 106.912 36.0882 106.876 36.2624C106.852 36.4367 106.73 36.5238 106.524 36.5238H103.721C103.526 36.5238 103.405 36.4948 103.332 36.4512C103.259 36.3931 103.187 36.306 103.114 36.1898L99.6674 30.773H92.6288V35.9574C92.6288 36.335 92.4711 36.5238 92.1555 36.5238H89.8013C89.4615 36.5238 89.3037 36.335 89.3037 35.9574V19.0679C89.3037 18.5451 89.5221 18.2837 89.959 18.2837L101.658 18.2982ZM92.641 27.5925H100.978C101.718 27.5925 102.24 27.4038 102.543 27.0262C102.847 26.6486 103.005 26.0677 103.005 25.2835V24.1943C103.005 23.4101 102.847 22.8292 102.543 22.4516C102.24 22.074 101.718 21.8852 100.978 21.8852H92.9201C92.7259 21.8852 92.641 21.9869 92.641 22.2047V27.5925Z" fill="white"/>
<path d="M124.558 18.2982C126.05 18.2982 127.118 18.6613 127.749 19.3729C128.38 20.0845 128.696 21.1591 128.696 22.5968V23.8458C128.696 25.298 128.235 26.4017 127.3 27.1569C128.296 27.854 128.805 28.9722 128.805 30.5116V32.0219C128.805 32.719 128.745 33.3434 128.611 33.8953C128.478 34.4471 128.271 34.9264 127.968 35.3185C127.664 35.7106 127.276 36.0155 126.779 36.2189C126.281 36.4222 125.674 36.5383 124.946 36.5383H112.01C111.573 36.5383 111.354 36.2769 111.354 35.7541V19.0679C111.354 18.5451 111.573 18.2837 112.01 18.2837L124.558 18.2982ZM114.692 25.8789H123.623C124.352 25.8789 124.837 25.7482 125.104 25.4868C125.371 25.2254 125.492 24.8478 125.492 24.3395V23.4537C125.492 22.9163 125.371 22.5242 125.116 22.2628C124.861 22.0159 124.449 21.8852 123.89 21.8852H114.983C114.789 21.8852 114.704 22.0014 114.704 22.2193V25.8789H114.692ZM114.692 28.7108V32.5883C114.692 32.8206 114.789 32.9223 114.971 32.9223H123.903C124.485 32.9223 124.898 32.7916 125.14 32.5447C125.383 32.2978 125.517 31.8912 125.517 31.3393V30.3518C125.517 29.8145 125.383 29.4078 125.116 29.1319C124.849 28.856 124.352 28.7108 123.623 28.7108H114.692Z" fill="white"/>
<path d="M136.923 18.2981C137.239 18.2981 137.396 18.4869 137.396 18.8645V35.9573C137.396 36.3349 137.239 36.5237 136.923 36.5237H134.569C134.229 36.5237 134.071 36.3349 134.071 35.9573V18.8645C134.071 18.4869 134.241 18.2981 134.569 18.2981H136.923Z" fill="white"/>
<path d="M159.738 18.2981C160.078 18.2981 160.236 18.4869 160.236 18.8645V21.4204C160.236 21.827 160.066 22.0158 159.738 22.0158H152.906V35.9573C152.906 36.3349 152.748 36.5237 152.433 36.5237H150.054C149.739 36.5237 149.581 36.3349 149.581 35.9573V22.0158H142.749C142.409 22.0158 142.251 21.8125 142.251 21.4204V18.8645C142.251 18.4869 142.421 18.2981 142.749 18.2981H159.738Z" fill="white"/>
<path d="M176.958 18.2982C178.633 18.2982 179.822 18.7484 180.55 19.6488C181.279 20.5492 181.643 21.8852 181.643 23.657V25.1383C181.643 26.6341 181.388 27.8104 180.878 28.6817C180.368 29.5531 179.543 30.1049 178.39 30.3518L182.116 35.8703C182.189 35.9574 182.213 36.0882 182.177 36.2624C182.152 36.4367 182.031 36.5238 181.825 36.5238H179.021C178.827 36.5238 178.706 36.4948 178.633 36.4512C178.56 36.3931 178.487 36.306 178.415 36.1898L174.968 30.773H167.93V35.9574C167.93 36.335 167.772 36.5238 167.456 36.5238H165.102C164.762 36.5238 164.604 36.335 164.604 35.9574V19.0679C164.604 18.5451 164.823 18.2837 165.26 18.2837L176.958 18.2982ZM167.954 27.5925H176.291C177.031 27.5925 177.553 27.4038 177.856 27.0262C178.16 26.6486 178.318 26.0677 178.318 25.2835V24.1943C178.318 23.4101 178.16 22.8292 177.856 22.4516C177.553 22.074 177.031 21.8852 176.291 21.8852H168.233C168.039 21.8852 167.954 21.9869 167.954 22.2047V27.5925Z" fill="white"/>
<path d="M189.203 18.2981C189.518 18.2981 189.676 18.4869 189.676 18.8645V29.2625C189.676 29.9596 189.724 30.5405 189.821 30.9907C189.919 31.4554 190.076 31.8184 190.295 32.0799C190.513 32.3558 190.804 32.5446 191.181 32.6462C191.557 32.7624 192.018 32.8205 192.588 32.8205H198.62C199.19 32.8205 199.651 32.7624 200.027 32.6462C200.404 32.53 200.695 32.3413 200.913 32.0799C201.132 31.8039 201.289 31.4409 201.374 30.9907C201.459 30.526 201.508 29.9596 201.508 29.2625V18.8645C201.508 18.4869 201.666 18.2981 201.981 18.2981H204.36C204.675 18.2981 204.833 18.4869 204.833 18.8645V29.6546C204.833 30.9035 204.724 31.9637 204.505 32.8495C204.287 33.7209 203.935 34.4325 203.45 34.9843C202.964 35.5362 202.333 35.9283 201.556 36.1752C200.78 36.422 199.845 36.5382 198.741 36.5382H192.467C191.363 36.5382 190.428 36.422 189.664 36.1752C188.899 35.9283 188.268 35.5362 187.783 34.9843C187.297 34.4325 186.945 33.7209 186.715 32.8495C186.484 31.9782 186.375 30.9035 186.375 29.6546V18.8645C186.375 18.4869 186.545 18.2981 186.873 18.2981H189.203Z" fill="white"/>
<path d="M214.19 18.2981C214.505 18.2981 214.784 18.3271 215.015 18.3707C215.245 18.4288 215.452 18.5159 215.622 18.6757C215.792 18.8209 215.949 19.0242 216.095 19.2711C216.228 19.518 216.374 19.852 216.52 20.2731L221.046 32.7769C221.107 32.9367 221.204 33.0093 221.35 33.0093H221.616C221.762 33.0093 221.859 32.9367 221.92 32.7769L226.446 20.2731C226.592 19.852 226.738 19.518 226.871 19.2711C227.005 19.0242 227.162 18.8209 227.344 18.6757C227.514 18.5305 227.721 18.4288 227.939 18.3707C228.17 18.3126 228.437 18.2981 228.752 18.2981H231.082C231.835 18.2981 232.344 18.5014 232.611 18.908C232.878 19.3147 233 20.0117 233 20.9993V35.9573C233 36.3349 232.83 36.5237 232.502 36.5237H230.281C229.966 36.5237 229.808 36.3349 229.808 35.9573V22.3644C229.808 22.1901 229.747 22.103 229.638 22.103H229.444C229.298 22.103 229.201 22.1756 229.165 22.3063L224.747 33.9823C224.578 34.447 224.396 34.8536 224.213 35.1731C224.031 35.4926 223.837 35.754 223.631 35.9719C223.425 36.1752 223.182 36.3349 222.915 36.422C222.648 36.5092 222.332 36.5527 221.968 36.5527H220.925C220.561 36.5527 220.245 36.5092 219.978 36.422C219.711 36.3349 219.469 36.1897 219.262 35.9719C219.056 35.7685 218.85 35.4926 218.68 35.1731C218.498 34.8536 218.316 34.4615 218.146 33.9823L213.753 22.3063C213.704 22.1611 213.619 22.103 213.474 22.103H213.279C213.158 22.103 213.11 22.1901 213.11 22.3644V35.9719C213.11 36.3494 212.952 36.5382 212.636 36.5382H210.416C210.076 36.5382 209.918 36.3494 209.918 35.9719V21.0138C209.918 20.0263 210.051 19.3292 210.306 18.9226C210.573 18.5159 211.083 18.3126 211.847 18.3126H214.19V18.2981Z" fill="white"/>
<path d="M74.5718 41.926C74.766 41.926 74.8631 42.0422 74.8631 42.26V43.7268C74.8631 43.9592 74.766 44.0608 74.5718 44.0608H68.9895C68.6497 44.0608 68.3828 44.0899 68.1643 44.1625C67.9459 44.2351 67.776 44.3367 67.6425 44.4965C67.509 44.6562 67.4241 44.8741 67.3634 45.15C67.3027 45.4259 67.2784 45.7599 67.2784 46.152V46.457H74.5111C74.7053 46.457 74.7903 46.5732 74.7903 46.791V48.0109C74.7903 48.2433 74.6932 48.3449 74.5111 48.3449H67.2784V52.3531C67.2784 52.5855 67.1813 52.6871 66.9993 52.6871H65.6037C65.4096 52.6871 65.3125 52.5709 65.3125 52.3531V45.9778C65.3125 45.2371 65.3732 44.6127 65.5067 44.1044C65.6402 43.5961 65.8465 43.175 66.1377 42.8555C66.429 42.536 66.793 42.2891 67.2542 42.1439C67.7032 41.9986 68.2614 41.926 68.9167 41.926H74.5718Z" fill="#12AAFF"/>
<path d="M84.9108 41.926C85.5661 41.926 86.1243 41.9986 86.5734 42.1439C87.0345 42.2891 87.4107 42.536 87.6898 42.8555C87.9811 43.175 88.1874 43.5961 88.3087 44.1044C88.4422 44.6127 88.5029 45.2371 88.5029 45.9778V48.6208C88.5029 49.3615 88.4422 49.986 88.3087 50.5088C88.1752 51.0316 87.9689 51.4527 87.6898 51.7722C87.3986 52.0917 87.0345 52.3241 86.5734 52.4693C86.1122 52.6145 85.554 52.6871 84.9108 52.6871H80.9304C80.2751 52.6871 79.729 52.6145 79.2678 52.4693C78.8188 52.3241 78.4426 52.0917 78.1514 51.7722C77.8601 51.4527 77.6538 51.0316 77.5203 50.5088C77.3868 49.986 77.3262 49.3615 77.3262 48.6208V45.9778C77.3262 45.2371 77.3868 44.6127 77.5203 44.1044C77.6538 43.5961 77.8601 43.175 78.1514 42.8555C78.4426 42.536 78.8067 42.2891 79.2678 42.1439C79.7168 41.9986 80.2751 41.926 80.9304 41.926H84.9108ZM79.3042 48.4611C79.3042 48.8677 79.3285 49.2017 79.3892 49.4631C79.4499 49.7391 79.5348 49.9569 79.6683 50.1167C79.8018 50.2764 79.9717 50.3926 80.1901 50.4507C80.4086 50.5233 80.6877 50.5523 81.0153 50.5523H84.838C85.1778 50.5523 85.4448 50.5233 85.6632 50.4507C85.8816 50.3781 86.0515 50.2764 86.185 50.1167C86.3185 49.9569 86.4035 49.7391 86.4641 49.4631C86.5248 49.1872 86.5491 48.8532 86.5491 48.4611V46.152C86.5491 45.7454 86.5248 45.4114 86.4641 45.15C86.4035 44.8741 86.3185 44.6562 86.185 44.4965C86.0515 44.3367 85.8816 44.2206 85.6632 44.1625C85.4448 44.0899 85.1656 44.0608 84.838 44.0608H81.0153C80.6755 44.0608 80.4086 44.0899 80.1901 44.1625C79.9717 44.2351 79.8018 44.3367 79.6683 44.4965C79.5348 44.6562 79.4499 44.8741 79.3892 45.15C79.3285 45.4259 79.3042 45.7599 79.3042 46.152V48.4611Z" fill="#12AAFF"/>
<path d="M93.054 41.926C93.2482 41.926 93.3331 42.0422 93.3331 42.26V48.403C93.3331 48.8096 93.3574 49.1582 93.4181 49.4341C93.4787 49.71 93.5637 49.9279 93.6972 50.0876C93.8307 50.2474 94.0006 50.3635 94.219 50.4216C94.4374 50.4942 94.7166 50.5233 95.0442 50.5233H98.612C98.9518 50.5233 99.2188 50.4942 99.4372 50.4216C99.6557 50.349 99.8256 50.2474 99.9591 50.0876C100.093 49.9279 100.178 49.71 100.226 49.4341C100.275 49.1582 100.299 48.8242 100.299 48.403V42.26C100.299 42.0277 100.396 41.926 100.578 41.926H101.986C102.18 41.926 102.265 42.0422 102.265 42.26V48.6354C102.265 49.376 102.204 50.0005 102.071 50.5233C101.937 51.0461 101.731 51.4672 101.452 51.7867C101.173 52.1062 100.796 52.3386 100.335 52.4838C99.8741 52.629 99.3159 52.7016 98.6727 52.7016H94.9714C94.3161 52.7016 93.77 52.629 93.3089 52.4838C92.8598 52.3386 92.4836 52.1062 92.1924 51.7867C91.9011 51.4672 91.6948 51.0461 91.5614 50.5233C91.4279 50.0005 91.3672 49.376 91.3672 48.6354V42.26C91.3672 42.0277 91.4643 41.926 91.6584 41.926H93.054Z" fill="#12AAFF"/>
<path d="M107.544 41.926C107.75 41.926 107.92 41.9405 108.054 41.9551C108.187 41.9696 108.309 42.0132 108.418 42.0858C108.515 42.1584 108.624 42.2455 108.709 42.3617C108.806 42.4779 108.915 42.6376 109.037 42.8264L113.83 50.349C113.867 50.4216 113.915 50.4507 114 50.4507H114.122C114.194 50.4507 114.219 50.3926 114.219 50.2909V42.26C114.219 42.0277 114.316 41.926 114.498 41.926H115.845C116.039 41.926 116.124 42.0422 116.124 42.26V51.1042C116.124 51.7286 116.027 52.1498 115.845 52.3822C115.651 52.6 115.359 52.7162 114.971 52.7162H113.867C113.673 52.7162 113.503 52.7016 113.369 52.6871C113.236 52.6726 113.114 52.629 113.017 52.5709C112.92 52.5129 112.811 52.4257 112.714 52.295C112.617 52.1788 112.508 52.0191 112.374 51.8158L107.568 44.3077C107.52 44.2351 107.459 44.206 107.399 44.206H107.277C107.204 44.206 107.18 44.2641 107.18 44.3658V52.4112C107.18 52.6436 107.083 52.7452 106.901 52.7452H105.554C105.36 52.7452 105.263 52.629 105.263 52.4112V43.5671C105.263 42.9426 105.36 42.5214 105.542 42.2891C105.736 42.0712 106.027 41.9551 106.416 41.9551H107.544V41.926Z" fill="#12AAFF"/>
<path d="M125.54 41.9261C126.232 41.9261 126.827 42.0133 127.324 42.173C127.822 42.3473 128.234 42.6087 128.55 42.9572C128.865 43.3058 129.096 43.756 129.254 44.3078C129.399 44.8597 129.484 45.5132 129.484 46.2538V48.3596C129.484 49.1147 129.412 49.7537 129.254 50.3056C129.108 50.8574 128.865 51.3076 128.55 51.6562C128.234 52.0047 127.822 52.2661 127.324 52.4404C126.827 52.6146 126.232 52.7018 125.54 52.7018H119.521C119.266 52.7018 119.133 52.542 119.133 52.237V42.3763C119.133 42.0714 119.266 41.9116 119.521 41.9116H125.54V41.9261ZM121.099 50.3637C121.099 50.4944 121.159 50.567 121.269 50.567H125.492C125.868 50.567 126.183 50.5234 126.438 50.4508C126.693 50.3637 126.899 50.233 127.057 50.0442C127.215 49.8554 127.324 49.6085 127.397 49.3035C127.47 48.9986 127.494 48.621 127.494 48.1708V46.4717C127.494 46.0215 127.458 45.6439 127.397 45.3389C127.324 45.0339 127.215 44.7871 127.057 44.5983C126.899 44.4095 126.693 44.2788 126.438 44.1916C126.183 44.1045 125.868 44.0755 125.492 44.0755H121.269C121.159 44.0755 121.099 44.1481 121.099 44.2933V50.3637Z" fill="#12AAFF"/>
<path d="M137.567 41.926C137.894 41.926 138.161 41.9986 138.392 42.1584C138.61 42.3181 138.829 42.6231 139.047 43.0878L143.307 52.3386C143.355 52.4402 143.355 52.5274 143.343 52.5855C143.319 52.6581 143.258 52.6871 143.161 52.6871H141.523C141.377 52.6871 141.28 52.6145 141.231 52.4838L140.321 50.4942H134.278L133.392 52.4838C133.331 52.6145 133.234 52.6871 133.101 52.6871H131.426C131.317 52.6871 131.244 52.6581 131.232 52.5855C131.208 52.5129 131.22 52.4402 131.268 52.3386L135.491 43.0878C135.71 42.6231 135.916 42.3181 136.122 42.1584C136.329 41.9986 136.571 41.926 136.838 41.926H137.567ZM135.079 48.7225H139.508L137.457 44.206C137.421 44.1334 137.372 44.1044 137.312 44.1044H137.239C137.178 44.1044 137.13 44.1334 137.093 44.206L135.079 48.7225Z" fill="#12AAFF"/>
<path d="M153.816 41.926C154.01 41.926 154.107 42.0422 154.107 42.26V43.7704C154.107 44.0027 154.01 44.1189 153.816 44.1189H149.775V52.3531C149.775 52.5855 149.678 52.6871 149.496 52.6871H148.088C147.894 52.6871 147.809 52.5709 147.809 52.3531V44.1189H143.768C143.574 44.1189 143.477 44.0027 143.477 43.7704V42.26C143.477 42.0277 143.574 41.926 143.768 41.926H153.816Z" fill="#12AAFF"/>
<path d="M158.234 41.926C158.428 41.926 158.513 42.0422 158.513 42.26V52.3676C158.513 52.6 158.416 52.7016 158.234 52.7016H156.838C156.644 52.7016 156.547 52.5855 156.547 52.3676V42.26C156.547 42.0277 156.644 41.926 156.838 41.926H158.234Z" fill="#12AAFF"/>
<path d="M168.985 41.926C169.64 41.926 170.199 41.9986 170.648 42.1439C171.109 42.2891 171.485 42.536 171.764 42.8555C172.055 43.175 172.262 43.5961 172.383 44.1044C172.516 44.6127 172.577 45.2371 172.577 45.9778V48.6208C172.577 49.3615 172.516 49.986 172.383 50.5088C172.249 51.0316 172.043 51.4527 171.764 51.7722C171.473 52.0917 171.109 52.3241 170.648 52.4693C170.186 52.6145 169.628 52.6871 168.985 52.6871H165.005C164.349 52.6871 163.803 52.6145 163.342 52.4693C162.893 52.3241 162.517 52.0917 162.226 51.7722C161.934 51.4527 161.728 51.0316 161.595 50.5088C161.461 49.986 161.4 49.3615 161.4 48.6208V45.9778C161.4 45.2371 161.461 44.6127 161.595 44.1044C161.728 43.5961 161.934 43.175 162.226 42.8555C162.517 42.536 162.881 42.2891 163.342 42.1439C163.791 41.9986 164.349 41.926 165.005 41.926H168.985ZM163.378 48.4611C163.378 48.8677 163.403 49.2017 163.463 49.4631C163.524 49.7391 163.609 49.9569 163.743 50.1167C163.876 50.2764 164.046 50.3926 164.264 50.4507C164.483 50.5233 164.762 50.5523 165.09 50.5523H168.912C169.252 50.5523 169.519 50.5233 169.737 50.4507C169.956 50.3781 170.126 50.2764 170.259 50.1167C170.393 49.9569 170.478 49.7391 170.538 49.4631C170.599 49.1872 170.623 48.8532 170.623 48.4611V46.152C170.623 45.7454 170.599 45.4114 170.538 45.15C170.478 44.8741 170.393 44.6562 170.259 44.4965C170.126 44.3367 169.956 44.2206 169.737 44.1625C169.519 44.0899 169.24 44.0608 168.912 44.0608H165.09C164.75 44.0608 164.483 44.0899 164.264 44.1625C164.046 44.2351 163.876 44.3367 163.743 44.4965C163.609 44.6562 163.524 44.8741 163.463 45.15C163.403 45.4259 163.378 45.7599 163.378 46.152V48.4611Z" fill="#12AAFF"/>
<path d="M177.759 41.926C177.965 41.926 178.135 41.9405 178.269 41.9551C178.402 41.9696 178.524 42.0132 178.633 42.0858C178.73 42.1584 178.839 42.2455 178.924 42.3617C179.021 42.4779 179.13 42.6376 179.252 42.8264L184.045 50.349C184.082 50.4216 184.13 50.4507 184.215 50.4507H184.336C184.409 50.4507 184.433 50.3926 184.433 50.2909V42.26C184.433 42.0277 184.531 41.926 184.713 41.926H186.06C186.254 41.926 186.339 42.0422 186.339 42.26V51.1042C186.339 51.7286 186.242 52.1498 186.06 52.3822C185.865 52.6 185.574 52.7162 185.186 52.7162H184.082C183.887 52.7162 183.717 52.7016 183.584 52.6871C183.451 52.6726 183.329 52.629 183.232 52.5709C183.135 52.5129 183.026 52.4257 182.929 52.295C182.832 52.1788 182.722 52.0191 182.589 51.8158L177.783 44.3077C177.735 44.2351 177.674 44.206 177.613 44.206H177.492C177.419 44.206 177.395 44.2641 177.395 44.3658V52.4112C177.395 52.6436 177.298 52.7452 177.116 52.7452H175.769C175.575 52.7452 175.478 52.629 175.478 52.4112V43.5671C175.478 42.9426 175.575 42.5214 175.757 42.2891C175.951 42.0712 176.242 41.9551 176.63 41.9551H177.759V41.926Z" fill="#12AAFF"/>
</g>
<defs>
<clipPath id="clip0_481_134">
<rect width="233" height="71" fill="white"/>
</clipPath>
</defs>
</svg>
