<svg width="240" height="53" viewBox="0 0 240 53" fill="none" xmlns="http://www.w3.org/2000/svg">
<path d="M88.4564 15.7529C85.5242 15.7529 83.087 16.8525 81.5877 18.8446L81.5354 18.9161H81.0717L80.6115 16.2242H76.0928V49.1835H81.3681V37.2914H81.8562L81.9085 37.3593C82.571 38.2197 84.5305 40.2189 88.4529 40.2189C94.5999 40.2189 99.0628 35.0744 99.0628 27.9841C99.0628 20.8939 94.5999 15.7529 88.4529 15.7529H88.4564ZM87.5813 35.2422C83.9831 35.2422 81.3681 32.1897 81.3681 27.9841C81.3681 23.7785 83.9796 20.7261 87.5813 20.7261C91.183 20.7261 93.7945 23.7785 93.7945 27.9841C93.7945 32.1897 91.183 35.2422 87.5813 35.2422Z" fill="#F7F5F4"/>
<path d="M202.658 15.7529C195.894 15.7529 190.988 20.8975 190.988 27.9841C190.988 35.0708 195.897 40.2189 202.658 40.2189C209.419 40.2189 214.328 35.0744 214.328 27.9841C214.328 20.8939 209.419 15.7529 202.658 15.7529ZM202.658 35.1958C198.952 35.1958 196.26 32.1647 196.26 27.9841C196.26 23.8035 199.011 20.7261 202.658 20.7261C206.305 20.7261 209.007 23.7785 209.007 27.9841C209.007 32.1897 206.336 35.1958 202.658 35.1958Z" fill="#F7F5F4"/>
<path d="M186.445 16.2242H181.881L181.421 18.8197H180.961L180.908 18.7554C179.817 17.3845 177.781 15.7529 174.27 15.7529C168.227 15.7529 163.845 20.5012 163.845 27.0416C163.845 33.5821 168.231 38.3767 174.27 38.3767C176.812 38.3767 179.196 37.4271 180.64 35.8384L180.692 35.7813H181.173V39.3085C181.173 42.6894 178.862 44.96 175.424 44.96C171.651 44.96 170.215 42.7144 169.932 41.2792H164.549C164.786 44.7137 167.83 49.6512 175.427 49.6512C182.226 49.6512 186.452 45.6883 186.452 39.305V16.2242H186.445ZM175.145 33.5892C171.735 33.5892 169.162 30.7724 169.162 27.0416C169.162 23.3109 171.735 20.5405 175.145 20.5405C178.555 20.5405 181.173 23.3359 181.173 27.0416C181.173 30.7474 178.639 33.5892 175.145 33.5892Z" fill="#F7F5F4"/>
<path d="M229.527 20.869C232.539 20.869 234.725 23.1681 234.725 26.3348V39.7478H240.001V25.5815C240.001 19.7944 236.28 15.7566 230.956 15.7566C227.762 15.7566 225.405 17.1989 224.359 18.4306L224.307 18.4913H223.857L223.397 16.2278H218.875V39.7513H224.15V26.3384C224.15 23.2217 226.465 20.8726 229.534 20.8726L229.527 20.869Z" fill="#F7F5F4"/>
<path d="M162.778 16.2241H157.161L151.722 32.7895H150.554L150.512 32.6716L144.518 16.2241H138.901L148.329 41.3399L147.754 42.9607C147.426 43.8033 146.858 44.2102 146.025 44.2102H141.59V49.187H146.854C150.536 49.187 151.795 47.6554 152.729 45.01L162.785 16.2277L162.778 16.2241Z" fill="#F7F5F4"/>
<path d="M135.753 7.07031H130.478V39.7476H135.753V7.07031Z" fill="#F7F5F4"/>
<path d="M114.171 15.7529C107.407 15.7529 102.501 20.8975 102.501 27.9841C102.501 35.0708 107.41 40.2189 114.171 40.2189C120.931 40.2189 125.841 35.0744 125.841 27.9841C125.841 20.8939 120.931 15.7529 114.171 15.7529ZM114.171 35.1958C110.464 35.1958 107.773 32.1647 107.773 27.9841C107.773 23.8035 110.524 20.7261 114.171 20.7261C117.818 20.7261 120.52 23.7785 120.52 27.9841C120.52 32.1897 117.849 35.1958 114.171 35.1958Z" fill="#F7F5F4"/>
<path d="M43.1438 37.0591L56.9684 28.8871C57.6727 28.4694 58.112 27.6947 58.112 26.8593V10.5118C58.112 9.67992 57.6727 8.90163 56.9684 8.48393L43.1438 0.31194C42.4395 -0.105763 41.5643 -0.102193 40.86 0.31194L27.0355 8.48393C26.3312 8.90163 25.8919 9.67635 25.8919 10.5118V39.776L25.6722 39.9045L16.1083 45.556L6.32827 39.7724V28.2052L6.54793 28.0767L16.1118 22.4252L21.938 25.8668V18.3839L17.2554 15.617C16.9102 15.4135 16.5163 15.3064 16.1118 15.3064C15.7074 15.3064 15.3134 15.4135 14.9682 15.617L1.14362 23.789C0.439317 24.2067 0 24.9814 0 25.8168V42.1644C0 42.9962 0.439317 43.7745 1.14362 44.1922L14.9682 52.3642C15.6725 52.7819 16.5476 52.7819 17.2519 52.3642L31.0765 44.1922C31.7808 43.7745 32.2201 42.9998 32.2201 42.1644V12.9037L32.4398 12.7752L42.0037 7.12372L51.7837 12.9073V24.4745L51.564 24.603L42.0002 30.2581L36.174 26.8165V34.2994L40.8565 37.0663C41.5609 37.484 42.436 37.484 43.1403 37.0663L43.1438 37.0591Z" fill="url(#paint0_linear_481_171)"/>
<defs>
<linearGradient id="paint0_linear_481_171" x1="0.61365" y1="43.4318" x2="57.813" y2="10.6437" gradientUnits="userSpaceOnUse">
<stop stop-color="#A726C1"/>
<stop offset="0.88" stop-color="#803BDF"/>
<stop offset="1" stop-color="#7B3FE4"/>
</linearGradient>
</defs>
</svg>
